<?xml version="1.0" encoding="UTF-8" standalone="no"?>
<!-- Created with Inkscape (http://www.inkscape.org/) -->

<svg
   version="1.1"
   id="svg182"
   width="470.47235"
   height="446.71082"
   viewBox="0 0 470.47235 446.71082"
   sodipodi:docname="dp.png"
   xmlns:inkscape="http://www.inkscape.org/namespaces/inkscape"
   xmlns:sodipodi="http://sodipodi.sourceforge.net/DTD/sodipodi-0.dtd"
   xmlns="http://www.w3.org/2000/svg"
   xmlns:svg="http://www.w3.org/2000/svg">
  <defs
     id="defs186" />
  <sodipodi:namedview
     id="namedview184"
     pagecolor="#ffffff"
     bordercolor="#000000"
     borderopacity="0.25"
     inkscape:showpageshadow="2"
     inkscape:pageopacity="0.0"
     inkscape:pagecheckerboard="0"
     inkscape:deskcolor="#d1d1d1"
     showgrid="false" />
  <g
     inkscape:groupmode="layer"
     inkscape:label="Image"
     id="g188"
     transform="translate(-14.763819,-26.644608)">
    <path
       style="fill:#0C2738;fill-opacity:1"
       d="m 16.962061,472.36516 c -2.07702,-2.07702 0.61838,-3.82589 5.89655,-3.82589 h 4.87756 l -0.011,-21.75 c -0.006,-11.9625 -0.28993,-23.4375 -0.63084,-25.5 l -0.61984,-3.75 h -5.86915 c -4.9337,0 -5.86469,-0.27892 -5.84109,-1.75 0.0154,-0.9625 4.06333,-5.9125 8.99532,-11 l 8.96725,-9.25 h 36.00468 36.004679 v -2.37756 c 0,-4.2265 2.2169,-4.96735 15.31663,-5.11857 13.54037,-0.1563 16.68337,0.78927 16.68337,5.01918 v 2.47695 h 28.56574 c 16.58513,0 29.32755,0.40771 30.38215,0.97211 1.51555,0.8111 2.95393,-0.27896 8.68426,-6.58124 3.77732,-4.15435 6.86785,-7.87006 6.86785,-8.25714 0,-0.38709 -1.39939,-2.4015 -3.10976,-4.47647 l -3.10977,-3.77269 -5.89023,7.03884 -5.89024,7.03885 -6.25,0.0189 -6.25,0.0188 v -22.37756 c 0,-23.92191 -0.34429,-25.6001 -4.95201,-24.13767 -1.98555,0.63019 -2.04799,1.34915 -2.04799,23.58262 v 22.93261 h -12.5 -12.5 v -20.37756 c 0,-17.37275 -0.23355,-20.57138 -1.58382,-21.69201 -1.14866,-0.9533 -2.04162,-1.02597 -3.25,-0.2645 -1.4407,0.90786 -1.70298,3.56898 -1.93814,19.66396 l -0.27196,18.614 -3.22804,-1.96821 c -2.47558,-1.50941 -5.03457,-1.96908 -10.97804,-1.97194 l -7.75,-0.004 v -21.39301 c 0,-19.41082 -0.16134,-21.45492 -1.74124,-22.06119 -1.16361,-0.44652 -2.3685,0.0985 -3.63206,1.64301 -1.75621,2.14666 -1.85251,3.71717 -1.35278,22.06119 l 0.53803,19.75 -3.65598,0.004 c -4.12407,0.004 -9.47997,2.86463 -11.127329,5.94275 -0.88094,1.6458 -2.07954,2.05325 -6.04075,2.05325 h -4.94174 l -0.27308,-17.5919 -0.27307,-17.5919 -2.75,2.16448 -2.75,2.16448 v 15.42742 15.42742 h -12 -12 v -4.84534 -4.84534 l -5.75,2.93059 c -4.7618,2.42693 -6.56625,2.83811 -10.49945,2.39252 -12.76416,-1.44606 -20.87555,-10.43438 -20.87555,-23.13243 0,-9.70711 2.77994,-14.18351 15.4018,-24.80069 l 5.70713,-4.80069 0.25803,-58.19931 c 0.2547,-57.44663 0.2839,-58.19931 2.25804,-58.19931 1.97036,0 2.00741,0.83333 2.5,56.23335 l 0.5,56.23334 5.24762,-4.23334 5.24761,-4.23335 0.0177,-112.5 c 0.01,-61.875 0.36673,-113.049326 0.79332,-113.720736 0.59742,-0.94028 18.95495,-1.2849 79.901779,-1.5 43.51939,-0.15359 79.3246,-0.50426 79.56714,-0.77926 0.24254,-0.275 0.23095,-2.18463 -0.0258,-4.24362 l -0.46674,-3.74362 -74.14134,-0.25638 c -73.389169,-0.25378 -74.141289,-0.27667 -74.141289,-2.25638 0,-1.97746 0.83333,-2.00563 73.955359,-2.5 l 73.95537,-0.5 0.80789,-3.88904 c 1.47072,-7.07969 5.80143,-13.55006 11.79221,-17.61832 12.49867,-8.48768 26.50063,-8.0677 38.9948,1.16964 3.98928,2.9494 6.80905,7.53876 9.016,14.67409 l 1.75176,5.66363 31.8633,0.5 c 31.02998,0.48692 31.86331,0.55231 31.86331,2.5 0,1.94785 -0.83333,2.01304 -31.95958,2.5 l -31.95957,0.5 -0.71387,3.49322 c -0.39263,1.92127 -0.48595,3.72127 -0.20738,4 0.27858,0.27873 17.23163,0.50678 37.67345,0.50678 h 37.16695 l 0.5,-9.59302 c 0.52785,-10.12735 1.93714,-13.48336 8.88447,-21.15698 l 2.48971,-2.75 h 38.16503 c 38.01324,0 38.17854,0.009 41.56291,2.26993 6.69593,4.47318 6.99626,6.10535 6.3906,34.73007 -0.29675,14.024996 -0.75914,62.737496 -1.02753,108.249996 l -0.48797,82.75 h 10.95237 c 6.81326,0 11.20649,0.41116 11.62478,1.08797 0.68843,1.1139 1.48087,26.70099 3.38852,109.41203 0.59621,25.85 1.34775,52.93801 1.67009,60.19557 l 0.58608,13.19557 3.65047,0.30443 c 2.88233,0.24037 3.65047,0.72528 3.65047,2.30443 0,1.99357 -0.7507,2.00081 -233.5479,2.2521 -178.212609,0.19237 -233.827079,-0.0271 -234.726209,-0.92621 z m 80.77411,-28.6866 v -24.86071 l -5.25,-0.6306 c -2.8875,-0.34683 -7.471,-0.63451 -10.18555,-0.63929 -3.56338,-0.006 -5.53201,-0.56904 -7.08097,-2.02421 l -2.14542,-2.01552 -1.82402,2.01552 c -1.70242,1.88116 -3.04693,2.01552 -20.16903,2.01552 h -18.34501 v 25.5 25.5 h 32.5 32.5 z m -57.69368,16.76703 c -0.63252,-0.63252 -0.91205,-1.7702 -0.62119,-2.52818 0.41307,-1.07642 3.47622,-1.37814 13.99141,-1.37814 13.38919,0 13.46082,0.0123 13.14301,2.25 -0.30949,2.17913 -0.71396,2.25876 -12.84138,2.52817 -8.44806,0.18768 -12.89597,-0.096 -13.67185,-0.87185 z m 48.36035,0.42701 c -0.36667,-0.36666 -0.66667,-9.08656 -0.66667,-19.37755 0,-15.00647 0.28316,-18.9459 1.43026,-19.8979 2.77502,-2.30306 3.56974,2.18873 3.56974,20.17638 0,12.17335 -0.3588,17.72454 -1.2,18.56574 -1.35945,1.35945 -2.16936,1.49731 -3.13333,0.53333 z m -48,-11 c -0.36667,-0.36666 -0.66667,-1.49166 -0.66667,-2.5 0,-1.68668 1.07323,-1.83333 13.41667,-1.83333 9.83411,0 13.53309,0.33378 13.85269,1.25 1.15478,3.31052 -0.39332,3.75 -13.20968,3.75 -6.99949,0 -13.02635,-0.3 -13.39301,-0.66667 z m 98.333329,-6.33333 v -25 h -17.5 -17.5 v 25 25 h 17.5 17.5 z m 55,0 v -25 h -16.22765 -16.22764 l -8.02236,-8.50183 -8.02235,-8.50184 -16.26059,0.002 -16.26058,0.002 5.52117,5 5.52117,5 h 8.55516 c 13.4829,-3.3e-4 12.42367,-2.51847 12.42367,29.53485 v 27.46482 h 24.5 24.5 z m -41.08981,16.39179 c -1.13401,-1.3664 -1.0485,-1.81748 0.56869,-3 2.85096,-2.08468 32.76988,-2.0019 34.51055,0.0955 0.67888,0.81799 0.9731,2.16799 0.65383,3 -0.89234,2.32538 -33.79689,2.23746 -35.73307,-0.0955 z m 165.08981,3.10821 v -5.5 h -9 -9 v -58.5 -58.5 h -3 -3 v 58.5 58.5 H 277.2482 260.76022 l -0.26202,-37.75 -0.26203,-37.75 -3.25,-0.31336 -3.25,-0.31336 v 38.06336 38.06336 h -13 -13 v -38.44798 -38.44798 l -3,1.0458 -3,1.04581 v 37.40218 37.40217 h -11 -11 v 5.5 5.5 h 59 59 z m 140,-3.5 v -9 l -5.25,-0.0153 c -6.08343,-0.0177 -8.09039,-0.97107 -7.58835,-3.60452 0.29752,-1.56064 1.41889,-1.93077 6.59839,-2.17789 l 6.23996,-0.29772 -0.0262,-9.20229 c -0.0144,-5.06125 -0.44639,-31.05926 -0.95997,-57.77335 -0.51358,-26.71409 -1.00172,-55.96409 -1.08475,-65 -0.083,-9.03591 -0.37711,-17.89143 -0.65352,-19.67893 -0.50128,-3.24168 -0.51765,-3.25 -6.38907,-3.25 h -5.8865 v 16.78856 c 0,14.74974 0.24011,17.25952 1.97721,20.66673 2.10378,4.12645 1.91123,7.02315 -0.77837,11.7095 -3.90849,6.81014 -14.91989,6.14289 -18.68191,-1.13206 -2.00554,-3.87828 -1.91438,-5.82079 0.48307,-10.29391 1.77528,-3.31229 2,-5.64209 2,-20.7352 l 1e-5,-17.00362 h -23.5 -23.5 v 17.87756 c 0,14.03786 0.29838,18.12519 1.38926,19.03053 3.65385,3.03243 2.10736,10.9829 -2.90294,14.92401 -5.18391,4.07767 -13.47895,1.82312 -16.0651,-4.3664 -1.7981,-4.30346 -1.78127,-6.25172 0.0849,-9.83001 1.158,-2.22037 1.49384,-6.77286 1.49384,-20.25 l 4e-5,-17.38569 h -15.5 -15.5 l -0.0187,3.75 c -0.0103,2.0625 -0.89542,16.35 -1.96702,31.75 -2.78891,40.0794 -3.72259,54.53499 -5.49012,85 -0.86158,14.85 -1.68138,28.6875 -1.82178,30.75 l -0.25527,3.75 h 55.30781 c 49.29429,0 55.3732,0.1704 55.90921,1.56722 1.46915,3.82854 -0.0275,3.93278 -56.46614,3.93278 h -54.69803 l -0.28753,9.25 -0.28752,9.25 h 67.03752 67.03753 v -9 z m 13.07307,-39.65394 c -0.58748,-25.21533 -1.57814,-62.49606 -2.20146,-82.84606 -0.62332,-20.35 -1.18693,-39.36206 -1.25246,-42.24902 l -0.11915,-5.24902 -3.37883,-9.8e-4 -3.37883,-9.8e-4 0.77003,5.25 c 0.42352,2.8875 0.68664,8.4 0.5847,12.25 -0.10193,3.85 0.2875,39.32701 0.86541,78.8378 l 1.05074,71.83781 3.74339,4.31702 c 2.05886,2.37436 3.88766,4.17807 4.064,4.00825 0.17633,-0.16982 -0.16006,-20.93949 -0.74754,-46.15482 z m -399.497939,-13.09606 4.68501,-5.75 -20.32702,-0.27133 -20.32703,-0.27134 -5.30305,5.23718 c -2.91667,2.88044 -5.30304,5.59004 -5.30304,6.02133 0,0.43129 9.42527,0.78416 20.94506,0.78416 h 20.94506 z m 38.924869,-0.25 -5.93739,-6 h -9.222859 -9.22286 l -4.61689,6 -4.6169,6 h 19.77715 19.777139 z m 87.95813,-0.0219 -6.02187,-6.02187 -19.76427,0.27187 -19.76427,0.27187 5.12613,5.75 5.12612,5.75 h 20.66002 20.66001 z m -80.45813,-12.4781 c 0,-1.04762 -1.05556,-1.5 -3.5,-1.5 -2.44444,0 -3.5,0.45238 -3.5,1.5 0,1.04762 1.05556,1.5 3.5,1.5 2.44444,0 3.5,-0.45238 3.5,-1.5 z m 13,0 c 0,-1 -1,-1.5 -3,-1.5 -2,0 -3,0.5 -3,1.5 0,1 1,1.5 3,1.5 2,0 3,-0.5 3,-1.5 z M 47.318721,376.50788 c 3.02651,-1.15067 12.56824,-8.45825 22.41745,-17.1685 3.575,-3.16159 9.26137,-7.89749 12.63638,-10.52422 9.63453,-7.49846 36.675489,-30.24327 38.613619,-32.47887 2.75549,-3.1784 2.10635,-5.53245 -3.06276,-11.10688 -2.64702,-2.85458 -6.52623,-7.32764 -8.62047,-9.94014 -5.02934,-6.27397 -7.64206,-6.32022 -14.779309,-0.26166 -2.9081,2.46859 -7.76246,6.38786 -10.78746,8.70949 -3.025,2.32163 -8.38713,6.71438 -11.91585,9.76166 -3.52871,3.04728 -9.88657,8.24051 -14.12857,11.54051 -16.80106,13.07014 -28.22505,22.88989 -30.09667,25.87029 -1.56849,2.49768 -1.89736,4.49627 -1.6285,9.89669 0.30924,6.21167 0.62741,7.05751 3.87724,10.30733 3.34943,3.34944 9.36502,6.28509 13.07725,6.3818 0.92669,0.0241 2.90564,-0.42023 4.39765,-0.9875 z m 177.472839,0.002 c 4.04854,-2.16672 6.17828,-9.79671 3.91497,-14.02575 -2.67617,-5.00047 -11.55363,-6.45225 -15.47515,-2.53073 -4.48194,4.48194 -4.48194,10.6903 0,15.17224 2.60839,2.60839 8.05435,3.2605 11.56018,1.38424 z m 41.02153,-2.89344 c 6.32764,-6.32788 2.03916,-17.07717 -6.81291,-17.07717 -5.46622,0 -9.71856,4.43861 -9.71856,10.14428 0,3.31684 0.59388,4.59102 3.24305,6.95806 4.43935,3.96656 9.30576,3.95725 13.28842,-0.0254 z m -22.07692,-6.51207 c 0,-1.3392 0.43886,-3.5892 0.97525,-5 l 0.97525,-2.5651 h -6.4505 -6.4505 l 0.97525,2.5651 c 0.53639,1.4108 0.97525,3.6608 0.97525,5 0,2.21914 0.39875,2.4349 4.5,2.4349 4.10125,0 4.5,-0.21576 4.5,-2.4349 z m 40.25,-19.81406 c 3.1625,-3.84782 5.73681,-7.27841 5.72069,-7.62353 -0.0354,-0.75821 -5.75295,-7.12751 -6.39815,-7.12751 -0.2506,0 -2.57745,2.8125 -5.17077,6.25 -2.59332,3.4375 -6.29062,7.91668 -8.21622,9.95374 l -3.50109,3.70373 3.40777,3.95467 3.40777,3.95468 2.5,-3.03488 c 1.375,-1.66918 5.0875,-6.18309 8.25,-10.0309 z m -56.6829,-15.43677 c -0.71899,-1.87367 -4.50948,-1.62799 -5.26515,0.34125 -0.34941,0.91053 -0.59778,3.16053 -0.55195,5 0.0458,1.83946 0.12083,6.00698 0.16667,9.26115 0.0779,5.53388 0.26124,5.9761 2.83333,6.83535 l 2.75,0.91868 0.28572,-10.52108 c 0.15714,-5.7866 0.0588,-11.11251 -0.21862,-11.83535 z m 31.1829,19.05544 c 2.23296,-0.59841 2.25,-0.74648 2.25,-19.55208 0,-18.866 -0.60614,-22.81763 -3.5,-22.81763 -2.90966,0 -3.5,3.95265 -3.5,23.43426 0,20.70757 -0.11733,20.23985 4.75,18.93545 z m 67.13169,-13.47757 c 0.0981,-2.16218 -0.91824,-3.24766 -5.94686,-6.3515 -3.33584,-2.059 -6.17954,-3.58546 -6.31933,-3.39214 -0.13979,0.19333 -1.26602,2.11651 -2.50273,4.27375 -1.78833,3.11943 -1.97882,4.09342 -0.93067,4.75855 0.72484,0.45997 4.2429,2.65377 7.8179,4.87512 l 6.5,4.0388 0.63169,-2.79736 c 0.34742,-1.53855 0.68492,-3.9709 0.75,-5.40522 z m 51.18405,-0.92732 c 2.39897,-1.28389 2.58975,-6.17592 0.31449,-8.06422 -1.44102,-1.19594 -1.56995,-4.32709 -1.16835,-28.37245 0.435,-26.0441 0.54709,-27.29832 3.07884,-34.44859 10.04403,-28.36677 45.39433,-25.74279 52.1295,3.86948 2.25736,9.92487 2.32122,57.19073 0.0798,59.05096 -3.26861,2.7127 -0.72772,9 3.63717,9 3.61644,0 5.86283,-1.90666 5.86283,-4.97617 0,-1.59819 -0.45,-3.18391 -1,-3.52383 -0.62846,-0.38841 -1,-11.10702 -1,-28.84892 0,-31.38263 -0.68486,-36.36816 -6.17018,-44.91628 -7.01355,-10.92965 -17.24798,-16.23907 -29.82984,-15.47514 -10.82919,0.65752 -17.5403,3.92266 -23.42349,11.39615 -8.6762,11.02151 -8.98355,12.55863 -9.36636,46.84419 -0.18787,16.82633 -0.74668,30.41717 -1.27256,30.95 -1.45385,1.47309 -1.1091,4.703 0.7174,6.72126 1.85611,2.05098 4.52685,2.33697 7.41075,0.79356 z m -72.46574,-4.36482 c 2.45,-2.45 3.4,-4.29412 3.4,-6.6 0,-4.5467 -5.55009,-10 -10.17749,-10 -4.30535,0 -7.65357,2.35141 -9.44156,6.63069 -1.21039,2.89685 -1.21039,3.84177 0,6.73862 3.08778,7.39011 10.56936,8.88038 16.21905,3.23069 z m -95.6,-10.7677 c 19.42882,-3.67712 38.64999,-16.51231 50.06863,-33.434 9.17132,-13.59131 13.89664,-28.85824 13.89664,-44.8983 0,-16.3129 -4.69184,-30.95391 -14.70589,-45.89005 -6.90801,-10.30345 -8.19891,-11.68651 -17.04417,-18.26104 -17.46694,-12.98289 -34.77337,-18.33299 -55.02758,-17.01123 -16.23009,1.05916 -27.87461,5.17844 -41.74611,14.7678 -14.28404,9.87455 -23.91733,22.76413 -29.40574,39.34562 -7.81646,23.61498 -4.93175,48.19688 7.97639,67.97016 19.68615,30.15616 51.40502,43.95621 85.98783,37.41104 z m -30.5,-18.92322 c -15.28518,-3.04822 -32.20512,-16.42547 -39.78115,-31.45179 -5.79164,-11.48714 -7.82191,-28.12158 -4.81586,-39.45729 4.80005,-18.1008 15.66137,-32.14843 30.59701,-39.57304 9.55302,-4.74887 16.42983,-6.40108 26.70078,-6.41509 11.37462,-0.0155 17.46142,1.35027 27.79922,6.23772 6.66857,3.15274 10.00824,5.5518 15.5,11.1345 11.16911,11.35406 16.15613,22.44081 17.14521,38.11591 1.62467,25.74793 -13.49091,48.97864 -38.14521,58.62431 -6.90295,2.70069 -9.50845,3.1746 -19,3.45589 -6.05,0.1793 -13.25,-0.1227 -16,-0.67112 z m 32.94332,-57.81988 c 21.84705,-21.81192 27.26688,-27.7354 26.53426,-29 -0.50638,-0.87406 -1.74538,-2.63148 -2.75335,-3.90538 l -1.83267,-2.31618 -28.14586,27.62122 c -15.48022,15.19167 -28.43388,28.5287 -28.78591,29.63784 -0.85768,2.7023 2.23879,6.05822 5.23223,5.67063 1.45609,-0.18853 12.34256,-10.32737 29.7513,-27.70813 z m -59.545,-16.4641 c 1.54273,-3.36881 4.67172,-8.58799 6.95332,-11.59819 2.2816,-3.0102 4.14836,-5.75295 4.14836,-6.09501 0,-0.34206 -0.88847,-1.42598 -1.97438,-2.40871 -1.82587,-1.6524 -2.15771,-1.66666 -4.41196,-0.18962 -3.0252,1.98219 -12.39101,17.30317 -13.27282,21.71224 -0.49361,2.46804 -0.22751,3.56389 1.10135,4.53557 2.73963,2.00327 4.42916,0.65361 7.45613,-5.95628 z m 26.18513,-24.15454 c 5.0026,-1.76502 6.16625,-3.13547 4.81159,-5.66668 -1.19158,-2.22648 -3.18315,-2.26578 -9.2945,-0.18344 -4.86193,1.65663 -6.25812,3.22355 -5.23891,5.87956 0.73618,1.91847 4.23084,1.90789 9.72182,-0.0294 z m -59.07967,41.53178 c -0.99598,-0.61555 -1.16341,-2.71508 -0.6904,-8.65748 1.41334,-17.75567 7.74014,-32.23604 19.43122,-44.47296 7.13365,-7.46671 10.54063,-9.42335 11.53034,-6.6219 0.24288,0.6875 -3.22106,5.075 -7.69765,9.75 -6.8543,7.1581 -8.73752,9.89522 -11.92886,17.33774 -4.24313,9.8954 -6.60513,19.62159 -6.63107,27.30527 -0.0177,5.25207 -1.33692,7.01359 -4.01358,5.35933 z m 117.79621,-53.82354 c -5.48669,-5.04591 -15.35998,-10.40521 -24.29999,-13.19023 -9.31882,-2.90302 -26.76813,-3.73323 -34.49688,-1.6413 -5.63947,1.52643 -8.40316,0.85878 -7.38867,-1.78493 0.95233,-2.48172 5.96621,-3.79454 16.45969,-4.30974 11.51844,-0.56552 21.26645,0.67849 29.69706,3.78983 13.35653,4.92929 27.58353,14.5232 27.03502,18.23095 -0.50207,3.39382 -2.45802,3.08824 -7.00623,-1.09458 z m -74.61954,-13.4288 c 0.17575,-1.2375 0.99455,-2.25 1.81955,-2.25 0.825,0 1.6438,1.0125 1.81955,2.25 0.24594,1.73169 -0.17321,2.25 -1.81955,2.25 -1.64634,0 -2.06549,-0.51831 -1.81955,-2.25 z m 137.81727,114.10699 c 0.002,-15.37248 -0.20707,-17.72335 -1.62447,-18.26725 -3.82331,-1.46715 -4.37325,0.90818 -4.37325,18.88919 v 17.23403 l 2.99772,-0.10648 2.99772,-0.10648 0.002,-17.64301 z m -173.03407,9.68681 c 1.37071,-1.6516 1.25045,-1.90022 -4.72966,-9.77791 -4.29044,-5.65186 -4.38788,-5.71116 -6.79343,-4.13499 -1.34231,0.87952 -2.44056,1.84966 -2.44056,2.15587 0,0.7291 11.31119,12.94358 12.12756,13.09603 0.34515,0.0645 1.17139,-0.53809 1.83609,-1.339 z m -41.868019,-5.61189 2.90437,-2.0681 v -43.4319 -43.43191 h -2.88871 c -2.53963,0 -2.97263,0.44732 -3.58315,3.70169 -0.71242,3.79754 -0.46244,87.29831 0.26136,87.29831 0.22097,0 1.70872,-0.93064 3.30613,-2.06809 z M 388.90649,278.03927 c 0.8071,-7.22429 2.12792,-10.89116 5.5294,-15.35074 3.31868,-4.35101 10.92101,-9.14926 14.49606,-9.14926 3.35854,0 3.71468,-1.52274 0.55422,-2.36971 -4.41065,-1.18201 -8.43204,-0.59305 -13.62715,1.99578 -8.73424,4.35246 -14.03594,14.3882 -14.0984,26.68729 l -0.0245,4.81336 3.25,-0.31336 c 3.18388,-0.30698 3.26364,-0.43543 3.92032,-6.31336 z m -70.99906,-20.15499 c 2.3727,-2.14726 2.32055,-4.58996 -0.14564,-6.82182 -1.84886,-1.6732 -2.13494,-1.68158 -4.5,-0.13194 -2.9247,1.91634 -3.2164,4.18796 -0.87063,6.78001 2.04452,2.25917 3.17264,2.29471 5.51627,0.17375 z m 37.23985,-17.42174 c 3.60236,-4.28116 3.49552,-9.17049 -0.28298,-12.94898 -3.85461,-3.85461 -7.47988,-4.65384 -11.78893,-2.599 -6.25455,2.98259 -7.7694,11.15931 -3.03365,16.37471 1.62248,1.78681 3.12115,2.25 7.27987,2.25 4.62005,0 5.54169,-0.36235 7.82569,-3.07673 z m 20.78163,-25.17327 c 30.56132,-30.16886 48.88745,-47.57444 48.39394,-45.96307 -1.44703,4.72477 -4.58668,19.59009 -4.58668,21.71661 0,3.12287 3.20656,4.99147 6,3.49646 1.1,-0.5887 2,-1.28229 2,-1.54131 0,-0.50479 8.70996,-33.85533 9.55947,-36.60332 0.27963,-0.90454 -0.214,-2.36704 -1.09695,-3.25 -1.3581,-1.35809 -4.45412,-1.60537 -20.09969,-1.60537 -10.83625,0 -19.29524,0.42865 -20.42857,1.03518 -2.39727,1.28298 -2.64611,6.47768 -0.35247,7.35783 0.86998,0.33385 6.34511,0.60699 12.16694,0.60699 h 10.58516 l -20.88511,20.25 c -11.48681,11.1375 -25.52572,24.82826 -31.19758,30.42391 l -10.31248,10.1739 2.53064,2.53064 c 1.39185,1.39185 2.53064,3.0011 2.53064,3.5761 0,2.35551 2.38017,0.44348 15.19274,-12.20455 z m -33.23507,3.96676 c 0.0762,-1.40993 -4.83271,-10.45117 -14.09868,-25.96701 -5.00889,-8.38736 -10.35092,-17.49975 -11.87117,-20.24975 -1.52026,-2.75 -7.29743,-12.65 -12.83816,-22 -5.54073,-9.35 -11.20114,-18.90613 -12.57869,-21.23584 l -2.50463,-4.23585 -3.78317,2.16651 c -2.08074,1.19159 -3.92706,2.26661 -4.10293,2.38894 -0.41947,0.29179 2.77481,6.12041 8.44864,15.41624 2.51774,4.125 5.93148,9.975 7.58609,13 1.65461,3.025 6.72342,11.8 11.26403,19.5 4.5406,7.7 12.21058,20.75 17.04439,29 4.83381,8.25 9.19296,15.52556 9.68699,16.1679 0.66156,0.86018 1.79497,0.59669 4.3016,-1 1.87185,-1.19234 3.42241,-2.52036 3.44569,-2.95114 z M 111.62383,208.2144 c 0.71277,-2.10367 1.14213,-3.95034 0.95414,-4.10371 -0.18799,-0.15336 -2.99556,-1.95646 -6.23904,-4.00689 l -5.89724,-3.72806 -2.316789,2.83176 c -1.27424,1.55748 -2.33299,3.38479 -2.35277,4.06071 -0.0446,1.52491 13.176419,10.51693 13.975689,9.50527 0.31904,-0.40381 1.16324,-2.4554 1.87601,-4.55908 z m -19.139219,-9.16906 c 5.4499,-6.33589 0.50289,-16.43399 -8.07536,-16.48383 -10.66096,-0.062 -13.59301,15.36193 -3.67308,19.32201 3.26839,1.30475 9.47444,-0.1945 11.74844,-2.83818 z m -4.98097,-46.25607 -0.26747,-24.75 h -2.5 c -2.19617,0 -2.58214,0.5469 -3.17588,4.5 -0.89942,5.98839 -0.97573,21.21103 -0.17215,34.34444 l 0.65196,10.65556 h 2.8655 2.86551 z m 162.884319,-5.48165 c 10.09152,-10.02741 18.32992,-18.46491 18.30757,-18.75 -0.0224,-0.28509 -1.37817,-2.08332 -3.01293,-3.99606 l -2.97228,-3.47771 -19.98708,19.96833 c -10.99289,10.98259 -19.98478,20.19756 -19.98197,20.47771 0.005,0.54454 6.88924,3.75277 8.39669,3.91333 0.49599,0.0528 9.15849,-8.10819 19.25,-18.1356 z m -128.16378,11.26942 c 0.88895,-2.80083 -1.16073,-6.03777 -3.82319,-6.03777 -2.84414,0 -4.66482,1.76936 -4.66482,4.53333 0,2.88685 0.76925,3.46667 4.59928,3.46667 2.36673,0 3.43742,-0.54026 3.88873,-1.96223 z m 212.94056,-5.6092 c 0.86429,-0.86428 1.57143,-2.40714 1.57143,-3.42857 0,-2.04188 -2.51008,-5 -4.24269,-5 -1.79689,0 -4.75731,3.1726 -4.75731,5.09828 0,1.62741 3.44088,4.90172 5.15108,4.90172 0.38833,0 1.41321,-0.70714 2.27749,-1.57143 z m 48.46605,-19.65875 6.39463,-5.76982 h 23.80869 23.80869 l 1.79669,-2.56245 c 0.98817,-1.40935 2.92168,-3.97101 4.29668,-5.69259 l 2.5,-3.13014 -0.16916,-24.406896 c -0.1652,-23.83688 -0.22182,-24.46298 -2.42431,-26.80742 l -2.25516,-2.4005 h -37.13859 -37.1386 l -2.68709,2.80472 c -1.4779,1.54259 -2.68709,3.11759 -2.68709,3.5 0,0.3824 16.09047,0.69528 35.7566,0.69528 20.40289,0 37.22646,0.42155 39.17969,0.98173 3.87596,1.11161 5.02636,2.46136 5.0484,5.92326 0.0144,2.26673 -0.0898,2.30985 -1.81343,0.75 -1.63697,-1.48144 -5.9888,-1.65499 -41.5,-1.65499 h -39.67126 v 14 13.999996 h 11.39745 11.39745 l -0.14745,-3.14345 c -0.25995,-5.541876 2.22918,-4.507336 10.73005,4.45964 l 8.1225,8.56787 10.5,-10.42859 c 5.775,-5.735726 11.23936,-10.434636 12.14301,-10.442026 3.05137,-0.025 2.7247,2.72244 -0.72076,6.06191 -1.88224,1.824336 -3.42225,3.678706 -3.42225,4.120816 0,0.4421 5.12686,0.80383 11.39301,0.80383 11.44627,0 13.01198,0.49438 11.87635,3.75 -0.56543,1.62099 -25.81557,1.79327 -26.81081,0.18293 -0.38759,-0.62714 -3.46393,1.64039 -7.46179,5.5 -3.74126,3.61189 -7.11481,6.56707 -7.49676,6.56707 -0.38195,0 -3.80894,-3.00677 -7.61552,-6.68171 -5.32354,-5.13946 -7.19381,-6.40896 -8.10277,-5.5 -0.78085,0.78085 -5.35411,1.18171 -13.48171,1.18171 h -12.3 v 7.5 c 0,9.31465 1.61526,11.5 8.5,11.5 2.475,0 4.5,0.39632 4.5,0.88071 0,0.48439 -1.575,5.23172 -3.5,10.54961 -1.925,5.3179 -3.5,9.91611 -3.5,10.21824 0,0.60914 9.05526,-7.00076 18.89462,-15.87874 z m -193.94765,12.25856 c 1.25215,-0.67013 2.02711,-2.66534 2.49747,-6.43002 0.38044,-3.04494 1.38518,-6.04203 2.27236,-6.77838 0.8747,-0.72599 4.06242,-1.54498 7.08382,-1.81998 6.88777,-0.62691 9.01654,-3.04439 5.3386,-6.06265 -1.31942,-1.08276 -3.87688,-1.93735 -5.79775,-1.93735 -3.97692,0 -8.34147,-3.92259 -8.34147,-7.4968 0,-1.21261 -0.50267,-3.64671 -1.11704,-5.4091 -0.91865,-2.63524 -1.57514,-3.15016 -3.69633,-2.89923 -2.20236,0.26054 -2.8316,1.15798 -4.30596,6.14131 -2.18544,7.38681 -4.21212,9.66382 -8.6014,9.66382 -4.64845,0 -7.27927,1.60041 -7.27927,4.42819 0,2.72367 1.64958,3.57181 6.94693,3.57181 5.6592,0 9.05307,3.0905 9.05307,8.24384 0,2.41054 0.68165,4.85189 1.65499,5.92742 1.92664,2.12892 1.9186,2.12731 4.29198,0.85712 z m 94.30303,-24.07985 c 5.3392,-5.78591 2.46988,-14.75296 -5.26427,-16.45167 -4.89025,-1.07407 -10.59103,2.88226 -11.55467,8.01895 -1.22109,6.50894 5.29951,13.2342 11.56894,11.93205 1.375,-0.28559 3.7375,-1.86028 5.25,-3.49933 z m -175.45,-4.14853 c 0.66,-0.66 1.2,-2.01 1.2,-3 0,-0.99 0.64286,-1.8 1.42857,-1.8 0.78572,0 2.13482,-0.70625 2.99802,-1.56945 1.9483,-1.9483 0.44988,-5.43055 -2.33677,-5.43055 -1.24424,0 -2.03405,-0.97114 -2.43982,-3 -0.47843,-2.39216 -1.11667,-2.999996 -3.15,-2.999996 -2.03333,0 -2.67157,0.607836 -3.15,2.999996 -0.45866,2.2933 -1.1436,3 -2.90761,3 -1.447379,0 -2.549919,0.76345 -2.957619,2.04799 -0.78138,2.46192 1.0478,4.95201 3.637669,4.95201 1.14135,0 1.87756,0.7058 1.87756,1.8 0,2.01282 1.82265,4.2 3.5,4.2 0.605,0 1.64,-0.54 2.3,-1.2 z m 149.83701,-13.72248 c 12.83363,-5.827576 19.23512,-19.685586 14.84337,-32.133116 -4.5196,-12.80993 -16.84477,-19.54726 -30.75354,-16.81088 -11.81391,2.32425 -20.09831,12.64017 -19.92572,24.81197 0.0912,6.42985 2.47142,13.01725 6.04561,16.73133 3.30767,3.43713 8.38687,6.974846 11.65327,8.116626 4.8725,1.70319 13.5652,1.36006 18.13701,-0.71593 z M 241.0206,88.982654 c -9.02443,-7.11286 -4.08419,-21.44338 7.3923,-21.44338 3.79513,0 5.0611,0.53783 7.86433,3.34105 3.72646,3.72647 5.00657,7.3409 4.0084,11.31789 -0.36704,1.46242 -2.17082,4.16242 -4.0084,6 -4.34765,4.34765 -10.34461,4.65599 -15.25663,0.78444 z m 12.40112,-4.61769 c 6.04173,-5.67592 -1.36854,-14.74164 -8.79916,-10.76489 -2.83129,1.51526 -4.16286,5.55159 -2.72319,8.25467 2.67664,5.02559 7.68373,6.11641 11.52235,2.51022 z M 460.85803,274.26113 c -1.68539,-1.68539 -1.42796,-12.22293 0.33434,-13.68551 2.532,-2.10138 3.5438,-0.12687 3.5438,6.91568 0,6.9531 -1.34572,9.30225 -3.87814,6.76983 z M 26.736171,256.96595 c 0,-15.24547 0.14021,-16.5464 1.75,-16.23729 1.56725,0.30095 1.77869,2.0317 2.02477,16.57333 0.26614,15.7273 0.21118,16.23728 -1.75,16.23728 -1.95158,0 -2.02477,-0.59908 -2.02477,-16.57332 z m 434.015249,-5.39818 c -0.55839,-1.04336 -1.01525,-7.0116 -1.01525,-13.26276 0,-11.40675 0.76682,-14.17619 3.62186,-13.08061 2.09846,0.80526 1.99807,26.863 -0.10661,27.67064 -0.86381,0.33148 -1.90933,-0.2236 -2.5,-1.32727 z m -0.62678,-35.61683 c -0.75688,-3.01567 0.57584,-5.91167 2.72052,-5.91167 2.19558,0 1.88891,7.87672 -0.32326,8.30275 -1.1667,0.22468 -1.93243,-0.53908 -2.39726,-2.39108 z M 41.736171,147.30517 V 93.931964 l 2.63508,-5.28793 c 2.89065,-5.80076 9.45511,-11.37914 12.82328,-10.89701 3.37002,0.4824 2.39277,3.66956 -1.86434,6.08033 -2.14829,1.21655 -4.84829,3.48197 -6,5.03425 -2.04947,2.76229 -2.10466,3.97487 -2.59402,56.999996 l -0.5,54.17767 -2.25,0.31955 -2.25,0.31955 z M 472.40284,171.8726 c -1.02171,-1.0217 -0.79218,-29.13773 0.24309,-29.77756 0.50036,-0.30924 1.62536,-0.28765 2.5,0.048 2.37514,0.91143 2.38307,28.87804 0.008,29.78927 -1.95858,0.75158 -1.93988,0.75199 -2.75154,-0.0597 z M 26.957951,148.78927 c 0.23131,-11.4319 0.5311,-13.75 1.77822,-13.75 1.24712,0 1.5469,2.3181 1.77822,13.75 0.2691,13.29932 0.21081,13.75 -1.77822,13.75 -1.98904,0 -2.04732,-0.45068 -1.77822,-13.75 z m 445.479459,-12.8821 c -1.04227,-1.04227 -0.84997,-21.15795 0.20852,-21.81213 0.50036,-0.30924 1.64004,-0.28202 2.53262,0.0605 2.34615,0.9003 1.88504,21.70167 -0.49114,22.15645 -0.85182,0.16304 -1.86432,-0.0191 -2.25,-0.40481 z M 131.92115,59.867344 c 0.25152,-3.0564 0.71819,-3.82807 2.31502,-3.82807 1.61905,0 2,0.66667 2,3.5 0,2.89761 -0.39844,3.55646 -2.31502,3.82807 -2.11755,0.30009 -2.28815,0.002 -2,-3.5 z m 185.42463,-4.53 c -0.85483,-4.27416 -4.17273,-7.62548 -8.31962,-8.40345 -4.21134,-0.79005 -4.09847,-3.31011 0.21001,-4.68903 4.21429,-1.34879 7.28168,-4.42205 8.06572,-8.08117 0.36821,-1.71843 0.85597,-3.44227 1.0839,-3.83075 0.85828,-1.46279 3.14668,0.43781 3.66847,3.0468 0.80326,4.01628 4.37875,8.02379 7.99482,8.96081 4.38748,1.13691 3.99167,3.26386 -0.91152,4.89826 -3.95834,1.31944 -4.71051,2.20587 -7.25544,8.55046 -1.48583,3.70424 -3.75022,3.47865 -4.53634,-0.45193 z m 5.0757,-12.65875 c -0.78338,-0.90163 -1.60422,-2.22781 -1.82407,-2.94707 -0.2515,-0.82279 -1.24115,-0.16967 -2.66872,1.76122 -2.20023,2.97597 -2.21486,3.14069 -0.4831,5.43655 l 1.78588,2.36759 2.30717,-2.48949 c 2.02432,-2.18427 2.13256,-2.69046 0.88284,-4.1288 z m -125.81031,9.86068 c -0.0687,-0.55 -0.18125,-1.55808 -0.25,-2.24018 -0.0688,-0.6821 -1.475,-1.47402 -3.125,-1.75982 -2.15433,-0.37316 -3,-1.08065 -3,-2.50982 0,-1.51439 0.77698,-2.0651 3.25,-2.30354 2.85772,-0.27554 3.25,-0.66781 3.25,-3.25 0,-2.26997 0.45403,-2.93664 2,-2.93664 1.54597,0 2,0.66667 2,2.93664 0,2.58219 0.39228,2.97446 3.25,3.25 2.47888,0.23901 3.25,0.78789 3.25,2.31336 0,1.52546 -0.77112,2.07435 -3.25,2.31336 -2.69173,0.25953 -3.25,0.73191 -3.25,2.75 0,1.76997 -0.5472,2.43664 -2,2.43664 -1.1,0 -2.05625,-0.45 -2.125,-1 z m -81.37286,-5.99653 c -1.46017,-2.36261 1.70499,-4.10353 6.90904,-3.80014 4.32326,0.25204 5.08882,0.59755 5.08882,2.29667 0,1.7295 -0.76576,2.04021 -5.66177,2.29727 -3.32945,0.17481 -5.93955,-0.15219 -6.33609,-0.7938 z m 25.87786,-0.45558 c -0.97138,-2.53138 0.59842,-3.54789 5.47902,-3.54789 4.98935,0 7.33969,1.31859 6.45585,3.62185 -0.75738,1.97369 -11.17388,1.90913 -11.93487,-0.074 z m -9.38,-15.61744 c 0,-3.64829 0.23291,-4.03647 2.25,-3.75 1.80733,0.25668 2.31106,1.05733 2.56037,4.06955 0.28452,3.43772 0.0971,3.75 -2.25,3.75 -2.32772,0 -2.56037,-0.36978 -2.56037,-4.06955 z"
       id="path300" />
  </g>
</svg>
