<svg width="100" height="43" viewBox="0 0 205 43" fill="none" xmlns="http://www.w3.org/2000/svg">
<path d="M196.067 3L195.655 4.89917H202.234L194.97 38.9276H188.411L188 40.8267H196.517L204.564 3H196.067Z" fill="white"/>
<path d="M8.94763 38.9276H2.34949L9.59373 4.89917H16.1919L16.5835 3H8.04699L0 40.8267H8.53647L8.94763 38.9276Z" fill="white"/>
<path d="M179.03 33.8326C179.527 33.8326 179.989 33.7734 180.415 33.6549C180.842 33.5246 181.209 33.347 181.517 33.1219C181.825 32.885 182.068 32.6008 182.245 32.2691C182.423 31.9256 182.512 31.5348 182.512 31.0965C182.512 30.682 182.429 30.3148 182.263 29.995C182.109 29.6752 181.86 29.3791 181.517 29.1067C181.185 28.8224 180.759 28.5441 180.238 28.2717C179.728 27.9993 179.119 27.6913 178.408 27.3478C177.697 27.0162 177.052 26.6609 176.471 26.2818C175.903 25.9028 175.417 25.4823 175.014 25.0204C174.612 24.5585 174.298 24.0433 174.073 23.4747C173.86 22.9062 173.753 22.2666 173.753 21.556C173.753 20.6676 173.943 19.8681 174.322 19.1575C174.701 18.4468 175.245 17.8428 175.956 17.3453C176.667 16.836 177.525 16.4511 178.532 16.1905C179.551 15.9181 180.7 15.7819 181.979 15.7819C183.199 15.7819 184.229 15.8766 185.07 16.0661C185.923 16.2556 186.61 16.5103 187.131 16.8301C187.664 17.138 188.043 17.4993 188.268 17.9138C188.505 18.3284 188.624 18.7548 188.624 19.193C188.624 20.1643 188.25 20.869 187.504 21.3072C186.758 21.7455 185.739 21.9646 184.448 21.9646C184.448 21.479 184.401 20.9934 184.306 20.5077C184.212 20.0103 184.052 19.5602 183.827 19.1575C183.602 18.7548 183.311 18.4291 182.956 18.1803C182.601 17.9316 182.162 17.8072 181.641 17.8072C181.168 17.8072 180.741 17.8783 180.362 18.0204C179.995 18.1507 179.675 18.3343 179.403 18.5712C179.142 18.7962 178.941 19.0627 178.799 19.3707C178.657 19.6786 178.586 20.0103 178.586 20.3656C178.586 20.7683 178.662 21.1177 178.816 21.4138C178.982 21.7099 179.231 21.9883 179.563 22.2489C179.906 22.5094 180.338 22.77 180.86 23.0306C181.381 23.2793 181.997 23.5636 182.707 23.8834C183.489 24.2387 184.164 24.6177 184.733 25.0204C185.301 25.4113 185.769 25.8436 186.136 26.3174C186.515 26.7793 186.794 27.2886 186.971 27.8453C187.161 28.3901 187.256 29.0001 187.256 29.6752C187.256 30.6583 187.066 31.5407 186.687 32.3224C186.32 33.1042 185.763 33.7674 185.017 34.3123C184.271 34.8571 183.347 35.2776 182.245 35.5737C181.144 35.858 179.865 36.0001 178.408 36.0001C177.366 36.0001 176.418 35.9113 175.565 35.7336C174.724 35.5559 174.002 35.2954 173.398 34.9519C172.805 34.6084 172.344 34.1879 172.012 33.6905C171.692 33.193 171.532 32.6304 171.532 32.0026C171.532 31.4341 171.645 30.9544 171.87 30.5636C172.095 30.1727 172.385 29.8588 172.74 29.6219C173.108 29.3732 173.522 29.1955 173.984 29.0889C174.458 28.9705 174.937 28.9113 175.423 28.9113C175.423 29.5627 175.488 30.1845 175.619 30.7768C175.749 31.369 175.956 31.896 176.24 32.358C176.525 32.8081 176.892 33.1693 177.342 33.4417C177.804 33.7023 178.366 33.8326 179.03 33.8326Z" fill="#0AB0A4"/>
<path d="M160.517 32.5178C160.517 32.4112 160.523 32.2868 160.535 32.1447C160.547 32.0025 160.558 31.8545 160.57 31.7005C160.594 31.5465 160.612 31.4044 160.624 31.2741C160.647 31.132 160.671 31.0135 160.695 30.9188H160.393C159.86 31.6768 159.333 32.3638 158.811 32.9797C158.302 33.5956 157.757 34.1286 157.177 34.5787C156.596 35.0169 155.969 35.3604 155.294 35.6091C154.618 35.846 153.849 35.9645 152.984 35.9645C152.202 35.9645 151.545 35.8579 151.012 35.6447C150.479 35.4196 150.053 35.1235 149.733 34.7563C149.413 34.3892 149.182 33.9628 149.04 33.4771C148.898 32.9797 148.827 32.4645 148.827 31.9315C148.827 31.3274 148.898 30.6641 149.04 29.9416C149.182 29.2191 149.318 28.5499 149.448 27.934L150.763 21.5203C150.858 21.0229 150.935 20.5728 150.994 20.1701C151.053 19.7674 151.083 19.4653 151.083 19.264C151.083 18.7784 150.935 18.4586 150.639 18.3046C150.343 18.1506 149.851 18.0736 149.164 18.0736H148.507L148.827 16.1371H157.568L155.169 27.0279C155.098 27.3122 155.027 27.632 154.956 27.9873C154.885 28.3426 154.82 28.698 154.761 29.0533C154.701 29.4086 154.648 29.7462 154.601 30.066C154.565 30.3858 154.547 30.6582 154.547 30.8832C154.547 31.4162 154.66 31.8426 154.885 32.1624C155.11 32.4704 155.519 32.6244 156.111 32.6244C156.644 32.6244 157.189 32.3875 157.745 31.9137C158.314 31.4281 158.853 30.8063 159.362 30.0482C159.883 29.2783 160.345 28.4256 160.748 27.4899C161.151 26.5423 161.459 25.6125 161.672 24.7005L163.608 16.1371H169.027L166.558 27.9695C166.404 28.6328 166.279 29.2547 166.184 29.835C166.09 30.4036 166.042 30.9425 166.042 31.4518C166.042 31.9848 166.149 32.3934 166.362 32.6777C166.587 32.9619 166.907 33.1041 167.322 33.1041C167.701 33.1041 168.044 33.033 168.352 32.8909C168.672 32.7487 169.039 32.5414 169.453 32.269L170.342 33.4949C170.046 33.8029 169.714 34.1108 169.347 34.4188C168.98 34.7149 168.565 34.9814 168.103 35.2183C167.653 35.4551 167.15 35.6447 166.593 35.7868C166.036 35.9289 165.426 36 164.763 36C163.958 36 163.283 35.9052 162.738 35.7157C162.205 35.5381 161.772 35.2952 161.441 34.9873C161.109 34.6675 160.872 34.3003 160.73 33.8858C160.588 33.4594 160.517 33.0034 160.517 32.5178Z" fill="#0AB0A4"/>
<path d="M142.217 33.104C142.596 33.104 142.946 33.0329 143.266 32.8908C143.585 32.7487 143.953 32.5414 144.367 32.269L145.238 33.4949C144.953 33.8028 144.628 34.1108 144.261 34.4187C143.893 34.7148 143.479 34.9813 143.017 35.2182C142.567 35.4551 142.063 35.6446 141.507 35.7867C140.95 35.9289 140.34 35.9999 139.677 35.9999C138.279 35.9999 137.207 35.6742 136.461 35.0228C135.715 34.3595 135.342 33.4416 135.342 32.269C135.342 31.2267 135.537 29.7817 135.928 27.934L139.091 13.0101C139.126 12.8562 139.162 12.6963 139.197 12.5304C139.233 12.3646 139.262 12.2107 139.286 12.0685C139.31 11.9145 139.327 11.7843 139.339 11.6777C139.351 11.5711 139.357 11.4941 139.357 11.4467C139.357 11.1151 139.321 10.8486 139.25 10.6472C139.179 10.4458 139.067 10.2919 138.913 10.1853C138.759 10.0787 138.558 10.0076 138.309 9.97208C138.06 9.93654 137.764 9.91878 137.42 9.91878H136.657L136.994 8H145.788L141.453 27.9695C141.311 28.6328 141.193 29.2546 141.098 29.835C141.003 30.4035 140.956 30.9424 140.956 31.4517C140.956 31.9847 141.063 32.3933 141.276 32.6776C141.501 32.9619 141.815 33.104 142.217 33.104Z" fill="#0AB0A4"/>
<path d="M120.24 23.5991H121.768C122.87 23.5991 123.8 23.4332 124.558 23.1016C125.328 22.77 125.949 22.308 126.423 21.7158C126.897 21.1118 127.24 20.4011 127.454 19.5838C127.667 18.7547 127.773 17.8487 127.773 16.8656C127.773 15.9536 127.667 15.1778 127.454 14.5382C127.252 13.8986 126.968 13.3774 126.601 12.9747C126.234 12.572 125.789 12.2818 125.268 12.1042C124.759 11.9147 124.202 11.8199 123.598 11.8199H122.799L120.24 23.5991ZM118.499 31.6473C118.464 31.7776 118.428 31.9256 118.393 32.0914C118.369 32.2573 118.357 32.3875 118.357 32.4823C118.357 32.7429 118.422 32.9561 118.553 33.1219C118.683 33.2759 118.866 33.4002 119.103 33.495C119.34 33.5779 119.619 33.6371 119.938 33.6726C120.27 33.6963 120.625 33.7082 121.004 33.7082H122.213L121.804 35.6447H108.568L108.959 33.7082H109.438C109.817 33.7082 110.185 33.6845 110.54 33.6371C110.907 33.5897 111.239 33.4891 111.535 33.3351C111.831 33.1811 112.086 32.962 112.299 32.6777C112.524 32.3935 112.684 32.0144 112.779 31.5407L116.492 14.0762C116.646 13.4485 116.723 13.0339 116.723 12.8326C116.723 12.572 116.658 12.3588 116.527 12.193C116.397 12.0272 116.213 11.9028 115.976 11.8199C115.751 11.7252 115.473 11.6659 115.141 11.6422C114.822 11.6067 114.472 11.5889 114.093 11.5889H113.631L114.022 9.67017H124.433C125.855 9.67017 127.14 9.82414 128.289 10.1321C129.438 10.4282 130.409 10.8783 131.202 11.4823C132.008 12.0746 132.624 12.8148 133.05 13.7032C133.488 14.5796 133.707 15.5982 133.707 16.759C133.707 17.3749 133.648 18.0263 133.53 18.7133C133.411 19.4003 133.198 20.0754 132.89 20.7387C132.594 21.4019 132.179 22.0356 131.647 22.6397C131.114 23.2319 130.432 23.759 129.603 24.2209C128.786 24.671 127.797 25.0322 126.636 25.3046C125.487 25.5771 124.131 25.7133 122.568 25.7133H119.814L118.499 31.6473Z" fill="#0AB0A4"/>
<path d="M102.421 36.0001C101.343 36.0001 100.478 35.7573 99.8271 35.2717C99.1756 34.7742 98.8499 34.0517 98.8499 33.1042C98.8499 32.7251 98.8677 32.358 98.9032 32.0026C98.9387 31.6355 99.0039 31.215 99.0986 30.7412H98.8499C98.3998 31.5822 97.9497 32.3343 97.4996 32.9976C97.0614 33.649 96.5699 34.1998 96.025 34.6498C95.4802 35.0881 94.8702 35.4197 94.1951 35.6448C93.5318 35.8816 92.756 36.0001 91.8677 36.0001C91.003 36.0001 90.245 35.8343 89.5936 35.5026C88.9421 35.1591 88.3973 34.6913 87.9591 34.0991C87.5327 33.5069 87.2069 32.8081 86.9819 32.0026C86.7687 31.1854 86.6621 30.303 86.6621 29.3554C86.6621 28.4079 86.7687 27.4189 86.9819 26.3884C87.2069 25.3461 87.5386 24.3216 87.9768 23.3148C88.4151 22.3081 88.954 21.3487 89.5936 20.4367C90.245 19.5247 90.9912 18.7252 91.8321 18.0382C92.6849 17.3512 93.6325 16.8064 94.6748 16.4037C95.7171 15.9891 96.8541 15.7819 98.0859 15.7819C98.5597 15.7819 99.0394 15.8233 99.525 15.9062C100.022 15.9773 100.496 16.072 100.946 16.1905C101.396 16.3089 101.817 16.4451 102.208 16.5991C102.61 16.7412 102.948 16.8893 103.22 17.0433L105.139 16.1727H107.076L104.677 27.5255C104.63 27.7268 104.571 27.9933 104.5 28.325C104.429 28.6566 104.358 29.0119 104.286 29.391C104.227 29.7581 104.174 30.1194 104.127 30.4747C104.079 30.8182 104.055 31.1084 104.055 31.3453C104.055 31.9493 104.174 32.3994 104.411 32.6955C104.648 32.9916 104.956 33.1397 105.335 33.1397C105.678 33.1397 106.004 33.0686 106.312 32.9265C106.632 32.7725 106.981 32.5889 107.36 32.3757L108.16 33.8326C107.852 34.0695 107.502 34.3182 107.111 34.5788C106.72 34.8275 106.282 35.0585 105.797 35.2717C105.323 35.4849 104.802 35.6566 104.233 35.7869C103.676 35.929 103.072 36.0001 102.421 36.0001ZM92.1875 29.391C92.1875 30.0898 92.2349 30.6761 92.3296 31.1498C92.4362 31.6236 92.5724 32.0086 92.7382 32.3047C92.9159 32.5889 93.1232 32.7962 93.3601 32.9265C93.6088 33.0449 93.8753 33.1042 94.1596 33.1042C94.6925 33.1042 95.2433 32.8732 95.8118 32.4113C96.3804 31.9493 96.9134 31.3453 97.4108 30.5991C97.9083 29.8411 98.3524 28.9883 98.7433 28.0407C99.146 27.0932 99.448 26.1338 99.6494 25.1625L100.929 19.122C100.692 18.7785 100.36 18.5238 99.9337 18.358C99.5191 18.1922 99.0749 18.1093 98.6012 18.1093C97.8905 18.1093 97.2391 18.2929 96.6469 18.66C96.0665 19.0272 95.5394 19.5187 95.0656 20.1346C94.5919 20.7505 94.1714 21.4494 93.8042 22.2311C93.4489 23.0128 93.1469 23.8241 92.8981 24.6651C92.6612 25.506 92.4836 26.3351 92.3651 27.1524C92.2467 27.9697 92.1875 28.7158 92.1875 29.391Z" fill="white"/>
<path d="M79.8578 33.0331C80.4264 33.0331 80.9416 32.9383 81.4035 32.7488C81.8654 32.5593 82.2978 32.3343 82.7005 32.0737L83.5355 33.4595C83.1328 33.803 82.7064 34.1287 82.2563 34.4366C81.8181 34.7446 81.3384 35.017 80.8172 35.2539C80.2961 35.4789 79.7335 35.6566 79.1294 35.7869C78.5372 35.929 77.8917 36.0001 77.1929 36.0001C76.5296 36.0001 75.9078 35.9112 75.3274 35.7336C74.7589 35.5678 74.2614 35.3131 73.835 34.9696C73.4086 34.6143 73.0711 34.1701 72.8223 33.6371C72.5854 33.1041 72.467 32.4764 72.467 31.7539C72.467 31.5407 72.4729 31.3038 72.4848 31.0432C72.5084 30.7827 72.5381 30.5162 72.5736 30.2437C72.6091 29.9713 72.6506 29.7048 72.698 29.4443C72.7453 29.1718 72.7927 28.9231 72.8401 28.6981L75.0254 18.6245H72.2183L72.6091 16.759C73.1303 16.759 73.6988 16.6702 74.3147 16.4925C74.9306 16.3148 75.5584 16.0247 76.1979 15.622C76.8494 15.2192 77.4949 14.6922 78.1345 14.0407C78.7859 13.3893 79.3959 12.5957 79.9644 11.66H82.0786L81.137 16.1372H85.5253L85.0279 18.6245H80.5863L78.401 28.5915C78.2707 29.1245 78.1759 29.6101 78.1167 30.0483C78.0693 30.4747 78.0457 30.8597 78.0457 31.2031C78.0457 31.8072 78.2115 32.2632 78.5431 32.5712C78.8748 32.8791 79.313 33.0331 79.8578 33.0331Z" fill="white"/>
<path d="M63.0504 36.0001C61.9725 36.0001 61.1079 35.7573 60.4564 35.2717C59.805 34.7742 59.4793 34.0517 59.4793 33.1042C59.4793 32.7251 59.4971 32.358 59.5326 32.0026C59.5681 31.6355 59.6333 31.215 59.728 30.7412H59.4793C59.0292 31.5822 58.5791 32.3343 58.129 32.9976C57.6908 33.649 57.1993 34.1998 56.6544 34.6498C56.1096 35.0881 55.4996 35.4197 54.8245 35.6448C54.1612 35.8816 53.3854 36.0001 52.4971 36.0001C51.6324 36.0001 50.8744 35.8343 50.223 35.5026C49.5715 35.1591 49.0267 34.6913 48.5885 34.0991C48.1621 33.5069 47.8363 32.8081 47.6113 32.0026C47.3981 31.1854 47.2915 30.303 47.2915 29.3554C47.2915 28.4079 47.3981 27.4189 47.6113 26.3884C47.8363 25.3461 48.168 24.3216 48.6062 23.3148C49.0445 22.3081 49.5834 21.3487 50.223 20.4367C50.8744 19.5247 51.6206 18.7252 52.4615 18.0382C53.3143 17.3512 54.2619 16.8064 55.3042 16.4037C56.3465 15.9891 57.4835 15.7819 58.7153 15.7819C59.1891 15.7819 59.6688 15.8233 60.1544 15.9062C60.6519 15.9773 61.1257 16.072 61.5757 16.1905C62.0258 16.3089 62.4463 16.4451 62.8372 16.5991C63.2399 16.7412 63.5774 16.8893 63.8498 17.0433L65.7686 16.1727H67.7052L65.3067 27.5255C65.2593 27.7268 65.2001 27.9933 65.129 28.325C65.058 28.6566 64.9869 29.0119 64.9158 29.391C64.8566 29.7581 64.8033 30.1194 64.7559 30.4747C64.7086 30.8182 64.6849 31.1084 64.6849 31.3453C64.6849 31.9493 64.8033 32.3994 65.0402 32.6955C65.2771 32.9916 65.585 33.1397 65.964 33.1397C66.3075 33.1397 66.6333 33.0686 66.9412 32.9265C67.261 32.7725 67.6104 32.5889 67.9894 32.3757L68.7889 33.8326C68.481 34.0695 68.1316 34.3182 67.7407 34.5788C67.3498 34.8275 66.9116 35.0585 66.426 35.2717C65.9522 35.4849 65.4311 35.6566 64.8625 35.7869C64.3058 35.929 63.7018 36.0001 63.0504 36.0001ZM52.8169 29.391C52.8169 30.0898 52.8642 30.6761 52.959 31.1498C53.0656 31.6236 53.2018 32.0086 53.3676 32.3047C53.5453 32.5889 53.7526 32.7962 53.9895 32.9265C54.2382 33.0449 54.5047 33.1042 54.7889 33.1042C55.3219 33.1042 55.8727 32.8732 56.4412 32.4113C57.0098 31.9493 57.5427 31.3453 58.0402 30.5991C58.5377 29.8411 58.9818 28.9883 59.3727 28.0407C59.7754 27.0932 60.0774 26.1338 60.2788 25.1625L61.558 19.122C61.3211 18.7785 60.9894 18.5238 60.563 18.358C60.1485 18.1922 59.7043 18.1093 59.2306 18.1093C58.5199 18.1093 57.8685 18.2929 57.2763 18.66C56.6959 19.0272 56.1688 19.5187 55.695 20.1346C55.2213 20.7505 54.8008 21.4494 54.4336 22.2311C54.0783 23.0128 53.7763 23.8241 53.5275 24.6651C53.2906 25.506 53.113 26.3351 52.9945 27.1524C52.8761 27.9697 52.8169 28.7158 52.8169 29.391Z" fill="white"/>
<path d="M17.3909 33.7082H17.9061C18.2851 33.7082 18.6523 33.6845 19.0076 33.6371C19.3748 33.5897 19.7064 33.4891 20.0025 33.3351C20.2986 33.1811 20.5533 32.962 20.7665 32.6777C20.9915 32.3935 21.1514 32.0144 21.2462 31.5407L25.0304 13.6676C25.0778 13.5373 25.1133 13.3893 25.137 13.2235C25.1726 13.0576 25.1903 12.9273 25.1903 12.8326C25.1903 12.572 25.1252 12.3588 24.9949 12.193C24.8646 12.0272 24.681 11.9028 24.4441 11.8199C24.2191 11.7252 23.9408 11.6659 23.6091 11.6422C23.2893 11.6067 22.9399 11.5889 22.5609 11.5889H22.099L22.4898 9.67017H34.1269C35.868 9.67017 37.4196 9.88336 38.7817 10.3098C40.1556 10.7362 41.3104 11.3698 42.2461 12.2108C43.1937 13.0399 43.9162 14.0703 44.4136 15.3021C44.9111 16.5339 45.1598 17.9553 45.1598 19.5661C45.1598 21.0111 45.0059 22.4146 44.6979 23.7767C44.4018 25.127 43.9576 26.4002 43.3654 27.5965C42.7851 28.781 42.0625 29.8706 41.1979 30.8655C40.3333 31.8486 39.3324 32.6955 38.1954 33.4062C37.0583 34.1168 35.7851 34.6676 34.3756 35.0584C32.978 35.4493 31.456 35.6447 29.8096 35.6447H17L17.3909 33.7082ZM28.2462 33.3884C29.9517 33.3884 31.4737 33.0449 32.8121 32.3579C34.1506 31.6591 35.2817 30.6879 36.2055 29.4442C37.1294 28.1887 37.8341 26.6964 38.3197 24.9671C38.8054 23.2378 39.0482 21.3368 39.0482 19.2641C39.0482 17.9967 38.9001 16.9011 38.604 15.9773C38.3079 15.0416 37.8815 14.2717 37.3248 13.6676C36.78 13.0636 36.1108 12.6194 35.3172 12.3351C34.5355 12.039 33.659 11.891 32.6878 11.891H31.1599L26.6117 33.3884H28.2462Z" fill="white"/>
</svg>
