<?xml version="1.0" encoding="UTF-8" standalone="no"?>
<!-- Created with Inkscape (http://www.inkscape.org/) -->

<svg
   width="270.93369mm"
   height="241.27586mm"
   viewBox="0 0 270.93369 241.27586"
   version="1.1"
   id="svg5"
   xml:space="preserve"
   xmlns:inkscape="http://www.inkscape.org/namespaces/inkscape"
   xmlns:sodipodi="http://sodipodi.sourceforge.net/DTD/sodipodi-0.dtd"
   xmlns="http://www.w3.org/2000/svg"
   xmlns:svg="http://www.w3.org/2000/svg"><sodipodi:namedview
     id="namedview7"
     pagecolor="#ffffff"
     bordercolor="#000000"
     borderopacity="0.25"
     inkscape:showpageshadow="2"
     inkscape:pageopacity="0.0"
     inkscape:pagecheckerboard="0"
     inkscape:deskcolor="#d1d1d1"
     inkscape:document-units="mm"
     showgrid="false" /><defs
     id="defs2" /><g
     inkscape:label="Vrstva 1"
     inkscape:groupmode="layer"
     id="layer1"
     transform="translate(89.071337,-66.108069)"><path
       style="fill:#0C2738;stroke-width:0.264583"
       d="m -89.070981,284.41579 v -22.96783 l 1.04493,-0.46102 c 0.6251,-0.27579 1.2895,-0.85434 1.65364,-1.43998 0.5261,-0.84609 0.60904,-1.3291 0.61107,-3.55865 l 0.002,-2.57968 h -1.656 c -1.59001,0 -1.656,-0.0264 -1.656,-0.66146 0,-0.63496 0.0663,-0.66148 1.65365,-0.66185 l 1.65365,-2.6e-4 2.29559,-6.01888 2.2956,-6.01901 -3.48622,-0.14682 c -3.20422,-0.13495 -3.52368,-0.10582 -3.94924,0.36004 -0.44136,0.48314 -0.46303,-0.43657 -0.46303,-19.65589 v -20.16276 l 3.74821,-6.25874 c 7.53408,-12.58038 9.55193,-15.22006 13.81398,-18.0709 1.3218,-0.88413 6.8538,-3.81428 12.29334,-6.51144 5.43954,-2.69716 11.63899,-5.95788 13.77656,-7.24606 3.51387,-2.11758 4.16429,-2.40987 6.78397,-3.04856 2.31922,-0.56543 3.71594,-1.13001 6.99853,-2.82891 7.959526,-4.11944 7.248964,-3.83849 10.451036,-4.13238 1.600729,-0.14692 4.577291,-0.45529 6.614583,-0.68526 3.606474,-0.40712 3.843054,-0.4018 8.970388,0.2016 5.646332,0.66449 5.959948,0.78362 5.620744,2.1351 -0.632359,2.51953 -6.027663,4.62937 -10.108861,3.95309 -1.688827,-0.27984 -1.789136,-0.26336 -3.901582,0.64091 -2.465446,1.0554 -4.839002,1.67548 -6.435259,1.6812 -0.943777,0.003 -1.346602,0.21709 -2.966572,1.5739 -1.030978,0.8635 -2.682671,2.04501 -3.67043,2.62558 -0.987761,0.58057 -2.341527,1.63025 -3.008377,2.33261 -2.50298,2.6363 -4.69409,5.35925 -5.15728,6.40909 -0.26344,0.5971 -0.6049,1.07806 -0.75879,1.06879 -0.1539,-0.009 -0.79208,-1.08083 -1.41817,-2.38125 -1.03908,-2.15818 -1.62214,-2.77049 -2.02203,-2.12346 -0.0819,0.13251 0.26614,1.10699 0.77341,2.16549 0.50728,1.0585 0.86833,1.97854 0.80234,2.04453 -0.066,0.066 -0.64168,-0.0261 -1.27931,-0.20461 -1.41179,-0.39528 -2.39517,-0.28791 -2.50199,0.27319 -0.0597,0.31368 0.30406,0.50393 1.45251,0.75962 0.8427,0.18762 3.25858,0.82737 5.36864,1.42167 l 3.83645,1.08054 7.805211,0.0383 c 10.095507,0.0495 12.435416,0.52076 12.435416,2.50444 0,1.62707 -1.499833,2.49986 -4.794999,2.79031 -2.444488,0.21547 -2.877917,0.33899 -2.877917,0.82015 0,0.37851 0.296611,0.4111 2.447395,0.26889 1.346068,-0.089 2.685521,-0.2313 2.976563,-0.31623 0.459494,-0.13408 0.714938,0.24936 1.940107,2.91225 1.001768,2.17733 1.513311,3.69644 1.763951,5.2383 0.194153,1.19439 0.497871,2.74421 0.674925,3.44403 0.587023,2.32026 -0.564205,3.3732 -2.562426,2.34365 -1.978858,-1.01956 -3.758824,-3.57332 -3.811288,-5.46814 -0.01704,-0.61543 -0.270968,-0.97416 -1.130289,-1.59679 -0.609574,-0.44167 -1.486803,-1.4537 -1.949403,-2.24896 -1.878428,-3.2292 -2.07691,-3.43029 -3.385793,-3.43029 -0.654061,0 -2.2923,-0.3679 -3.640534,-0.81757 -2.095365,-0.69884 -2.680682,-0.79203 -4.030719,-0.64175 -2.29424,0.25539 -3.92138,1.14766 -6.75499,3.70422 -3.06951,2.7694 -6.13814,4.87168 -8.70609,5.96444 -4.37626,1.86227 -9.14374,2.50931 -12.84,1.74264 -1.15457,-0.23948 -2.18156,-0.34422 -2.28219,-0.23276 -0.21985,0.24352 -1.36417,3.75699 -3.03898,9.33078 -2.63224,8.76018 -7.15751,23.12402 -9.62297,30.54466 -0.86758,2.61128 -1.51814,4.8437 -1.44569,4.96094 0.0724,0.11723 0.33359,0.21315 0.58031,0.21315 0.3501,0 0.762,-1.01466 1.87639,-4.6222 l 1.42782,-4.62221 1.3107,-0.43534 c 1.28193,-0.42579 3.46091,-0.42099 4.47986,0.01 0.34388,0.14541 0.57925,-0.0746 1.02452,-0.95765 1.49768,-2.97016 6.06035,-7.93796 9.03788,-9.84037 3.60574,-2.3038 7.85399,-4.01203 12.05751,-4.84835 3.23903,-0.64442 9.9637,-0.63394 13.0201,0.0203 5.17344,1.1074 9.377,2.85712 13.75891,5.7271 3.148824,2.06236 7.999944,6.89029 10.092091,10.04385 2.825028,4.25826 5.154234,9.72081 5.766811,13.52457 0.144092,0.89472 0.295825,1.65998 0.337187,1.70058 0.04136,0.0406 1.186109,0.80284 2.543882,1.69385 3.002957,1.97065 6.946839,5.72747 8.748281,8.33334 3.477675,5.03064 5.266054,10.14731 5.993272,17.14714 0.08693,0.83674 0.179253,1.51982 0.205163,1.51794 0.0259,-0.002 0.769644,-0.22998 1.652746,-0.50689 2.539013,-0.79615 7.251314,-1.16271 10.438577,-0.81199 8.481732,0.93331 16.268564,5.47517 21.684664,12.64812 1.29889,1.72022 4.76799,8.23528 4.76799,8.95443 0,0.25145 0.38487,0.35724 1.29964,0.35724 1.94707,0 4.94991,0.6464 7.40989,1.59507 3.9255,1.51383 7.12709,4.0016 11.26651,8.75455 l 1.05833,1.21519 31.522177,-0.12229 31.52218,-0.12229 1.48443,-1.80441 c 1.82702,-2.22084 4.6428,-4.15752 7.31888,-5.03388 1.69491,-0.55504 2.47154,-0.64548 5.54295,-0.64548 3.06189,0 3.85051,0.0913 5.52337,0.63918 2.65632,0.87005 5.34593,2.6932 7.62871,5.17112 l 1.90729,2.07033 1.50237,-0.17657 c 0.82632,-0.0971 3.39108,-0.0958 5.69948,0.003 4.17642,0.17855 4.19711,0.1825 4.19711,0.80032 v 0.62088 H 46.395673 -89.070981 Z m 73.620308,21.38108 5.490104,-7.5e-4 v -22.225 c 0,-12.22375 -0.03436,-22.22499 -0.07635,-22.22499 -0.04199,0 -0.543415,0.23812 -1.114277,0.52916 -1.874062,0.95545 -3.857948,0.45446 -5.029883,-1.2702 l -0.631946,-0.92999 -0.316045,0.69364 c -0.477269,1.04749 -2.082138,2.02816 -3.616492,2.20988 -1.63822,0.19402 -3.417757,-0.55838 -4.485449,-1.89647 l -0.693743,-0.86944 -0.550719,0.80597 c -0.784977,1.14879 -2.178938,1.8444 -3.394988,1.69414 l -0.99219,-0.12259 v 21.97707 21.97707 l 4.960935,-0.17337 c 2.728515,-0.0954 7.431484,-0.17372 10.451041,-0.17413 z m -13.169138,-13.28273 c -0.0748,-0.19499 -0.10405,-3.20967 -0.065,-6.69929 l 0.0711,-6.34477 h 0.661461 0.661458 v 6.61459 6.61458 l -0.596495,0.0847 c -0.328073,0.0466 -0.657714,-0.0748 -0.732534,-0.26981 z m -30.02409,-12.49115 v -18.10021 l -0.71129,-1.08641 -0.7113,-1.08642 -0.49525,0.78219 c -0.56026,0.88489 -2.38811,1.87232 -3.46586,1.87232 -1.12618,0 -2.40281,-0.64983 -3.1485,-1.60265 l -0.68309,-0.87283 -0.73922,0.87852 c -1.99496,2.37087 -5.36706,2.43374 -7.48183,0.13949 l -1.01861,-1.10507 -0.67384,0.84449 c -1.78105,2.23211 -5.14309,2.23421 -6.60495,0.004 l -0.54802,-0.83602 -0.90262,0.99909 c -0.49643,0.5495 -1.13148,1.07173 -1.4112,1.16051 -0.49515,0.15715 -0.50858,0.63623 -0.50858,18.13525 v 17.97384 h 14.55208 14.55208 z m -5.88698,16.85054 -2.05052,-0.0955 v -2.90854 -2.90855 l 2.71198,0.0754 2.71198,0.0754 v 2.91042 2.91041 l -0.66146,0.0182 c -0.3638,0.01 -1.58419,-0.0248 -2.71198,-0.0773 z m -20.57135,-2.85136 v -2.77813 h 3.04271 3.04271 v 2.77813 2.77812 h -3.04271 -3.04271 z m 7.40833,0 v -2.77813 h 4.89479 4.8948 v 2.77813 2.77812 h -4.8948 -4.89479 z m -2.27054,-3.81442 c -0.0609,-0.0606 -0.11071,-1.45961 -0.11071,-3.10885 v -2.99861 h 5.15938 5.15937 v 3.14057 3.14058 l -5.04867,-0.0317 c -2.77676,-0.0174 -5.09848,-0.0813 -5.15937,-0.14197 z m -4.34404,-2.93246 v -2.91042 h 1.28314 1.28315 l 0.17476,2.66674 c 0.0961,1.4667 0.10699,2.77639 0.0242,2.91041 -0.0828,0.13403 -0.73889,0.24369 -1.45791,0.24369 h -1.3073 z m 47.09583,-7.02929 v -17.8772 l -0.5553,0.17624 c -0.30541,0.0969 -1.09457,0.0954 -1.75368,-0.003 -0.95412,-0.14308 -1.44806,-0.43154 -2.42331,-1.41519 l -1.22491,-1.23547 -1.10004,1.10829 c -0.71627,0.72163 -1.43491,1.17111 -2.0599,1.28835 -1.3611,0.25535 -3.19348,-0.49389 -3.92057,-1.60308 l -0.57051,-0.87032 -1.00733,1.1444 c -1.14857,1.30484 -2.3581,1.80264 -4.05252,1.66788 l -1.17568,-0.0935 v 17.79513 17.79514 h 9.92188 9.92187 z m -16.27925,9.61902 c -0.0755,-0.19679 -0.10475,-2.55662 -0.065,-5.24407 l 0.0723,-4.88628 h 0.66145 0.66146 v 5.15937 c 0,5.15206 -7.9e-4,5.15949 -0.59649,5.24408 -0.32808,0.0466 -0.65828,-0.0763 -0.7338,-0.2731 z m 74.122148,3.29725 c 0.245978,-1.02969 0.605145,-1.40538 1.886786,-1.97361 0.618464,-0.2742 1.124479,-0.58823 1.124479,-0.69783 0,-0.35419 -0.622617,-0.83429 -1.081939,-0.83429 -0.798182,0 -1.624415,-0.91819 -1.800381,-2.00076 -0.130955,-0.80565 -0.288353,-1.04195 -0.694042,-1.04195 -0.406394,0 -0.544465,0.20853 -0.612441,0.92498 -0.111353,1.17357 -0.427485,1.5447 -1.826721,2.14448 -1.288338,0.55224 -1.468043,1.20603 -0.400621,1.4575 0.892895,0.21036 2.182812,1.36904 2.182812,1.96074 0,1.02836 0.979287,1.07703 1.222068,0.0607 z m -1.33577,-2.0531 -0.77516,-0.62231 0.779304,-0.74589 0.779303,-0.74589 0.77615,0.71902 c 0.426884,0.39545 0.722675,0.75264 0.657315,0.79375 -0.06536,0.0411 -0.416491,0.33323 -0.780293,0.64918 l -0.661458,0.57444 z M -1.774835,260.86523 c 1.472629,-1.09081 1.73011,-1.75299 1.826368,-4.69701 l 0.09023,-2.75959 h -4.125126 -4.125124 v 2.36402 c 0,3.26344 0.613161,4.59998 2.513542,5.47887 0.996547,0.46089 2.941976,0.26417 3.82011,-0.38629 z m -68.546656,-0.24194 c 1.51949,-1.12525 1.88801,-2.0505 1.88801,-4.74025 v -2.47441 h -4.10104 -4.10104 v 2.25949 c 0,3.0534 0.84617,4.65278 2.91041,5.50106 0.72046,0.29607 2.69418,-0.0205 3.40366,-0.54589 z m 16.7254,0.12123 c 1.69191,-1.14018 2.09594,-2.07732 2.09594,-4.86148 v -2.47441 h -4.13709 -4.1371 l 0.13025,2.49 c 0.14727,2.81551 0.59285,3.87214 2.04581,4.85128 1.18019,0.79533 2.81727,0.79312 4.00219,-0.005 z m 17.39101,0.066 c 1.32942,-0.81052 1.89008,-2.31388 1.89704,-5.08677 l 0.006,-2.3151 h -4.10104 -4.10105 v 2.47441 c 0,2.1356 0.0824,2.59665 0.60161,3.36714 1.3701,2.03309 3.82122,2.70434 5.69763,1.56032 z m 16.494135,0.16059 c 1.87352,-0.78281 2.606627,-2.27352 2.606627,-5.30037 v -2.26209 h -4.101041 -4.101042 v 2.47441 c 0,2.1356 0.08238,2.59665 0.60161,3.36714 1.275871,1.89327 3.087327,2.51751 4.993846,1.72091 z m -58.512115,-9.15836 c 0,-0.51407 -0.13576,-0.5343 -3.10566,-0.46302 -2.71261,0.0651 -3.11689,0.13314 -3.1944,0.53756 -0.0806,0.42031 0.20595,0.46302 3.10566,0.46302 3.03464,0 3.1944,-0.0269 3.1944,-0.53756 z m 17.27457,0.008 c 0.13289,-0.50817 0.008,-0.52917 -3.14414,-0.52917 -3.10613,0 -3.28252,0.0284 -3.28252,0.52917 0,0.49948 0.17639,0.52916 3.14414,0.52916 2.92163,0 3.15394,-0.0375 3.28252,-0.52916 z m 17.12126,0 c 0,-0.49963 -0.17639,-0.52917 -3.15939,-0.52917 -1.82085,0 -3.22866,0.1121 -3.3229,0.26458 -0.38747,0.62694 0.31088,0.79375 3.3229,0.79375 2.983,0 3.15939,-0.0295 3.15939,-0.52916 z m 17.197913,0 c 0,-0.49977 -0.17639,-0.52917 -3.175003,-0.52917 -2.99861,0 -3.175,0.0294 -3.175,0.52917 0,0.49976 0.17639,0.52916 3.175,0.52916 2.998613,0 3.175003,-0.0294 3.175003,-0.52916 z m 17.197915,0 c 0,-0.50095 -0.176389,-0.52917 -3.307291,-0.52917 -3.130902,0 -3.307292,0.0282 -3.307292,0.52917 0,0.50094 0.17639,0.52916 3.307292,0.52916 3.130902,0 3.307291,-0.0282 3.307291,-0.52916 z m -58.873648,-0.33073 c 0.0762,-0.32743 0.71368,-3.06586 1.41666,-6.08542 l 1.27814,-5.4901 -3.72672,0.006 -3.72672,0.006 -1.78739,5.48361 c -0.98307,3.01598 -1.85429,5.75149 -1.93606,6.07892 l -0.14867,0.59531 h 4.24612 c 4.18596,0 4.24809,-0.008 4.38464,-0.59531 z m 16.81055,0.39687 c 0.003,-0.10914 0.17916,-2.75828 0.39123,-5.88698 0.21206,-3.1287 0.38811,-5.77784 0.39122,-5.88698 0.003,-0.10914 -1.5963,-0.19843 -3.55424,-0.19843 h -3.55988 l -0.14628,0.85989 c -0.46811,2.75178 -1.72978,10.79923 -1.72978,11.0333 0,0.3215 8.19858,0.40061 8.20773,0.0792 z m 17.19227,-0.27898 c 0,-0.26258 -0.47625,-2.95003 -1.05834,-5.97211 -0.58208,-3.02207 -1.05833,-5.54567 -1.05833,-5.60799 0,-0.0623 -1.60734,-0.11331 -3.57187,-0.11331 h -3.57188 v 0.95948 c 0,1.3282 0.86435,10.62158 1.03658,11.1452 0.012,0.0364 1.86722,0.0661 4.1228,0.0661 3.77648,0 4.10104,-0.0378 4.10104,-0.47742 z m 17.048515,0.24051 c 0.08053,-0.1303 -0.72377,-2.89615 -1.787334,-6.14635 l -1.93375,-5.90944 -3.62101,-0.084 c -3.473781,-0.0806 -3.621008,-0.0624 -3.621008,0.44571 0,0.46564 2.455132,10.73982 2.772007,11.60023 0.144966,0.39363 7.950549,0.48303 8.191095,0.0938 z m 17.347313,-0.13918 c 0,-0.20685 -1.280374,-2.95002 -2.845276,-6.09593 l -2.845279,-5.71983 -3.640172,-0.0556 c -3.141035,-0.048 -3.619526,-0.001 -3.489608,0.34124 0.08281,0.21828 1.177798,2.98648 2.433307,6.15156 l 2.282738,5.75469 h 4.052146 c 3.326,0 4.052144,-0.0674 4.052144,-0.37609 z m -31.871558,-20.91299 c 0.41473,-1.63525 1.82434,-3.05221 3.0364,-3.05221 0.49489,0 0.868664,-0.16347 0.968475,-0.42357 0.187368,-0.48827 -0.323532,-0.88943 -1.140205,-0.89529 -0.90336,-0.006 -2.74233,-2.02257 -2.74716,-3.01174 -0.005,-1.07103 -0.33129,-1.56602 -0.9537,-1.44784 -0.37772,0.0717 -0.51712,0.3662 -0.57915,1.22339 -0.10172,1.40585 -1.32167,2.73334 -3.00118,3.26575 -1.53168,0.48556 -1.74445,1.2893 -0.3413,1.2893 0.80464,0 1.18733,0.20708 2.13607,1.15581 0.91992,0.91993 1.15581,1.34292 1.15581,2.07257 0,1.81245 0.99182,1.69326 1.46594,-0.17617 z m -1.97184,-2.72148 c -0.64205,-0.61846 -1.02934,-1.12448 -0.86066,-1.12448 0.16869,0 0.75567,-0.40561 1.3044,-0.90136 l 0.9977,-0.90136 0.98791,0.90536 0.98792,0.90536 -1.12496,1.12048 -1.12495,1.12048 z m -18.85168,2.0827 c 0.19463,-0.12337 0.3137,-0.5085 0.26458,-0.85585 -0.11172,-0.79018 -1.35003,-0.91678 -1.49711,-0.15306 -0.2003,1.04011 0.40352,1.53438 1.23253,1.00891 z m 140.367834,10.68345 c -0.41314,-1.07664 -0.044,-1.17499 4.69321,-1.25048 l 4.54575,-0.0724 0.30681,-1.20932 c 1.22248,-4.81838 6.430437,-8.08414 10.754367,-6.74373 0.78777,0.2442 1.55614,0.49802 1.7075,0.56405 0.15135,0.066 0.48469,-0.56034 0.74075,-1.39189 0.6806,-2.21025 2.05031,-4.28994 4.08437,-6.20148 2.17146,-2.04065 3.85527,-2.98377 6.56396,-3.67653 3.85014,-0.9847 7.81269,-0.57383 11.08989,1.1499 2.29338,1.20626 5.33026,4.34164 6.45183,6.66109 0.49257,1.01864 0.92048,1.88311 0.95091,1.92105 0.0304,0.0379 0.56513,-0.11089 1.18821,-0.33073 1.99298,-0.70316 3.79838,-0.42149 5.52594,0.86215 1.07492,0.79871 2.41957,2.84646 2.41957,3.68474 0,0.7223 -0.0483,0.71337 1.14982,0.21278 2.17139,-0.90726 4.72699,-0.10791 5.86538,1.8346 0.36174,0.61727 0.65772,1.49881 0.65772,1.95896 v 0.83665 h 4.23333 4.23333 v 0.63315 c 0,0.34824 -0.18833,0.70542 -0.41851,0.79375 -0.23018,0.0883 -17.55751,0.1606 -38.50518,0.1606 -33.610727,0 -38.104557,-0.0466 -38.238957,-0.39687 z M 62.628384,218.23179 c -5.043371,-0.58259 -9.795681,-1.98379 -14.048071,-4.14199 -4.44475,-2.25584 -7.04104,-4.15709 -10.793758,-7.90425 -6.302584,-6.29323 -10.15265,-13.01305 -12.433358,-21.70088 -1.65101,-6.28914 -2.049465,-12.34994 -1.281604,-19.49419 0.147113,-1.36876 0.117493,-1.49422 -0.332732,-1.4093 -0.271823,0.0513 -0.682792,0.10232 -0.913265,0.11346 -0.230474,0.0111 -0.851744,0.64532 -1.380599,1.4093 -1.467617,2.12012 -3.647318,3.61596 -6.492541,4.45558 -1.973458,0.58235 -3.158524,2.6383 -2.639436,4.5791 0.268822,1.0051 0.242398,1.25653 -0.214606,2.04198 -0.393374,0.67608 -0.728884,0.91607 -1.368205,0.97865 -0.66916,0.0655 -0.849254,-0.0178 -0.857623,-0.39688 -0.0079,-0.35926 -0.109749,-0.29701 -0.405323,0.24782 -0.515059,0.9494 -1.525125,0.97703 -2.127179,0.0582 -0.434504,-0.66314 -0.442161,-0.66439 -0.81485,-0.1323 -0.462129,0.65979 -1.185027,0.69062 -1.737389,0.0741 -0.598612,-0.66812 -1.347721,-5.10108 -1.191305,-7.0497 0.124735,-1.55392 1.140714,-4.12533 1.788009,-4.52538 1.271341,-0.78573 -3.026042,-0.92119 -4.965996,-0.15653 -2.031817,0.80087 -3.479631,0.91685 -4.558289,0.36515 -1.092393,-0.55872 -1.317704,-1.40201 -0.562563,-2.10553 0.289391,-0.26961 1.870401,-1.01999 3.513355,-1.66752 2.632609,-1.03757 3.317856,-1.19727 5.772888,-1.34538 2.556375,-0.15422 2.959938,-0.25547 4.902361,-1.22993 1.164166,-0.58403 3.128698,-1.39028 4.365625,-1.79167 1.236927,-0.40138 3.618177,-1.30212 5.291666,-2.00163 1.67349,-0.69951 3.781364,-1.48831 4.684167,-1.7529 l 1.641459,-0.48107 0.827649,-2.51567 c 1.915263,-5.82154 5.187486,-11.3116 8.988975,-15.08148 1.248351,-1.23797 2.88717,-2.60805 3.641822,-3.04461 l 1.372092,-0.79375 0.0053,-3.20649 c 0.0086,-5.23593 0.898803,-9.0374 3.183583,-13.59455 2.54921,-5.08456 7.78398,-10.13858 13.38868,-12.92635 7.940441,-3.949569 18.049441,-4.267159 26.10581,-0.82016 l 2.32388,0.9943 0.68695,-1.36296 c 1.85315,-3.676799 5.73468,-8.047019 9.00557,-10.139379 3.63202,-2.32338 7.655417,-3.63744 12.118057,-3.95781 l 2.38125,-0.17095 0.76982,-1.69375 c 1.8458,-4.06116 5.86972,-8.883018 10.05187,-12.04516 2.31446,-1.749971 6.76686,-4.01963 9.94809,-5.071145 8.63483,-2.85413 18.14637,-2.161374 26.94674,1.962618 8.83847,4.141847 16.09463,12.438707 19.1945,21.947407 1.02931,3.15742 1.75061,7.27529 1.7435,9.953449 -0.006,2.06437 -0.5896,6.42756 -1.13829,8.50282 l -0.36767,1.39064 1.3507,1.11397 c 0.7429,0.61269 1.91627,1.74445 2.60749,2.51504 l 1.25677,1.40106 v 27.53239 27.53239 l -1.77575,2.69318 c -3.8853,5.89265 -10.04298,10.81323 -16.63852,13.29579 -3.75291,1.41259 -6.05229,1.8038 -10.68989,1.81875 -2.40109,0.008 -4.67749,-0.0736 -5.05867,-0.18074 -0.64119,-0.18023 -0.72823,-0.10104 -1.16324,1.05833 -3.74549,9.98226 -13.05269,17.63353 -24.21758,19.90879 -8.75296,1.78374 -16.63386,0.29039 -23.153717,-4.38739 l -2.06447,-1.48119 -1.70257,1.88405 c -5.03613,5.57293 -13.44691,10.15337 -21.20086,11.54581 -2.53099,0.45451 -9.08439,0.67342 -11.56868,0.38644 z m 15.64348,-9.33931 c 0.91165,-0.79245 1.00169,-2.36315 0.18242,-3.18242 -0.49857,-0.49857 -0.67407,-0.53353 -1.36637,-0.27222 -0.787,0.29706 -0.79432,0.29142 -0.79432,-0.61154 0,-1.08718 0.58596,-1.4294 1.3161,-0.76863 0.8938,0.80887 1.45345,-0.0523 0.62727,-0.96519 -0.60858,-0.67247 -1.58279,-0.6039 -2.35227,0.16558 -0.51384,0.51384 -0.64943,0.92171 -0.64943,1.95352 0,1.08135 0.0903,1.3277 0.5289,1.44239 0.2909,0.0761 0.59558,0.0304 0.67707,-0.10143 0.0815,-0.13186 0.43078,-0.23975 0.77619,-0.23975 0.9135,0 1.14735,0.95934 0.41067,1.68475 l -0.57299,0.56421 -0.48931,-0.59531 c -0.56121,-0.68278 -1.33053,-0.79057 -1.33053,-0.18641 0,0.58327 1.20189,1.70776 1.8253,1.70776 0.28954,0 0.83463,-0.26789 1.2113,-0.59531 z m -23.986271,-1.72097 c 0.10133,-0.71363 -0.57728,-1.06367 -1.14641,-0.59134 -0.21643,0.17962 -0.39351,0.55804 -0.39351,0.84093 0,0.78859 1.4253,0.55757 1.53992,-0.24959 z m 57.835517,-2.46652 c 0.37674,-0.44772 0.68498,-0.98892 0.68498,-1.20265 0,-0.41168 -0.87838,-1.35239 -1.73535,-1.8585 -0.37546,-0.22174 -0.43587,-0.38488 -0.22458,-0.60652 0.21609,-0.22669 0.37449,-0.20022 0.62771,0.10489 0.49521,0.59669 0.80305,0.49957 0.80305,-0.25337 0,-0.41158 -0.14993,-0.66146 -0.39687,-0.66146 -0.21828,0 -0.39688,-0.1786 -0.39688,-0.39688 0,-0.21828 -0.17859,-0.39687 -0.39687,-0.39687 -0.21828,0 -0.39688,0.16401 -0.39688,0.36448 0,0.20046 -0.17859,0.51269 -0.39687,0.69385 -0.62802,0.52121 -0.47496,1.49056 0.33073,2.09459 1.1722,0.8788 1.38906,1.08759 1.38906,1.33738 0,0.27687 -1.05712,0.20312 -1.56213,-0.109 -0.4665,-0.28831 -0.87753,0.38889 -0.50701,0.83534 0.15502,0.18679 0.44586,0.33961 0.64633,0.33961 0.20046,0 0.36448,0.11906 0.36448,0.26458 0,0.49342 0.47954,0.26765 1.1671,-0.54947 z m -47.998346,-0.50886 c 0,-0.61736 0.11759,-0.79375 0.52916,-0.79375 0.29105,0 0.52917,-0.16471 0.52917,-0.36602 0,-0.20131 -0.23812,-0.42828 -0.52917,-0.50439 -0.47418,-0.124 -0.52916,-0.3609 -0.52916,-2.27982 0,-1.17779 -0.0957,-2.14144 -0.21268,-2.14144 -0.65778,0 -3.491491,3.98209 -3.491491,4.90644 0,0.28589 0.34115,0.38523 1.322921,0.38523 1.20952,0 1.32291,0.0529 1.32291,0.61736 0,0.70105 0.19571,0.97014 0.70556,0.97014 0.21559,0 0.35278,-0.30868 0.35278,-0.79375 z m -2.38125,-1.83647 c 0,-0.13693 0.12244,-0.32464 0.27209,-0.41713 0.14965,-0.0925 0.43759,-0.546 0.63987,-1.0078 l 0.36779,-0.83964 0.0216,1.25677 c 0.0201,1.16992 -0.0241,1.25677 -0.63988,1.25677 -0.3638,0 -0.66146,-0.11204 -0.66146,-0.24897 z m 8.38078,-0.54478 c 0.919639,-1.67349 1.672369,-3.25107 1.672729,-3.50573 5.7e-4,-0.40672 -0.28888,-0.46302 -2.380599,-0.46302 -1.88097,0 -2.38125,0.0789 -2.38125,0.37582 0,0.26761 0.4997,0.42932 1.73563,0.56168 1.16277,0.12452 1.69623,0.2885 1.6163,0.49681 -0.0656,0.17102 -0.7276,1.37178 -1.47104,2.66836 -1.43351,2.50005 -1.62527,3.13259 -0.90778,2.99433 0.25189,-0.0485 1.16726,-1.40179 2.11601,-3.12825 z m 19.665049,1.32291 c 0.57165,-1.06814 -0.69127,-2.11331 -1.53458,-1.27 -0.34224,0.34225 -0.4286,1.3353 -0.14111,1.62278 0.37162,0.37163 1.40436,0.15421 1.67569,-0.35278 z m 35.718747,-1.70845 c 0,-0.21204 0.53578,-1.40138 1.19062,-2.64298 1.68819,-3.20083 1.65935,-3.32148 -0.79375,-3.32148 -1.55852,0 -1.98437,0.0825 -1.98437,0.38425 0,0.28415 0.41078,0.40477 1.57686,0.46302 l 1.57686,0.0788 -0.82964,1.32292 c -0.95907,1.52928 -1.84391,3.69927 -1.6056,3.93757 0.30745,0.30746 0.86902,0.16395 0.86902,-0.22207 z m -67.314787,-1.58326 c 0.53374,-0.73059 0.55012,-11.05041 0.0182,-11.49183 -0.27483,-0.22809 -0.7342,-0.0524 -1.99627,0.76326 -0.90161,0.58274 -3.94059,2.48957 -6.7533,4.2374 -6.18947,3.84617 -6.50387,4.11318 -6.50387,5.52377 0,0.72573 0.14536,1.14462 0.46302,1.3343 0.29834,0.17815 2.94098,0.2534 7.43,0.21159 6.55037,-0.061 6.98941,-0.0956 7.34219,-0.57849 z m -13.80244,-0.91957 c -0.31703,-0.31816 0.007,-0.75682 1.04285,-1.41111 0.63346,-0.40018 1.2354,-0.7276 1.33765,-0.7276 0.10225,0 0.1493,0.49302 0.10455,1.09562 l -0.0814,1.09562 -1.14692,0.0289 c -0.6308,0.0159 -1.19635,-0.0207 -1.25677,-0.0814 z m 3.70328,-0.11973 c -0.0765,-0.19925 -0.10249,-0.97652 -0.0579,-1.72728 0.0769,-1.2932 0.14033,-1.4002 1.20566,-2.03398 l 1.12447,-0.66897 v 2.39625 2.39624 h -1.06663 c -0.65876,0 -1.1198,-0.13853 -1.20565,-0.36226 z m 3.78418,0.19847 c -0.10394,-0.10394 -0.18898,-1.39724 -0.18898,-2.87401 v -2.68502 l 0.93502,-0.44588 c 0.51426,-0.24523 1.05371,-0.44588 1.19877,-0.44588 0.16497,0 0.23593,1.21391 0.18946,3.24115 l -0.0743,3.24114 -0.9355,0.0787 c -0.51452,0.0433 -1.02054,-0.006 -1.12448,-0.11024 z m 3.43959,0 c -0.10394,-0.10394 -0.18751,-1.86578 -0.18571,-3.9152 l 0.003,-3.72621 0.94793,-0.61425 c 0.52137,-0.33783 0.98505,-0.57595 1.0304,-0.52916 0.0453,0.0468 0.12101,2.0496 0.16812,4.4507 l 0.0857,4.36562 -0.93036,0.0787 c -0.51169,0.0433 -1.01539,-0.006 -1.11933,-0.11024 z m 42.9381,-3.23562 c 4.526197,-1.05678 10.897127,-4.158 15.296797,-7.44614 3.34741,-2.50171 8.06691,-7.32896 10.60811,-10.85028 3.35197,-4.64479 6.63883,-11.82069 6.63883,-14.49395 0,-2.96985 -3.53101,-3.30719 -5.64236,-0.53906 -0.37212,0.48788 -1.4976,2.61332 -2.50106,4.72321 -1.98385,4.1713 -3.81977,7.26964 -4.53413,7.65196 -0.29202,0.15628 -0.68178,0.1288 -1.09753,-0.0774 -0.91691,-0.45473 -0.97761,-1.57521 -0.15051,-2.77819 1.6318,-2.3734 3.60684,-7.43288 3.60684,-9.23968 0,-1.62504 -1.48997,-2.97398 -3.2849,-2.97398 -3.6642,0 -8.57829,3.83331 -14.91072,11.63132 -4.117027,5.06988 -8.809007,9.81815 -11.437707,11.57494 -5.1073,3.41325 -8.73125,4.3823 -8.73125,2.33474 0,-0.68198 0.71283,-1.27606 2.51354,-2.09481 4.64704,-2.11293 9.99691,-7.11277 10.57742,-9.88538 0.3683,-1.75905 -0.85321,-3.52006 -2.42834,-3.50083 -1.0641,0.013 -2.80305,1.12458 -5.27546,3.37226 -6.366079,5.78743 -10.288339,7.73443 -15.58118,7.73443 -6.862449,0 -11.85689,-4.15344 -12.87463,-10.70668 -0.41602,-2.67877 -0.68047,-1.93695 -0.71747,2.01261 -0.0208,2.22144 0.11591,3.36557 0.64817,5.42395 2.58487,9.99632 9.976781,16.04147 19.577661,16.01072 3.393309,-0.0109 5.324929,-0.30542 8.260909,-1.25969 5.62812,-1.8293 11.6166,-6.41322 16.019967,-12.26258 2.19372,-2.91409 2.19263,-2.91308 3.16461,-2.91845 0.54702,-0.003 0.80008,0.16935 0.99281,0.67626 0.22186,0.58356 0.0956,0.93164 -0.88796,2.4474 -4.62718,7.13112 -10.624617,12.10111 -18.094837,14.99495 -1.05051,0.40695 -1.83763,0.85702 -1.74916,1.00015 0.28667,0.46384 9.43632,0.0352 11.99354,-0.56181 z m -59.69505,-1.95343 c 0.396844,-0.6331 -0.35017,-1.3862 -1.129614,-1.13881 -0.548339,0.17403 -0.780915,1.15413 -0.371121,1.56393 0.312288,0.31229 1.195303,0.0622 1.500735,-0.42512 z m 77.157537,-1.58296 c 4.94888,-1.33179 10.10262,-4.47528 14.42702,-8.79968 3.35927,-3.35927 5.30256,-6.1452 7.54789,-10.82075 2.31581,-4.82232 3.15356,-7.7925 3.15851,-11.19828 0.003,-1.84562 -0.80387,-2.84899 -2.28502,-2.8426 -2.14784,0.009 -3.03252,1.25425 -5.02516,7.07172 -2.52437,7.36986 -5.39043,12.3044 -10.65763,18.34943 -2.10288,2.41341 -6.06354,5.74364 -8.94074,7.51762 -1.04909,0.64683 -1.9123,1.26237 -1.91823,1.36788 -0.0136,0.24174 1.15709,0.0372 3.69336,-0.64534 z m 17.85938,-4.83612 c 7.27019,-3.63195 14.12599,-11.43111 14.14893,-16.09582 0.005,-1.06336 -0.12318,-1.40658 -0.76712,-2.05052 -0.96453,-0.96454 -2.25538,-1.03538 -3.35811,-0.1843 -1.14516,0.88382 -1.31772,1.14495 -2.90764,4.39995 -2.80091,5.73425 -5.3836,9.33557 -9.42067,13.13625 l -2.45789,2.31398 1.19062,-0.16497 c 0.65485,-0.0907 2.26219,-0.70029 3.57188,-1.35457 z m -88.193037,-0.0857 c 0.23358,-0.23775 3.39408,-8.17821 3.39408,-8.5273 0,-0.51801 -6.46173,-7.26408 -6.95791,-7.26408 -0.3982,0 -1.00981,1.36549 -3.258986,7.27604 -1.522833,4.00182 -2.897145,7.53258 -3.054024,7.84613 -0.579988,1.15917 -0.211749,1.23697 4.908999,1.03712 2.634531,-0.10283 4.870051,-0.26839 4.967841,-0.36791 z m -8.062516,-1.02283 c -0.07317,-0.11906 0.877639,-2.89538 2.112918,-6.16959 1.235276,-3.27422 2.309018,-6.16149 2.386098,-6.41615 0.0771,-0.25466 0.21555,-0.45209 0.30771,-0.43872 0.0922,0.0134 1.31857,1.26809 2.72533,2.78829 l 2.55774,2.764 -1.00445,2.43723 c -0.55245,1.34047 -1.25272,3.00277 -1.55616,3.69399 l -0.5517,1.25677 h -3.03047 c -1.666757,0 -3.206757,0.0677 -3.42222,0.15033 -0.215463,0.0827 -0.451623,0.0529 -0.524796,-0.0661 z m 17.030246,-2.21015 c 0.64081,-0.34296 0.6644,-1.21331 0.0419,-1.54645 -0.97855,-0.52371 -1.85467,0.7129 -1.06473,1.50284 0.38495,0.38495 0.385,0.38495 1.02281,0.0436 z m 101.847177,-2.74573 c 0,-0.83914 -0.69585,-1.40447 -1.27895,-1.03906 -0.62458,0.39141 -0.7185,1.44594 -0.16483,1.85079 0.62452,0.45667 1.44378,-0.004 1.44378,-0.81173 z m -123.824988,-2.5331 c 0.307337,-0.19592 0.330679,-0.35916 0.103455,-0.72355 -0.16138,-0.25881 -0.446061,-0.47056 -0.632622,-0.47056 -0.18656,0 -0.471241,0.21175 -0.632621,0.47056 -0.227224,0.36439 -0.203883,0.52763 0.103455,0.72355 0.218281,0.13915 0.456406,0.253 0.529166,0.253 0.07276,0 0.310886,-0.11385 0.529167,-0.253 z m 38.732531,-2.39483 c 0.89756,-0.78807 0.92501,-0.79396 1.39827,-0.30046 0.772631,0.80567 1.551871,1.10431 2.881511,1.10431 2.371939,0 3.81894,-1.57823 3.81894,-4.16529 0,-1.28385 0.0179,-1.31257 1.00317,-1.60776 0.55175,-0.16531 1.34781,-0.66028 1.769039,-1.09994 0.62335,-0.65065 0.78666,-1.08701 0.87767,-2.34519 0.10392,-1.43662 0.052,-1.61394 -0.73524,-2.51054 -0.48798,-0.55578 -1.285289,-1.09604 -1.880849,-1.27447 -1.01118,-0.30296 -1.03379,-0.3369 -1.03379,-1.55164 0,-2.26945 -1.77752,-3.96471 -4.15798,-3.96559 -0.87171,-2.7e-4 -1.32054,0.17981 -2.05514,0.8248 l -0.939871,0.82521 -0.68649,-0.68649 c -1.38617,-1.38617 -3.771929,-1.24029 -5.459449,0.33381 -0.95345,0.88937 -1.0837,1.16028 -1.19331,2.48205 -0.11395,1.37412 -0.17841,1.49587 -0.87277,1.64837 -3.622261,0.79559 -3.947831,6.15984 -0.44133,7.27184 l 1.25148,0.39687 0.002,1.32292 c 0.004,2.48365 1.64203,4.09825 4.158379,4.10005 1.160511,7.9e-4 1.525391,-0.12679 2.29539,-0.80286 z M 8.502891,174.06536 c -0.176919,-1.32469 -0.172752,-2.14586 0.01297,-2.55344 0.229801,-0.50436 0.1892,-0.6229 -0.25295,-0.73853 -0.963753,-0.25202 -1.187527,0.86347 -0.642461,3.20264 0.536929,2.30426 0.650105,2.57704 0.939106,2.26347 0.112276,-0.12182 0.08678,-1.10019 -0.05665,-2.17414 z m -2.27806,0.27623 c -0.186862,-1.01706 -0.176554,-2.29565 0.03981,-4.93817 0.125722,-1.53548 0.178713,-1.63125 1.617165,-2.92276 l 1.487186,-1.33526 -0.602801,-1.11664 c -0.519025,-0.96145 -0.548211,-1.15109 -0.210015,-1.36454 0.277106,-0.17489 0.55921,-0.0916 0.957865,0.28297 l 0.565082,0.53086 0.554564,-0.93992 c 0.524539,-0.88902 1.170717,-1.20562 1.470538,-0.7205 0.07458,0.12068 -0.04049,0.80529 -0.255712,1.52135 -0.305583,1.01669 -0.839102,1.75445 -2.435095,3.36726 -1.946413,1.96693 -2.019311,2.08353 -1.530186,2.4474 0.282474,0.21014 0.641479,0.38207 0.79779,0.38207 0.156311,0 1.029938,-0.70962 1.941399,-1.57693 1.208087,-1.14958 1.924026,-1.62161 2.64179,-1.74179 3.183297,-0.53301 4.828278,-1.63286 5.349163,-3.57651 0.452631,-1.68898 0.644107,-1.96831 1.349245,-1.96831 0.425315,0 0.742008,0.23566 0.977789,0.72761 0.407636,0.8505 -0.453657,0.81149 10.241732,0.4638 8.27977,-0.26916 8.682085,-0.34464 14.595663,-2.73845 2.30436,-0.9328 5.55897,-2.14406 7.23246,-2.69169 2.98629,-0.97722 6.54907,-2.58941 8.02008,-3.62917 0.702851,-0.4968 0.717081,-0.54481 0.25689,-0.86713 -0.26794,-0.18767 -1.01947,-0.48164 -1.67009,-0.65328 -2.17199,-0.57297 -2.99496,-1.50529 -1.86332,-2.11092 0.36139,-0.19342 1.07526,-0.16477 2.44739,0.0982 2.775121,0.53189 4.462951,1.24358 6.500201,2.74087 2.45428,1.8038 4.293259,2.44244 7.03297,2.44244 2.55254,0 4.83734,-0.53259 6.58207,-1.53431 1.601329,-0.91938 6.024149,-4.51449 7.829209,-6.36402 2.45905,-2.51962 4.28491,-7.00111 4.70975,-11.55981 l 0.17155,-1.84081 h -1.78785 c -1.40358,0 -1.84998,-0.098 -2.07689,-0.45574 -0.42006,-0.66234 -0.0847,-0.88859 2.81184,-1.89723 2.47199,-0.8608 4.23611,-1.76143 5.38388,-2.74862 0.48861,-0.42024 0.57497,-0.84639 0.6846,-3.3782 0.1747,-4.03466 1.27526,-6.46917 2.924467,-6.46917 0.84811,0 0.84435,0.77861 -0.008,1.67108 -1.135767,1.18914 -1.378547,2.40557 -1.382707,6.92787 -0.005,5.96782 -0.3271,8.20044 -1.4499,10.06504 -0.50786,0.84339 -0.99953,1.93931 -1.09259,2.43538 -0.23744,1.26565 0.18627,3.08196 0.74403,3.18938 0.38191,0.0736 0.41423,-0.0345 0.21647,-0.72407 -0.30211,-1.05339 0.11792,-1.05855 0.66112,-0.008 0.49951,0.96594 1.01996,0.81374 0.63947,-0.187 -0.38236,-1.00569 -0.0755,-1.08608 0.47227,-0.12374 0.610777,1.07296 0.954257,1.05975 0.744427,-0.0286 -0.15641,-0.81125 -0.14263,-0.83084 0.24356,-0.34631 0.22513,0.28248 0.40934,0.6099 0.40934,0.72761 0,0.11771 0.18278,0.21401 0.40618,0.21401 0.32976,0 0.35062,-0.10383 0.11086,-0.55183 -0.16243,-0.3035 -0.23061,-0.61654 -0.15151,-0.69564 0.0791,-0.0791 0.28645,0.16922 0.46078,0.55182 0.36611,0.80354 0.88766,0.94328 0.68929,0.1847 -0.0735,-0.28103 0.0913,-1.19283 0.36627,-2.02622 0.33614,-1.01891 0.48153,-2.13096 0.44384,-3.39483 -0.0548,-1.83885 -0.026,-1.92934 1.33174,-4.17713 2.77385,-4.59224 4.01546,-8.68009 4.01546,-13.2204 0,-2.76474 -0.024,-2.88274 -0.75266,-3.69824 -0.66221,-0.74114 -0.90279,-0.8367 -2.00187,-0.79513 -3.47327,0.13138 -8.649267,2.24883 -11.509337,4.70836 -0.64184,0.55196 -1.69587,1.72205 -2.34229,2.6002 l -1.1753,1.59664 -1.78632,0.0193 c -2.94166,0.0318 -4.97998,1.39261 -6.90662,4.61088 -1.278119,2.13496 -2.191509,3.12944 -3.299519,3.59239 l -0.85851,0.35871 0.41407,1.1515 c 0.39605,1.10135 0.3878,1.20577 -0.18927,2.39783 -0.33192,0.68567 -0.62231,1.81578 -0.64551,2.51215 -0.0525,1.57484 -0.6967,2.59476 -2.01057,3.183 -0.55432,0.24818 -1.33432,0.8392 -1.73331,1.31338 -0.67531,0.80256 -0.82869,0.85842 -2.219091,0.80825 -0.8215,-0.0296 -1.750809,0.0837 -2.065119,0.25194 -1.81322,0.97041 -4.37577,-0.59815 -5.13902,-3.14566 -0.2901,-0.96826 -0.38448,-1.04597 -1.26382,-1.0406 -2.085631,0.0128 -4.465441,1.62313 -6.260241,4.23619 l -1.18721,1.72846 -2.3875,0.32516 c -3.81582,0.51968 -6.77109,2.42287 -8.10465,5.21938 -0.64114,1.34449 -2.19299,1.62136 -2.19299,0.39126 0,-0.27386 0.11906,-0.57152 0.26458,-0.66146 0.14552,-0.0899 0.26458,-0.28927 0.26458,-0.44297 0,-0.76357 -6.349542,0.71777 -10.451036,2.43821 -1.455209,0.61041 -3.89599,1.44132 -5.423958,1.84647 -3.114638,0.82585 -7.096514,2.17947 -10.021213,3.40665 -1.073282,0.45034 -2.799688,1.06986 -3.836458,1.37671 -1.03677,0.30686 -2.897068,1.03391 -4.133995,1.61568 -2.226495,1.0472 -4.273484,1.51758 -6.649167,1.52789 -0.727337,0.003 -2.276668,0.38593 -3.812738,0.94197 -3.075353,1.11323 -3.194603,1.17777 -2.729362,1.4772 0.443648,0.28554 1.504341,0.0913 3.401684,-0.62294 1.117177,-0.42055 2.004467,-0.53903 3.819734,-0.51004 1.30049,0.0208 2.580412,0.10628 2.84427,0.19003 0.701805,0.22274 0.588751,1.07154 -0.344805,2.58876 -1.654952,2.68965 -1.917969,4.59442 -1.121444,8.12154 0.378894,1.6778 0.479041,1.86749 0.77342,1.4649 0.219395,-0.30004 0.275611,-0.80295 0.160059,-1.43189 z m 4.881449,0.55194 c -0.396423,-1.78592 -0.474771,-3.19107 -0.205939,-3.69339 0.325602,-0.60839 0.165304,-0.9017 -0.378698,-0.69295 -0.475144,0.18233 -0.983091,2.06368 -0.752946,2.7888 0.425019,1.33912 0.936961,2.32514 1.207212,2.32514 0.181173,0 0.230621,-0.27596 0.130371,-0.7276 z m 154.3972,-0.50403 c 0.4434,-0.40127 0.48386,-0.97406 0.48386,-6.84986 0,-8.33496 0.50773,-7.6322 -5.59845,-7.74891 -2.52341,-0.0482 -5.45122,-0.008 -6.50624,0.0887 l -1.91823,0.17641 v 4.94665 4.94664 l 1.52135,1.46222 c 0.83675,0.80423 2.02772,1.90183 2.6466,2.43912 l 1.12524,0.97689 h 3.88101 c 3.24002,0 3.96092,-0.0723 4.36486,-0.43788 z m -9.46905,-2.49136 c -2.78272,-2.47795 -2.74709,-2.41797 -2.74709,-4.62508 0,-1.0667 0.0963,-1.99898 0.21405,-2.07174 0.11773,-0.0728 1.01536,-0.15824 1.99474,-0.18994 0.97937,-0.0317 1.84976,-0.16943 1.9342,-0.30604 0.0844,-0.13662 -0.45601,-0.86559 -1.20099,-1.61994 -0.74498,-0.75434 -1.3545,-1.45709 -1.3545,-1.56165 0,-0.10457 2.13583,-0.19012 4.74629,-0.19012 h 4.74628 l 0.1616,1.12448 c 0.0889,0.61846 0.12594,3.32713 0.0824,6.01927 l -0.0792,4.89479 -3.33833,0.0738 -3.33832,0.0738 z m 4.67143,-0.17961 c 0.006,-0.25467 0.39256,-0.70361 0.8599,-0.99766 0.69096,-0.43475 0.8497,-0.7064 0.8497,-1.45403 0,-0.86607 -0.0643,-0.93296 -1.10937,-1.15341 -1.14114,-0.24073 -1.50885,-0.62608 -1.15057,-1.20578 0.16375,-0.26496 0.31048,-0.26504 0.73423,-5.3e-4 0.56136,0.35058 1.39342,0.18563 1.39342,-0.27624 0,-0.15151 -0.25602,-0.48267 -0.56893,-0.73591 -0.31291,-0.25324 -0.8012,-0.68083 -1.08509,-0.95021 -0.50481,-0.479 -0.53629,-0.46843 -1.43133,0.48048 -1.19987,1.27208 -1.13044,2.14461 0.24108,3.02961 0.55264,0.3566 0.99219,0.85501 0.99219,1.12506 0,0.59207 -0.42645,0.62536 -0.97565,0.0762 -0.52688,-0.52687 -0.9857,-0.3683 -1.09528,0.37855 -0.0661,0.45069 0.10144,0.66082 0.7102,0.8906 0.43821,0.16541 0.85296,0.51572 0.92167,0.77847 0.16009,0.61219 0.70044,0.62332 0.71383,0.0147 z m 0.51898,-2.18282 c 0,-0.49389 0.0705,-0.56444 0.3175,-0.3175 0.24694,0.24695 0.24694,0.38806 0,0.635 -0.24695,0.24695 -0.3175,0.17639 -0.3175,-0.3175 z m -1.97612,-2.19422 c -0.11326,-0.26094 -0.13168,-0.54867 -0.0409,-0.63941 0.26869,-0.26868 0.48527,0.10873 0.36161,0.63011 -0.10963,0.46222 -0.12389,0.46263 -0.32066,0.009 z m -5.6968,-4.33997 v -0.97794 l 0.92604,0.89755 c 0.50932,0.49365 0.92604,0.93373 0.92604,0.97795 0,0.0442 -0.41672,0.0804 -0.92604,0.0804 -0.89131,0 -0.92604,-0.0367 -0.92604,-0.97794 z m -102.177987,4.4044 c 2.1422,-3.3078 2.13607,-3.47283 -0.12527,-3.3724 -1.44013,0.064 -1.77384,0.16273 -1.82868,0.54126 -0.0552,0.38113 0.13935,0.46302 1.10015,0.46302 0.64197,0 1.16721,0.0976 1.16721,0.21693 0,0.11931 -0.32742,0.58528 -0.7276,1.03549 -1.22283,1.3757 -2.52336,3.72424 -2.33466,4.216 0.15836,0.41267 0.21086,0.40759 0.64249,-0.0621 0.25853,-0.28133 1.20639,-1.64851 2.10636,-3.03818 z m -17.681107,2.53011 c 0.187278,-0.22566 0.25536,-0.67699 0.15965,-1.05834 -0.207169,-0.82542 -1.322507,-0.92385 -1.734989,-0.15312 -0.354222,0.66187 -0.350002,0.69723 0.141883,1.18912 0.521673,0.52167 1.012695,0.52932 1.433456,0.0223 z m 141.290344,-2.63478 c 0,-0.26812 -0.37357,-0.40647 -1.25019,-0.46302 l -1.25018,-0.0806 1.38248,-1.52416 c 0.76036,-0.83828 1.38247,-1.73826 1.38247,-1.99995 0,-0.6313 -0.53132,-1.27879 -1.21519,-1.48089 -0.6927,-0.20471 -1.95981,0.7343 -1.95981,1.45233 0,0.66523 0.57643,0.65413 0.99693,-0.0192 0.18176,-0.29104 0.50806,-0.52917 0.7251,-0.52917 0.70051,0 0.41985,1.02256 -0.51385,1.87221 -0.86025,0.78281 -1.73734,2.22877 -1.73734,2.86414 0,0.18145 0.64649,0.29074 1.71979,0.29074 1.32333,0 1.71979,-0.0882 1.71979,-0.38238 z M 49.491563,166.99494 c 0.0474,-0.14231 -0.0902,-0.49206 -0.30578,-0.77722 -0.37182,-0.49174 -0.39246,-0.47301 -0.40044,0.36348 -0.008,0.81755 0.47695,1.10154 0.70622,0.41374 z m 46.5362,-2.35402 c 0.0171,-0.99334 0.12883,-1.34354 0.44862,-1.40569 0.34084,-0.0662 0.44199,0.19797 0.50645,1.32292 0.0749,1.30654 0.13091,1.4115 0.79447,1.48809 0.69487,0.0802 0.71604,0.0417 0.79375,-1.44443 l 0.0798,-1.52683 1.03471,-0.21392 c 2.750177,-0.56857 4.586457,-3.11538 3.589427,-4.97834 -0.41445,-0.77442 -1.29504,-1.15289 -3.03664,-1.30512 l -1.587497,-0.13876 -0.0764,-2.31511 c -0.0761,-2.30316 -0.0731,-2.3151 0.57382,-2.3151 0.4013,0 0.987147,0.35716 1.530157,0.93286 0.74875,0.79381 0.99845,0.90752 1.67515,0.76285 0.43738,-0.0935 0.84161,-0.21241 0.89828,-0.26421 0.0567,-0.0518 -0.21737,-0.51427 -0.60899,-1.0277 -0.76275,-1.00002 -1.91756,-1.71466 -3.198217,-1.9792 -0.75767,-0.1565 -0.79736,-0.23267 -0.8731,-1.67553 -0.0738,-1.40615 -0.12456,-1.51157 -0.7276,-1.51157 -0.6794,0 -0.69018,0.0249 -0.74581,1.71979 -0.0286,0.87037 -0.12872,1.05834 -0.56391,1.05834 -0.45263,0 -0.54081,-0.20324 -0.6097,-1.40525 -0.0776,-1.35363 -0.10673,-1.40223 -0.79375,-1.32292 -0.67542,0.078 -0.71321,0.15733 -0.71321,1.49773 v 1.41539 l -1.38203,0.5187 c -1.98959,0.74673 -3.24818,2.27752 -3.24818,3.95066 0,1.0702 0.11688,1.35012 0.80578,1.92979 0.72451,0.60964 1.77511,1.01448 3.29526,1.26982 0.45421,0.0763 0.54046,0.32783 0.60887,1.77566 l 0.0797,1.68677 -0.86912,-0.17382 c -0.47802,-0.0956 -1.315,-0.46889 -1.85997,-0.82953 -1.14002,-0.75443 -1.74571,-0.82988 -1.97001,-0.24538 -0.29706,0.77415 2.15029,2.71948 3.94439,3.13528 0.68604,0.159 0.7276,0.25247 0.7276,1.63638 0,1.44508 0.0112,1.46645 0.7276,1.38402 0.68198,-0.0785 0.72903,-0.16668 0.75032,-1.40664 z m 0.10958,-5.04648 c 0,-1.51359 0.0601,-1.72775 0.46302,-1.65099 0.37143,0.0708 0.4786,0.41479 0.54179,1.73919 0.0722,1.51307 0.0335,1.65099 -0.46302,1.65099 -0.49105,0 -0.54179,-0.16288 -0.54179,-1.73919 z m 2.38125,0.14339 c 0,-1.81863 0.22367,-2.03117 1.756137,-1.66875 1.16519,0.27556 1.681,0.93481 1.26039,1.6109 -0.40324,0.64817 -1.939437,1.65365 -2.526487,1.65365 -0.42283,0 -0.49004,-0.21886 -0.49004,-1.5958 z m -5.94709,-4.10987 c -0.43324,-0.2259 -0.87103,-0.54555 -0.97286,-0.71032 -0.28971,-0.46875 0.5092,-1.75679 1.44269,-2.32597 1.39118,-0.84825 1.50851,-0.73423 1.50851,1.46592 0,1.88196 -0.0307,1.98429 -0.59531,1.98274 -0.32743,-7.9e-4 -0.94979,-0.18646 -1.38303,-0.41237 z m 3.428,-0.994 c -0.23228,-1.8591 -0.0957,-2.66834 0.46857,-2.77588 0.41002,-0.0781 0.46302,0.15624 0.46302,2.04782 0,1.6745 -0.0816,2.13606 -0.37784,2.13606 -0.25802,0 -0.43362,-0.44649 -0.55375,-1.408 z m 52.172947,6.81145 c 0.0881,-0.22957 -0.0347,-0.61227 -0.27289,-0.85045 -0.40102,-0.40102 -0.4651,-0.40102 -0.86611,0 -0.54094,0.54093 -0.29265,1.26784 0.43305,1.26784 0.30018,0 0.61785,-0.18783 0.70595,-0.41739 z m -21.59735,-5.40547 c 4.2493,-0.80586 7.76012,-4.08425 8.88066,-8.29271 0.19954,-0.74941 0.36421,-1.74951 0.36594,-2.22245 l 0.003,-0.8599 h -4.63021 -4.63021 v 1.97828 c 0,1.79827 -0.058,2.01627 -0.63739,2.39591 -0.43157,0.28277 -1.09372,0.39154 -2.05052,0.33683 -1.38156,-0.079 -1.41498,-0.10002 -1.49604,-0.94071 l -0.0829,-0.85989 h -3.67179 c -2.01948,0 -3.72753,-0.0902 -3.79567,-0.20046 -0.0681,-0.11024 -0.20748,-0.64602 -0.30965,-1.19062 l -0.18575,-0.99017 h 3.8659 3.8659 v -1.05834 -1.05833 h -3.70416 -3.70417 v -0.92604 -0.92604 h 3.70417 3.70416 v -1.18132 c 0,-1.51012 0.52201,-1.82489 2.78716,-1.68066 1.37789,0.0877 1.91167,0.27462 3.16925,1.10961 0.83175,0.55225 1.60174,0.90457 1.71107,0.78292 0.7481,-0.83234 3.18044,-4.59877 3.18044,-4.92484 0,-0.9815 -2.88284,-2.82543 -5.47148,-3.49968 -5.51709,-1.43702 -11.23436,0.96181 -13.71696,5.75532 -0.69163,1.33542 -0.88432,1.52124 -1.58135,1.52497 -1.58948,0.008 -1.98437,0.25097 -1.98437,1.21849 0,0.88641 0.0118,0.89519 1.20738,0.89519 1.2028,0 1.20708,0.003 1.12448,0.85989 -0.0743,0.77017 -0.17942,0.86906 -1.00789,0.94766 -1.19692,0.11357 -1.63438,0.49663 -1.53579,1.3448 0.0696,0.59898 0.22768,0.70057 1.27015,0.8164 1.18762,0.13196 1.19083,0.13513 1.27198,1.25677 l 0.0814,1.12448 H 111.366 c -1.20171,0 -1.20583,0.003 -1.20583,0.92604 v 0.92604 h 1.5218 1.52181 l 0.64957,1.22445 c 2.19955,4.14619 7.47919,6.38232 12.72166,5.38811 z m -5.49125,-2.21873 c -1.71218,-0.5584 -3.37362,-1.6307 -4.41909,-2.85209 -0.52154,-0.6093 -0.94826,-1.20545 -0.94826,-1.32478 0,-0.11933 0.93881,-0.21696 2.08624,-0.21696 1.90732,0 2.12175,0.0542 2.50026,0.63188 0.81089,1.23757 4.28023,1.54393 6.35181,0.5609 1.0775,-0.51131 1.56861,-1.29183 1.74938,-2.78028 l 0.14461,-1.19062 2.34656,-0.0769 2.34657,-0.0769 -0.18597,1.00294 c -0.26684,1.43904 -1.42796,3.44713 -2.51389,4.34764 -1.84034,1.52611 -3.59049,2.17798 -6.07293,2.26198 -1.41326,0.0478 -2.69125,-0.0605 -3.38529,-0.2868 z m -5.44499,-14.61383 c -0.0912,-0.0912 0.0181,-0.52155 0.24293,-0.9563 0.75995,-1.46958 2.45181,-3.02564 4.13486,-3.80297 1.47326,-0.68043 1.94065,-0.76344 4.29881,-0.76344 2.45596,0 2.7835,0.0645 4.56407,0.89907 1.05502,0.49448 1.91645,0.97073 1.91429,1.05833 -0.002,0.0876 -0.38912,0.60161 -0.8599,1.14224 l -0.85596,0.98296 -1.45521,-0.64161 c -2.7753,-1.22365 -6.12718,-0.69946 -7.76539,1.21441 -0.84537,0.98764 -0.95411,1.03314 -2.46849,1.03314 -0.87129,0 -1.6588,-0.0746 -1.75001,-0.16583 z m 62.05674,15.10832 c 0.36737,-0.36736 0.73313,-0.99244 0.8128,-1.38906 0.28747,-1.43106 -0.12851,-11.00863 -0.50432,-11.61158 -0.70229,-1.12674 -1.39095,-1.17052 -17.16514,-1.09123 l -15.00608,0.0754 -0.63839,0.74235 c -0.63299,0.73609 -0.63838,0.7916 -0.63838,6.5688 v 5.82643 l 0.7734,0.77339 0.77339,0.7734 h 15.4624 15.4624 z m -30.89055,-0.97418 c -0.29105,-0.16337 -0.61665,-0.42628 -0.72356,-0.58424 -0.10691,-0.15795 -0.19621,-2.51286 -0.19844,-5.23313 -0.004,-4.81329 0.0117,-4.95698 0.58399,-5.35781 0.51498,-0.36071 2.40275,-0.41188 15.19464,-0.41188 12.92596,0 14.65446,0.0478 15.02239,0.41578 0.34925,0.34926 0.41577,1.23292 0.41577,5.52385 0,3.7709 -0.0866,5.1764 -0.33073,5.36904 -0.49906,0.39379 -29.28211,0.66121 -29.96406,0.27839 z m 28.64114,-3.02257 c 0.40621,-0.10886 0.59531,-0.35984 0.59531,-0.79014 v -0.6306 h -10.86531 c -6.98376,0 -11.04813,0.0978 -11.37708,0.2739 -0.28147,0.15064 -0.51177,0.50782 -0.51177,0.79375 0,0.5083 0.23952,0.51977 10.78177,0.51624 5.92997,-0.002 11.04966,-0.0754 11.37708,-0.16315 z m -23.49108,-1.66793 c 0.15064,-0.28147 0.27389,-1.31389 0.27389,-2.29427 0,-2.32534 -0.35645,-2.7502 -2.30736,-2.7502 -2.30399,0 -2.45514,0.17079 -2.45514,2.77428 0,2.63813 0.1147,2.76191 2.57038,2.77392 1.35987,0.007 1.69172,-0.0805 1.91823,-0.50373 z m -3.3171,-0.89783 c -0.0806,-0.21007 -0.10928,-0.90157 -0.0637,-1.53669 l 0.0828,-1.15474 h 1.19062 1.19063 v 1.4552 1.45521 l -1.1269,0.0815 c -0.79528,0.0575 -1.17003,-0.0309 -1.27347,-0.30046 z m 27.35491,-2.3607 0.0837,-0.72761 h -10.70079 c -9.14832,0 -10.74818,0.0571 -11.02738,0.39351 -0.17962,0.21642 -0.25696,0.57495 -0.17186,0.79672 0.13573,0.3537 1.47981,0.39473 10.94367,0.3341 l 10.78893,-0.0691 z M 38.836154,143.19077 c 0.497158,-0.49715 0.529482,-0.95218 0.09827,-1.38339 -0.519975,-0.51997 -1.260951,-0.36226 -1.579155,0.33613 -0.523491,1.14893 0.591029,1.93712 1.480881,1.04726 z m 30.15976,-1.06774 c 0.26784,-0.10278 0.41851,-0.48379 0.41851,-1.05833 0,-1.09243 0.58007,-1.20524 1.21496,-0.23628 0.318139,0.48555 0.666849,0.66146 1.311179,0.66146 1.076301,0 1.410961,-0.72146 0.780781,-1.68323 -0.534291,-0.81543 -0.106781,-1.16033 0.72024,-0.58105 0.85607,0.59961 1.95232,0.52061 2.44013,-0.17584 0.60189,-0.85932 0.50528,-1.6852 -0.28262,-2.41577 -0.77547,-0.71906 -0.65326,-1.22953 0.29434,-1.22953 0.83228,0 1.45849,-0.66444 1.45849,-1.54752 0,-0.91069 -0.67926,-1.89206 -1.30961,-1.89206 -0.62096,0 -0.88482,-0.6764 -0.50262,-1.28841 0.41535,-0.66508 -0.36972,-1.80077 -1.40146,-2.02738 -1.00995,-0.22182 -1.808311,-1.49421 -1.820821,-2.90192 -0.009,-0.98807 -0.0352,-1.02424 -0.39786,-0.54474 -0.58977,0.77974 -0.50652,3.10142 0.14071,3.92423 0.630211,0.80119 0.662121,1.23838 0.1407,1.92776 -0.54093,0.71518 -0.49843,1.17408 0.17512,1.89105 0.544651,0.57974 0.552891,0.64534 0.13381,1.06442 -0.41908,0.41908 -0.50784,0.38693 -1.4403,-0.5217 -1.027269,-1.00101 -2.564779,-1.78789 -3.493399,-1.78789 -0.9621,0 -2.65683,0.84034 -3.18193,1.57778 -0.4393,0.61694 -0.47422,0.87304 -0.23648,1.73406 0.15341,0.55562 0.55064,1.44064 0.88274,1.9667 0.33209,0.52607 0.68529,1.43882 0.78489,2.02833 0.37029,2.19177 1.83289,3.62915 3.1705,3.11586 z m -3.66363,-6.86976 c -0.82692,-0.82691 -0.193,-1.70089 1.23371,-1.70089 1.30617,0 1.74941,1.41488 0.58225,1.85863 -0.94212,0.3582 -1.33407,0.32415 -1.81596,-0.15774 z m -17.457591,5.84054 c 0.32787,-0.5004 0.40754,-1.10894 0.32845,-2.50869 -0.11435,-2.02377 -0.35927,-2.45305 -1.39951,-2.45305 -0.98907,0 -1.73087,0.77655 -1.73087,1.81194 0,0.92276 0.74945,1.69379 1.64637,1.69379 0.32526,0 0.47029,0.20399 0.47029,0.66146 0,0.48506 -0.14111,0.66145 -0.52916,0.66145 -0.29398,0 -0.52917,-0.17639 -0.52917,-0.39687 0,-0.22049 -0.23518,-0.39688 -0.52916,-0.39688 -0.58968,0 -0.66381,0.31238 -0.25528,1.07573 0.42172,0.788 1.97407,0.69658 2.52804,-0.14888 z m -1.56721,-2.42615 c -0.28406,-0.28406 -0.20264,-1.36366 0.11778,-1.56169 0.36721,-0.22694 0.75476,0.3557 0.76011,1.14277 0.004,0.56374 -0.49502,0.80179 -0.87789,0.41892 z m 5.64444,0.17639 c 0,-2.57005 -0.017,-2.64558 -0.59531,-2.63703 -0.67039,0.01 -1.78594,0.83518 -1.78594,1.32122 0,0.19777 0.25159,0.27107 0.66146,0.19272 0.65711,-0.12562 0.66146,-0.11362 0.66146,1.82124 0,1.77129 0.0479,1.94768 0.52917,1.94768 0.49389,0 0.52916,-0.17639 0.52916,-2.64583 z m 127.637717,-3.34083 c 0.19164,-0.49943 -0.26913,-1.15709 -0.81071,-1.15709 -0.4505,0 -0.73469,0.64442 -0.52509,1.19063 0.20347,0.53021 1.12837,0.50699 1.3358,-0.0335 z m -12.80855,-9.47257 c 0,-7.6878 -0.0544,-8.89902 -0.41578,-9.26041 -0.22867,-0.22868 -0.5804,-0.41578 -0.78161,-0.41578 -0.33359,0 -7.37952,2.97734 -11.89949,5.02827 -1.01864,0.46221 -2.73703,1.19422 -3.81864,1.62668 -1.0816,0.43247 -3.55215,1.50877 -5.4901,2.39179 l -3.52355,1.60548 v 3.93431 3.93431 h 12.96458 12.96459 z m -2.64584,5.66965 v -1.85208 h -8.99583 -8.99583 v 1.71979 1.71979 h -1.98438 -1.98437 v -2.24896 -2.24896 h 11.50937 11.50938 v 2.38125 c 0,2.20486 -0.0392,2.38125 -0.52917,2.38125 -0.47877,0 -0.52917,-0.17639 -0.52917,-1.85208 z m -19.63568,-1.00669 c 0.36412,-0.5484 0.34693,-0.58081 -0.30809,-0.58081 -0.56955,0 -0.69373,0.12234 -0.69373,0.6835 0,0.79391 0.43619,0.7492 1.00182,-0.10269 z m 0.0584,-3.49123 c 10e-4,-0.0728 2.35281,-1.1321 5.22572,-2.35408 2.87291,-1.22198 7.47119,-3.21628 10.21841,-4.43177 2.74722,-1.21549 5.03918,-2.20998 5.09323,-2.20998 0.0541,0 0.0983,2.02406 0.0983,4.49791 v 4.49792 h -3.60051 -3.6005 l 2.16347,-2.3698 c 1.18992,-1.3034 2.57202,-2.72851 3.07134,-3.16692 0.82044,-0.72036 1.21417,-1.61086 0.70943,-1.60455 -0.10915,0.001 -0.79375,0.34552 -1.52136,0.76479 -1.24711,0.71862 -3.80495,3.18864 -5.56192,5.37098 l -0.78808,0.97887 -5.75488,0.0795 c -3.16519,0.0437 -5.75388,0.0199 -5.75264,-0.0528 z m -82.092156,3.50573 c -0.0501,-1.63584 0.0141,-2.05052 0.31754,-2.05052 0.23993,0 0.51639,0.53694 0.74883,1.45439 0.20266,0.79991 0.41893,1.50483 0.48059,1.56649 0.0617,0.0617 0.41314,-0.1707 0.78107,-0.51635 0.87954,-0.82629 3.58653,-1.05943 4.83069,-0.41605 1.01141,0.52302 1.01864,0.52301 1.219969,-0.002 0.0901,-0.23469 -0.0969,-0.8484 -0.415409,-1.3638 -0.5408,-0.87503 -0.55884,-1.0556 -0.27234,-2.72634 0.30255,-1.76436 0.29687,-1.80059 -0.40895,-2.60495 -0.45197,-0.51513 -0.96709,-0.81576 -1.39768,-0.81576 -0.37505,0 -0.80847,-0.12655 -0.96314,-0.28123 -0.19858,-0.19858 -0.58347,-0.076 -1.30969,0.41713 -0.88228,0.59908 -1.25411,0.68607 -2.61596,0.61195 l -1.5875,-0.0864 -0.1631,1.71979 c -0.0897,0.94589 -0.243981,2.94019 -0.342841,4.43177 l -0.17975,2.71198 h 0.670241 c 0.66501,0 0.66975,-0.016 0.60743,-2.05052 z m 1.20579,-3.11839 c -0.32092,-0.36867 -0.52072,-0.83387 -0.44401,-1.03377 0.20611,-0.53711 1.58044,-1.02567 2.34527,-0.83371 0.88367,0.22179 0.87993,0.95097 -0.005,0.95097 -0.5727,0 -0.66027,0.10565 -0.59531,0.7182 0.1021,0.96281 -0.5492,1.06208 -1.30107,0.19831 z m 111.576176,3.66839 c 0,-0.38872 0.19705,-0.9245 0.43789,-1.19062 0.40746,-0.45024 0.40746,-0.48386 0,-0.48386 -0.37312,0 -0.43789,-0.33267 -0.43789,-2.24896 0,-1.69058 -0.087,-2.24896 -0.35054,-2.24896 -0.48082,0 -3.35362,4.06305 -3.35362,4.74309 0,0.48856 0.15921,0.54858 1.4552,0.54858 1.44051,0 1.45521,0.008 1.45521,0.79375 0,0.52917 0.13229,0.79375 0.39688,0.79375 0.25373,0 0.39687,-0.25492 0.39687,-0.70677 z m -2.23562,-2.41956 c 0.24207,-0.4098 0.66288,-1.03487 0.93512,-1.38906 l 0.49499,-0.64399 0.006,1.38907 0.006,1.38906 h -0.941 -0.941 l 0.44013,-0.74508 z m -94.115176,0.73358 c 0.72323,-0.44093 0.82589,-0.60818 0.56572,-0.92168 -0.50834,-0.61251 -0.11758,-1.22457 0.65759,-1.03001 0.54889,0.13776 0.70961,0.0447 0.93185,-0.53989 0.42155,-1.10875 0.32295,-1.94711 -0.26607,-2.26235 -0.29405,-0.15737 -0.66455,-0.20583 -0.82333,-0.1077 -0.15879,0.0981 -0.39263,0.0143 -0.51965,-0.1862 -0.34332,-0.54203 -0.29366,-0.68551 0.29011,-0.83817 0.39286,-0.10273 0.52917,-0.36089 0.52917,-1.00221 0,-1.14724 -0.65787,-1.83154 -1.7608,-1.83154 -0.84943,0 -0.88503,-0.0407 -0.88503,-1.01221 0,-0.71133 -0.17697,-1.17474 -0.59532,-1.55894 -0.75427,-0.69271 -2.12121,-0.99082 -2.82243,-0.61554 -0.46612,0.24947 -0.6191,0.16479 -1.14,-0.63102 -1.003321,-1.53283 -2.49862,-1.9028 -3.74095,-0.92559 -0.38342,0.30161 -0.69714,0.7084 -0.69714,0.904 0,0.62232 -0.63709,0.6058 -1.40936,-0.0365 -1.4691,-1.22194 -3.8823,-0.43098 -3.8823,1.27247 0,0.78605 -0.0158,0.79513 -1.0735,0.61643 -1.347751,-0.2277 -2.389941,0.18505 -2.977121,1.17908 -0.90158,1.52626 -0.31094,3.71828 1.00189,3.71828 0.48286,0 0.66607,-0.18503 0.8037,-0.81163 0.22772,-1.03681 0.698371,-1.20693 1.840131,-0.66512 1.37718,0.65351 2.4583,0.19805 3.71708,-1.56596 0.36844,-0.51633 0.39429,-0.50831 1.06543,0.33073 0.42929,0.53668 0.92456,0.85989 1.31765,0.85989 0.74635,0 1.977649,-0.52064 1.977649,-0.83622 0,-0.32429 0.73186,-0.27172 0.94159,0.0676 0.0985,0.15936 -0.0785,0.63816 -0.39337,1.064 -0.31484,0.42585 -0.50043,0.89078 -0.41242,1.03318 0.24968,0.40399 1.878741,0.3039 2.245451,-0.13796 0.92967,-1.12018 3.10466,0.29014 3.35772,2.17723 0.10556,0.78717 0.0244,1.31062 -0.27367,1.76558 -0.39905,0.609 -0.3843,0.71721 0.25311,1.85767 0.37226,0.66604 0.81548,1.21054 0.98494,1.21 0.16946,-5.3e-4 0.70572,-0.2434 1.19168,-0.53968 z m -28.640311,-2.2409 c 0.33549,-1.33669 -1.22605,-2.03341 -1.78887,-0.79814 -0.36988,0.8118 0.0743,1.46304 0.99797,1.46304 0.44582,0 0.67167,-0.18987 0.7909,-0.6649 z m 74.191107,-0.14662 c 0,-0.15529 0.41672,-0.67536 0.92605,-1.15572 0.66503,-0.62721 0.92604,-1.10082 0.92604,-1.68038 0,-1.22571 -0.20762,-1.55716 -1.62897,-2.60053 -0.96194,-0.70613 -1.28833,-1.10996 -1.2294,-1.52109 0.0893,-0.62275 1.00628,-0.95608 1.00628,-0.36578 0,0.26111 0.23428,0.33607 0.79375,0.25396 0.54762,-0.0804 0.79375,-0.26542 0.79375,-0.59674 0,-0.57354 -0.68069,-1.31178 -1.20952,-1.31178 -0.20789,0 -0.37798,-0.23813 -0.37798,-0.52917 0,-0.29398 -0.17639,-0.52917 -0.39687,-0.52917 -0.21828,0 -0.39688,0.23011 -0.39688,0.51134 0,0.28124 -0.23943,0.58733 -0.53206,0.68021 -0.68947,0.21883 -1.40471,1.61001 -1.21544,2.36411 0.0812,0.32354 0.81322,1.20772 1.62671,1.96485 1.7111,1.59256 1.82675,2.2847 0.38175,2.2847 -0.7161,0 -0.9142,-0.10356 -0.88567,-0.46302 0.0428,-0.53903 -0.0272,-0.55753 -0.7156,-0.18913 -0.93889,0.50248 -0.49593,2.10736 0.58165,2.10736 0.25213,0 0.534,0.23812 0.62637,0.52917 0.17354,0.54675 0.92604,0.74731 0.92604,0.24681 z m -49.159576,-0.80205 c 0.30568,-0.91754 -0.14983,-2.0906 -0.81181,-2.0906 -0.79736,0 -1.04413,0.98618 -0.56325,2.25099 0.33171,0.87246 1.05923,0.78761 1.37506,-0.16039 z m 56.183066,-0.35878 c 0.49598,-0.49598 0.64943,-0.92914 0.64943,-1.83318 0,-0.65288 -0.16351,-1.34727 -0.3646,-1.54836 -0.30974,-0.30974 -0.30974,-0.43961 0,-0.86321 0.45792,-0.62625 0.47318,-2.26451 0.0268,-2.875 -0.49044,-0.67071 -2.06853,-0.96205 -3.02736,-0.5589 -0.76812,0.32297 -1.13275,0.83892 -1.13275,1.60285 0,0.48912 1.03163,0.48812 1.21939,-0.001 0.41608,-1.08428 1.95561,-0.57233 1.95561,0.65031 0,0.73879 -0.0616,0.78444 -1.05833,0.78444 -1.00894,0 -1.05833,0.0386 -1.05833,0.82682 0,0.7682 0.0536,0.81612 0.75516,0.67579 0.87178,-0.17435 1.3615,0.20053 1.3615,1.04221 0,1.5263 -1.20578,1.98788 -2.00532,0.76764 -0.33922,-0.51773 -0.531,-0.60225 -0.90827,-0.40034 -1.09777,0.58751 0.43499,2.37955 2.03526,2.37955 0.60531,0 1.11619,-0.2138 1.55182,-0.64944 z m -76.700787,-5.3406 c 2.01804,-0.95762 2.88593,-4.59975 1.36551,-5.73041 -0.62905,-0.46779 -0.80536,-0.48936 -1.53383,-0.18762 -0.45269,0.18751 -1.0009,0.6848 -1.21824,1.10508 -0.5178,1.00132 -0.0609,2.04202 1.142,2.6009 1.02393,0.47575 1.06011,0.65412 0.24144,1.19053 -0.70595,0.46255 -1.3828,0.30255 -1.76846,-0.41806 -0.29257,-0.54667 -1.04695,-0.40695 -1.04695,0.1939 0,0.45284 1.16979,1.67946 1.60164,1.67946 0.16652,0 0.71412,-0.1952 1.21689,-0.43378 z m -0.11382,-3.15309 c -0.72421,-0.50726 -0.76117,-1.32894 -0.0763,-1.69549 0.74651,-0.39951 1.02112,-0.34113 1.35823,0.28875 0.21857,0.40841 0.22268,0.73477 0.015,1.19062 -0.33649,0.73852 -0.50986,0.7674 -1.29693,0.21612 z m 62.597737,0.87105 c 0.10531,-0.54678 -0.65849,-0.91522 -1.06162,-0.51209 -0.40312,0.40312 -0.0347,1.16692 0.5121,1.06162 0.25343,-0.0488 0.50072,-0.29609 0.54952,-0.54953 z m 54.50943,-0.29188 c 0.0517,-0.26845 -0.0371,-0.61917 -0.19729,-0.77937 -0.41244,-0.41244 -1.15684,0.37183 -0.9254,0.97496 0.22329,0.58187 0.99899,0.44673 1.12269,-0.19559 z m -25.93959,-2.05334 0.0775,-1.75374 1.6423,-0.31871 c 2.3351,-0.45316 3.67639,-1.11099 5.23189,-2.56599 4.1923,-3.9214 4.22766,-10.88061 0.0725,-14.267809 -1.51079,-1.23157 -3.77429,-2.18634 -5.73326,-2.41834 -0.70573,-0.0836 -1.32221,-0.28297 -1.36994,-0.44307 -0.0477,-0.1601 -0.15832,-1.63054 -0.24576,-3.26765 l -0.15899,-2.97656 h 0.61436 c 0.76447,0 2.81945,1.28068 3.55457,2.21523 l 0.5503,0.6996 2.03283,-2.67877 2.03283,-2.67876 -0.88202,-0.91222 c -1.12284,-1.1613 -4.22558,-2.70423 -5.92313,-2.94545 l -1.30888,-0.18599 -0.1323,-1.188593 -0.13229,-1.188591 h -1.71979 -1.71979 l -0.0783,1.198536 -0.0783,1.198538 -1.50924,0.28845 c -3.36363,0.64287 -5.84159,2.54599 -7.27762,5.58938 -0.74769,1.58456 -0.83992,2.03984 -0.84287,4.16051 -0.003,2.01233 0.10256,2.60695 0.6801,3.83807 0.89079,1.89887 2.11945,3.09819 4.07908,3.98169 1.524,0.687089 1.96063,0.809709 4.16718,1.170229 l 0.99219,0.16212 v 3.42759 3.42759 h -0.93454 c -1.24973,0 -2.57687,-0.58464 -4.32751,-1.90638 l -1.4494,-1.09431 -0.67917,0.88827 c -0.37355,0.48855 -1.24089,1.54956 -1.92744,2.3578 l -1.24827,1.46952 0.98369,1.00864 c 1.94649,1.99587 4.76494,3.28626 8.19566,3.7523 l 1.39114,0.18898 -0.14646,1.83933 -0.14646,1.83933 1.79803,-0.0785 1.79802,-0.0785 z m -0.29798,-8.6091 c -0.097,-0.097 -0.17639,-1.58529 -0.17639,-3.30729 0,-2.9798 0.0262,-3.1309 0.5423,-3.1309 0.82813,0 2.00021,0.69926 2.61184,1.55821 1.08907,1.52945 0.42342,3.76019 -1.37696,4.61453 -1.01565,0.48196 -1.33186,0.53439 -1.60079,0.26545 z M 141.0669,93.576551 c -0.53663,-0.27562 -1.16171,-0.76671 -1.38907,-1.09131 -0.85606,-1.22221 -0.25513,-3.30522 1.16546,-4.03984 1.53273,-0.7926 1.59616,-0.69352 1.59616,2.49345 0,1.59214 -0.0893,2.94971 -0.19844,3.01681 -0.10914,0.0671 -0.63749,-0.10349 -1.17411,-0.37911 z M 90.581123,115.45673 c 0,-0.20271 0.17166,-0.43444 0.38146,-0.51495 0.64873,-0.24894 1.26535,-1.42323 1.07019,-2.0381 -0.0988,-0.31145 -0.59015,-0.73776 -1.09178,-0.94736 -1.00605,-0.42035 -1.38535,-1.03221 -0.92516,-1.4924 0.22191,-0.22191 0.39687,-0.16631 0.68042,0.21622 0.34526,0.46579 0.42153,0.47576 0.799,0.10436 0.37943,-0.37331 0.34872,-0.48742 -0.33815,-1.25677 -0.81035,-0.90765 -1.36973,-1.09114 -1.36973,-0.44931 0,0.21828 -0.11487,0.39688 -0.25528,0.39688 -0.96625,0 -0.72989,2.38317 0.29052,2.92927 0.27981,0.14975 0.44716,0.37192 0.37189,0.49371 -0.0753,0.12179 0.0702,0.20512 0.32332,0.18517 0.29588,-0.0233 0.46017,0.15265 0.46017,0.49289 0,0.66391 -1.10224,0.90214 -1.23439,0.26679 -0.0793,-0.3811 -0.14385,-0.38409 -0.61769,-0.0287 -0.52068,0.39058 -0.51643,0.40943 0.26458,1.17535 0.90082,0.88339 1.19063,0.99704 1.19063,0.46691 z m 28.699677,-4.08029 c 2.17862,-1.02051 4.00634,-1.99109 4.06159,-2.15684 0.1256,-0.37678 -4.18244,-7.94639 -4.52246,-7.94639 -0.13681,0 -1.45658,0.58498 -2.93284,1.29996 -1.47625,0.71497 -4.30401,2.06773 -6.2839,3.00613 -1.97989,0.9384 -3.69573,1.86141 -3.81299,2.05113 -0.27425,0.44374 0.45171,1.02645 4.63467,3.72013 2.7144,1.74798 3.44958,2.10751 4.10104,2.00557 0.43656,-0.0683 2.57626,-0.95918 4.75489,-1.97969 z m -8.4031,-1.31099 -3.11905,-2.04536 3.00078,-1.45521 c 5.62788,-2.72921 7.69479,-3.70052 7.73761,-3.63618 0.60511,0.9094 3.30491,5.56693 3.30491,5.70143 0,0.16844 -7.34854,3.51015 -7.67292,3.48922 -0.0728,-0.005 -1.53586,-0.92895 -3.25133,-2.0539 z m -33.261156,1.69098 c 0,-0.32894 0.48141,-1.24331 1.06981,-2.03194 0.71705,-0.96106 1.04422,-1.65296 0.99219,-2.0983 -0.0713,-0.61031 -0.1851,-0.66443 -1.39692,-0.66443 -1.01963,0 -1.33854,0.0999 -1.404,0.43984 -0.0712,0.36977 0.0863,0.41692 0.98856,0.2959 0.5903,-0.0792 1.07327,-0.0659 1.07327,0.0296 0,0.0954 -0.41842,0.78179 -0.92983,1.52525 -1.0089,1.46668 -1.33353,2.36949 -1.08494,3.0173 0.21853,0.56948 0.69186,0.2184 0.69186,-0.51318 z m 90.090616,-0.69184 c 0,-0.46589 -4.06133,-2.71948 -4.55767,-2.52902 -0.76063,0.29188 -0.23167,0.94981 1.58111,1.96661 1.9402,1.08827 2.97656,1.28408 2.97656,0.56241 z M 67.418224,108.18965 c 0.34054,-1.07295 -0.77729,-2.02278 -1.58837,-1.34965 -0.39452,0.32742 -0.52221,1.35073 -0.20779,1.66516 0.39033,0.39032 1.64192,0.17047 1.79616,-0.31551 z m 35.715576,-4.32948 c 0.59083,-0.84354 0.57264,-4.352019 -0.026,-5.013519 -0.62909,-0.69513 -2.07058,-0.63714 -2.58983,0.10419 -0.47428,0.67712 -0.552217,2.468989 -0.11904,2.736709 0.20852,0.12887 0.199,0.23897 -0.0331,0.3824 -0.422307,0.261 -0.419777,1.46977 0.004,1.98057 0.52652,0.63442 2.27022,0.51433 2.7638,-0.19035 z m -2.00314,-0.51803 c -0.0186,-0.0465 -0.0618,-0.35244 -0.0962,-0.67986 -0.052,-0.49623 0.0668,-0.59532 0.71363,-0.59532 0.65343,0 0.76267,0.0941 0.69147,0.59532 -0.0543,0.38257 -0.29728,0.62552 -0.67986,0.67986 -0.32742,0.0465 -0.6105,0.0465 -0.62907,0 z m 0.0616,-2.43227 c -0.31156,-0.37541 -0.13076,-1.224839 0.32575,-1.530409 0.77446,-0.51838 1.35138,0.876709 0.65184,1.576249 -0.4095,0.4095 -0.60739,0.40023 -0.97759,-0.0458 z m 64.9478,0.71803 c -0.085,-0.22149 0.11192,-0.4866 0.48906,-0.65844 0.34723,-0.15821 0.84403,-0.68261 1.10399,-1.165329 0.77103,-1.4317 0.31571,-2.60309 -1.61347,-4.15102 -1.67582,-1.34462 -1.96428,-1.8363 -1.44466,-2.4624 0.41641,-0.50174 1.57695,-0.50388 1.57695,-0.003 0,0.52315 0.43062,0.74401 1.0607,0.54403 0.79341,-0.25181 0.63681,-1.10282 -0.39924,-2.16961 -0.50933,-0.52444 -0.92604,-1.05432 -0.92604,-1.17751 0,-0.38889 -0.80335,-0.24229 -0.96381,0.17588 -0.0844,0.21993 -0.55691,0.80333 -1.05003,1.29645 -0.73442,0.73443 -0.89658,1.09757 -0.89658,2.00784 0,1.16205 0.49556,1.80328 2.63186,3.40547 0.67621,0.50714 0.82104,0.78596 0.75595,1.45521 -0.0734,0.7544 -0.16269,0.82786 -1.00656,0.82786 -0.70657,0 -0.98794,-0.14109 -1.18722,-0.59531 -0.30243,-0.68933 -0.72692,-0.76127 -1.19118,-0.20187 -0.54909,0.66161 -0.0909,1.713419 0.93261,2.141089 0.50414,0.21064 0.91662,0.55006 0.91662,0.75426 0,0.2042 0.14883,0.42319 0.33073,0.48664 0.53039,0.18501 1.03491,-0.10747 0.88032,-0.51033 z m -47.04231,-2.507659 c 3.47563,-0.31025 4.84981,-0.7312 4.06857,-1.2463 -0.19547,-0.12888 -0.85031,-0.18831 -1.45521,-0.13206 -5.22517,0.48586 -8.72136,0.87824 -8.83463,0.99151 -0.0747,0.0747 -0.061,0.33058 0.0304,0.56871 0.1337,0.34841 0.41133,0.40355 1.42175,0.28236 0.69059,-0.0828 2.8367,-0.29172 4.76914,-0.46422 z m -11.36944,-5.43622 c 0.11185,-1.15459 -0.68955,-1.61674 -1.56887,-0.90471 -0.54318,0.43984 -0.57476,0.57237 -0.28691,1.20414 0.25491,0.55947 0.47716,0.6922 1.04882,0.62639 0.6002,-0.0691 0.73944,-0.22884 0.80696,-0.92582 z m 16.92424,-1.1593 c 0.0942,-0.48895 -3.67604,-2.24542 -4.30317,-2.00476 -0.77844,0.29871 -0.37658,0.72593 1.51869,1.61457 2.0435,0.95815 2.65851,1.04433 2.78448,0.39019 z m 1.21023,-7.93677 c 2.48151,-3.15149 2.89189,-4.165572 2.11076,-5.215904 -0.40738,-0.547793 -0.8006,-0.740283 -1.63891,-0.802304 -0.92945,-0.06876 -1.227,0.04247 -1.89178,0.70725 -0.61742,0.617424 -0.78885,1.023263 -0.78885,1.867538 0,1.14428 0.68817,2.13702 1.48139,2.13702 0.2828,0 -0.0242,0.51631 -0.92604,1.55728 -0.742,0.8565 -1.3491,1.74947 -1.3491,1.98437 0,1.02367 1.05465,0.23853 3.00253,-2.23525 z m -0.73382,-2.87208 c -0.62423,-0.68977 -0.43365,-1.640395 0.42519,-2.12087 0.64778,-0.3624 0.75715,-0.353846 1.25677,0.09831 0.68729,0.621985 0.68708,0.957861 -10e-4,1.83277 -0.65166,0.82845 -1.06102,0.87467 -1.68084,0.18979 z m 36.9342,1.17664 c 0.22772,-0.49979 0.21876,-0.74888 -0.0381,-1.05834 -0.62385,-0.75168 -1.85859,-0.31745 -1.85859,0.65363 0,1.11839 1.43224,1.424 1.89666,0.40471 z m -26.859,-4.781211 c 0.19955,-0.520012 -2.67538,-4.883917 -3.21751,-4.883917 -0.72139,0 -0.41096,0.907127 1.06468,3.111208 1.4702,2.195944 1.86551,2.521458 2.15283,1.772709 z m 14.03502,-3.564039 c 0.32012,-0.944214 0.58802,-2.044175 0.59531,-2.444358 0.0206,-1.129542 -0.68103,-0.884429 -1.13603,0.396875 -1.12964,3.18112 -1.23589,3.992777 -0.50435,3.85282 0.30418,-0.05819 0.66269,-0.677522 1.04507,-1.805337 z m -7.52572,-0.1575 c -0.0875,-2.115345 -0.26498,-2.749878 -0.76908,-2.749878 -0.365,0 -0.40864,0.28038 -0.30208,1.940822 0.13203,2.0573 0.33136,2.652675 0.82918,2.476668 0.19574,-0.06921 0.28317,-0.671785 0.24198,-1.667612 z M -22.79286,199.65475 c -1.789393,-0.98724 -3.300198,-3.48026 -3.304707,-5.45319 -0.0024,-0.98888 -0.09389,-1.16574 -0.729017,-1.40722 -1.189805,-0.45236 -2.393797,-1.50739 -3.104847,-2.72072 -0.52656,-0.89851 -0.90613,-1.21102 -1.79184,-1.47528 -1.61572,-0.48207 -2.57896,-1.02782 -2.57896,-1.46117 0,-0.49675 1.43028,-1.56963 3.04434,-2.28361 1.80552,-0.79866 4.702256,-0.85601 5.268605,-0.10431 0.219276,0.29105 1.426191,1.928 2.682036,3.63769 l 2.283351,3.10852 0.24107,2.44773 c 0.132588,1.34625 0.315209,3.07219 0.405821,3.83542 0.111485,0.93903 0.05789,1.51646 -0.165759,1.78594 -0.385231,0.46418 -1.491853,0.50854 -2.250093,0.0902 z m 17.887475,-8.76399 c -0.493868,-0.15771 -1.6003,-0.93701 -2.458736,-1.73177 -1.21631,-1.12609 -1.815541,-1.97659 -2.715003,-3.85342 -1.116555,-2.32983 -1.13884,-2.42566 -0.68318,-2.93757 0.776729,-0.8726 1.066318,-1.62579 1.066318,-2.77336 0,-1.53187 -0.847778,-2.24927 -3.26636,-2.76404 -1.041157,-0.2216 -2.245493,-0.43556 -2.6763,-0.47546 -0.569397,-0.0527 -0.82227,-0.23938 -0.926042,-0.68348 -0.186828,-0.79953 -0.590727,-0.80793 -1.002197,-0.0209 -0.181652,0.34748 -0.479308,0.58746 -0.661458,0.53331 -0.182152,-0.0542 -2.891028,-0.0825 -6.019726,-0.0629 -4.379932,0.0274 -6.145032,-0.0638 -7.672912,-0.39618 -1.09141,-0.23744 -2.08859,-0.52765 -2.21597,-0.64491 -0.48853,-0.44973 0.14461,-2.03737 1.42218,-3.56622 0.72677,-0.86971 2.06589,-2.50934 2.97582,-3.64361 l 1.654424,-2.06231 1.719792,0.16005 c 2.939899,0.27359 9.042201,1.19078 10.928413,1.64257 1.649701,0.39513 1.906725,0.55454 3.072717,1.90577 2.329857,2.69998 7.397115,10.3141 7.824726,11.75751 1.233266,4.16293 2.251226,8.03064 2.251226,8.55346 0,0.39337 -0.266163,0.73452 -0.780611,1.00055 -0.429336,0.22202 -0.81629,0.39152 -0.859895,0.37666 -0.04361,-0.0149 -0.48336,-0.15605 -0.977226,-0.31377 z"
       id="path316" /></g></svg>
