<?xml version="1.0" encoding="UTF-8" standalone="no"?>
<!-- Created with Inkscape (http://www.inkscape.org/) -->

<svg
   width="1310"
   height="952"
   xml:space="preserve"
   xmlns="http://www.w3.org/2000/svg"
   >
  <g>
    <path
       style="fill:#00CECE;stroke-width:2.53968"
       d="m 6.9996849,950.90401 c -5.63367,-1.0128 -6.75034001,-2.3326 -5.75476,-6.8017 0.6794,-3.0498 5.19339,-23.2593 10.0310901,-44.9101 4.8377,-21.6508 24.21392,-111.9365 43.05826,-200.6349 C 210.8824,-38.29893 201.35102,5.4154902 206.12492,2.3900402 c 4.20542,-2.66516997 207.14439,-2.99652997 208.6317,-0.34065 0.5867,1.04762 -0.77442,11.0476198 -3.02471,22.2222198 l -4.0914,20.31746 -34.28571,1.72793 c -18.85715,0.95036 -56.66149,1.07027 -84.00966,0.26647 l -49.72394,-1.46146 -6.98648,35.28908 c -3.84257,19.409 -29.17842,139.28909 -56.3019,266.40019 C 115.04234,634.04216 92.863125,738.59921 73.973865,829.35091 l -14.80122,71.1111 10.42441,1.7166 c 5.73343,0.944 38.995835,1.9364 73.916465,2.2052 67.6997,0.5211 79.00783,1.6176 78.26905,7.5892 -1.31204,10.6052 -6.28176,32.0776 -8.09504,34.9757 -1.62895,2.6036 -23.21089,3.5153 -100.88504,4.2621 -54.347025,0.5225 -101.958285,0.3844 -105.8028051,-0.3068 z m 918.3048051,-0.274 -30.90743,-0.7972 6.14552,-22.9639 c 3.38007,-12.6301 6.14555,-23.278 6.14555,-23.6618 0,-0.3839 36.57143,-0.1423 81.26985,0.5368 44.69842,0.6792 81.26992,0.6092 81.26992,-0.1556 0,-0.7648 4.6518,-21.7811 10.3374,-46.7029 16.8867,-74.0195 43.8695,-198.79287 65.8312,-304.41486 11.3208,-54.44591 32.4649,-153.84974 46.9869,-220.89736 36.1676,-166.9841 59.7016,-278.27563 59.7016,-282.32729 0,-2.74957 -14.7253,-3.38699 -78.2447,-3.38699 -59.9098,0 -79.2954,-0.76825 -82.7284,-3.27851 -4.2557,-3.11183 -4.1835,-4.17706 1.4193,-20.95238 l 5.903,-17.6738698 29.2064,-2.01829 c 31.8701,-2.20235997 179.204,-1.21147997 181.6371,1.22158 0.8276,0.82756 -0.2486,8.2706998 -2.3915,16.5403198 -5.1338,19.81231 -90.9385,421.2659 -139.9392,654.73255 -28.2487,134.5923 -56.8276,268.1255 -58.567,273.6508 -1.2964,4.118 -6.9356,4.4041 -76.7836,3.8953 -41.46146,-0.302 -89.2928,-0.9079 -106.29191,-1.3464 z M 295.63551,808.45061 c 0.88947,-7.5681 3.15804,-17.4478 5.04127,-21.955 3.34702,-8.0106 4.1381,-8.3428 35.18014,-14.7752 17.46588,-3.6191 34.62529,-8.4602 38.13203,-10.7579 8.51297,-5.5779 20.48828,-28.7923 27.06068,-52.4576 5.88434,-21.1878 83.71299,-388.21771 91.73574,-432.61398 7.02393,-38.86902 6.7852,-42.46625 -3.22092,-48.53207 -14.17191,-8.59115 -17.82504,-9.57437 -41.28902,-11.1126 l -22.85714,-1.49846 0.90984,-21.5873 c 0.50039,-11.87302 1.53895,-22.62881 2.30783,-23.90175 0.83444,-1.38142 71.27317,-1.67601 174.72897,-0.73074 161.18093,1.47269 175.12473,1.94925 198.92054,6.79853 115.9871,23.63666 182.04569,93.05346 195.7524,205.70384 11.41583,93.82237 -19.72858,213.58905 -76.09305,292.61803 -18.92737,26.5381 -58.11403,65.101 -82.55827,81.2439 -26.73212,17.6539 -61.21773,34.0831 -95.84016,45.659 -56.47891,18.8835 -34.16906,17.5983 -360.97097,20.7935 l -88.55713,0.8659 z m 346.95479,-52.278 c 43.58857,-11.2269 68.98151,-25.3112 101.2891,-56.1806 45.58974,-43.56027 75.87476,-101.01903 91.86826,-174.29865 10.60366,-48.58417 12.42212,-146.39583 3.44371,-185.23128 -5.71215,-24.70761 -21.83045,-55.85346 -37.87088,-73.17902 -15.54906,-16.79485 -39.65374,-30.91533 -63.75541,-37.34782 -19.6161,-5.23534 -76.81716,-8.05535 -84.11979,-4.1471 -6.76513,3.62058 -4.60534,-5.67134 -62.66383,269.59457 -53.32101,252.8046 -55.48122,263.6505 -53.23537,267.2843 3.15901,5.1114 77.93325,0.4885 105.04421,-6.4944 z"/>
  </g>
</svg>
