<svg width="191" height="40" viewBox="0 0 911 179" fill="none" xmlns="http://www.w3.org/2000/svg">
<path d="M869.907 0L868.002 8.96066H899.02L864.806 169.662H833.787L831.882 178.622H872.066L910.092 0H869.907Z" fill="#E7322B"/>
<path d="M42.2224 169.662H11.0712L45.2857 8.96066H76.4369L78.3424 0H38.0255L0 178.622H40.3169L42.2224 169.662Z" fill="#E7322B"/>
<path d="M129.55 104.802L120.215 121.976C118.961 124.279 118.056 126.306 117.465 128.042C116.875 129.791 116.573 131.347 116.573 132.709C116.573 135.073 117.441 136.81 119.19 137.883C120.927 138.969 123.64 139.511 127.306 139.511H131.13L128.983 149.678H79.3314L81.3816 139.511H85.3976C87.1463 139.511 88.678 139.318 90.0166 138.908C91.3553 138.51 92.6457 137.739 93.8879 136.617C95.1301 135.495 96.4206 133.976 97.7592 132.046C99.0979 130.117 100.63 127.656 102.378 124.677L167.25 13.2421H193.384L209.436 125.787C209.749 127.777 210.159 129.61 210.69 131.298C211.221 132.975 211.92 134.422 212.789 135.64C213.657 136.858 214.754 137.799 216.105 138.486C217.444 139.174 219.108 139.511 221.098 139.511H224.547L222.497 149.678H159.41L161.461 139.511H165.851C169.951 139.511 173.219 138.872 175.655 137.594C178.08 136.327 179.298 134.277 179.298 131.479C179.298 130.418 179.261 129.381 179.201 128.356C179.141 127.331 179.044 126.354 178.924 125.413L176.029 104.79H129.55V104.802ZM171.266 61.0363C170.952 58.2383 170.663 55.6092 170.373 53.149C170.096 50.6887 169.842 48.3129 169.625 46.0094C169.408 43.7059 169.215 41.4748 169.071 39.2919C168.914 37.1211 168.805 34.8779 168.745 32.5744C167.816 34.8779 166.876 37.0125 165.947 38.9663C165.018 40.9321 164.017 42.922 162.956 44.936C161.895 46.9621 160.725 49.1088 159.459 51.3761C158.18 53.6555 156.709 56.2725 155.021 59.2634L136.074 93.1403H174.715L171.266 61.0363Z" fill="#E7322B"/>
<path d="M330.664 108.625C330.483 109.554 330.206 110.881 329.868 112.593C329.518 114.306 329.193 116.091 328.891 117.96C328.578 119.829 328.312 121.662 328.095 123.471C327.878 125.28 327.77 126.776 327.77 127.946C327.77 130.937 328.457 133.119 329.82 134.482C331.183 135.857 332.738 136.532 334.487 136.532C336.103 136.532 337.888 136.098 339.854 135.23C341.82 134.362 343.568 133.457 345.124 132.528L349.321 139.994C347.645 141.369 345.739 142.731 343.629 144.094C341.506 145.469 339.19 146.711 336.67 147.833C334.149 148.954 331.424 149.847 328.505 150.534C325.575 151.222 322.463 151.559 319.171 151.559C316.373 151.559 313.816 151.234 311.512 150.582C309.209 149.931 307.231 148.978 305.591 147.736C303.939 146.494 302.66 144.926 301.768 143.021C300.863 141.127 300.417 138.908 300.417 136.352C300.417 135.17 300.441 134.108 300.514 133.18C300.574 132.251 300.658 131.335 300.743 130.43C300.839 129.538 300.96 128.561 301.117 127.536C301.273 126.51 301.478 125.317 301.72 123.942H300.598C298.234 128.862 295.75 133.059 293.133 136.544C290.516 140.03 287.73 142.888 284.775 145.131C281.821 147.374 278.649 149.003 275.26 150.028C271.871 151.053 268.217 151.571 264.297 151.571C259.377 151.571 255.168 150.643 251.646 148.773C248.125 146.904 245.23 144.384 242.963 141.212C240.684 138.04 239.031 134.337 237.97 130.104C236.909 125.871 236.378 121.397 236.378 116.669C236.378 111.689 236.945 106.491 238.103 101.04C239.248 95.6004 240.961 90.2337 243.24 84.9393C245.508 79.657 248.305 74.6158 251.634 69.8159C254.963 65.028 258.798 60.8311 263.164 57.2131C267.517 53.6071 272.353 50.7248 277.672 48.5781C282.99 46.4314 288.791 45.358 295.075 45.358C298.813 45.358 302.287 45.7681 305.531 46.5761C308.763 47.3841 311.621 48.5057 314.117 49.9409C314.298 49.1328 314.491 48.1801 314.672 47.0947C314.853 46.0093 315.058 44.9239 315.275 43.8264C315.492 42.741 315.709 41.7159 315.926 40.7511C316.144 39.7863 316.312 39.0265 316.445 38.4596L318.121 30.8015C318.302 29.9935 318.495 29.1613 318.676 28.2809C318.857 27.4126 319.014 26.5925 319.147 25.8086C319.267 25.0367 319.364 24.3614 319.424 23.8066C319.484 23.2519 319.52 22.8418 319.52 22.5885C319.52 20.8519 319.34 19.4529 318.966 18.3916C318.592 17.3303 318.001 16.5223 317.193 15.9676C316.385 15.4128 315.324 15.0389 314.021 14.846C312.719 14.653 311.163 14.5686 309.354 14.5686H304.964L306.737 4.48633H352.746L330.628 108.637L330.664 108.625ZM265.431 116.838C265.431 120.444 265.696 123.495 266.227 125.98C266.757 128.476 267.469 130.478 268.374 131.998C269.266 133.529 270.363 134.627 271.642 135.314C272.908 136.002 274.307 136.339 275.79 136.339C278.588 136.339 281.471 135.121 284.426 132.697C287.38 130.273 290.166 127.101 292.783 123.182C295.4 119.262 297.74 114.812 299.826 109.831C301.913 104.851 303.517 99.7853 304.638 94.6236L311.356 62.8934C309.981 61.1568 308.124 59.8301 305.76 58.9256C303.396 58.0332 301.056 57.5749 298.765 57.5749C295.159 57.5749 291.818 58.5518 288.779 60.5176C285.728 62.4834 282.978 65.0642 280.518 68.2602C278.058 71.4681 275.887 75.1344 273.981 79.271C272.076 83.4077 270.508 87.6649 269.266 92.0547C268.012 96.4446 267.071 100.798 266.42 105.116C265.769 109.445 265.443 113.341 265.443 116.826L265.431 116.838Z" fill="#E7322B"/>
<path d="M374.056 67.4643C373.682 65.4744 373.14 63.8221 372.428 62.5196C371.717 61.2171 370.812 60.192 369.727 59.4443C368.641 58.6966 367.351 58.178 365.855 57.8524C364.36 57.5388 362.684 57.382 360.814 57.382H358.945L361.188 47.2154H398.707L407.475 103.765C408.403 110.241 409.079 116.006 409.477 121.071C409.875 126.149 410.237 130.261 410.55 133.433H411.105C415.459 128.959 419.631 124.135 423.611 118.973C427.591 113.811 431.1 108.625 434.152 103.44C437.191 98.2537 439.627 93.2126 441.436 88.3162C443.233 83.4319 444.137 79.0299 444.137 75.1104C444.137 70.817 442.919 67.6814 440.495 65.6794C438.071 63.6895 435.08 62.6885 431.535 62.6885C431.535 57.4665 432.958 53.2937 435.828 50.1822C438.686 47.0706 442.546 45.5149 447.406 45.5149C449.396 45.5149 451.265 45.8405 453.002 46.4918C454.738 47.143 456.27 48.1922 457.572 49.6153C458.875 51.0505 459.9 52.8836 460.648 55.1268C461.395 57.37 461.769 60.0714 461.769 63.2432C461.769 68.2241 460.961 73.4099 459.345 78.8249C457.729 84.2399 455.595 89.6669 452.953 95.106C450.3 100.557 447.273 105.9 443.86 111.158C440.435 116.416 436.901 121.397 433.271 126.088C429.629 130.792 426.035 135.146 422.49 139.15C418.944 143.153 415.712 146.603 412.781 149.461L387.588 151.33L374.056 67.4281V67.4643Z" fill="#E7322B"/>
<path d="M525.808 47.2152L512.554 109.373C511.807 112.858 511.18 116.115 510.685 119.13C510.179 122.157 509.937 125.003 509.937 127.668C509.937 130.333 510.504 132.613 511.662 134.108C512.808 135.604 514.448 136.351 516.558 136.351C518.548 136.351 520.381 135.978 522.07 135.23C523.746 134.482 525.676 133.397 527.859 131.962L532.429 138.402C530.934 140.018 529.221 141.622 527.292 143.214C525.362 144.806 523.191 146.217 520.755 147.459C518.331 148.713 515.666 149.702 512.771 150.45C509.877 151.197 506.693 151.571 503.208 151.571C495.863 151.571 490.231 149.847 486.312 146.398C482.392 142.948 480.426 138.136 480.426 131.974C480.426 129.236 480.667 125.968 481.174 122.169C481.668 118.382 482.44 114.052 483.502 109.192L490.967 73.6389C491.148 72.8309 491.329 71.9987 491.485 71.1184C491.642 70.25 491.775 69.4299 491.908 68.646C492.028 67.8742 492.125 67.1988 492.185 66.6441C492.245 66.0893 492.281 65.6792 492.281 65.426C492.281 63.6893 492.1 62.2904 491.727 61.2291C491.353 60.1678 490.762 59.3598 489.954 58.805C489.146 58.2502 488.097 57.8764 486.83 57.6834C485.552 57.5025 484.008 57.406 482.211 57.406H478.762L480.438 47.2393H525.796L525.808 47.2152ZM512.554 30.0416C510.432 30.0416 508.478 29.8125 506.669 29.3422C504.86 28.8718 503.292 28.1482 501.954 27.1472C500.615 26.1583 499.554 24.904 498.782 23.4086C497.998 21.9131 497.612 20.1765 497.612 18.1866C497.612 15.3886 498.094 13.0128 499.059 11.047C500.024 9.08118 501.314 7.47719 502.93 6.19881C504.546 4.9325 506.44 3.99182 508.623 3.40087C510.794 2.80993 513.073 2.50842 515.437 2.50842C517.487 2.50842 519.429 2.72551 521.274 3.15967C523.107 3.59383 524.723 4.31744 526.122 5.30637C527.521 6.30736 528.643 7.56161 529.487 9.08118C530.331 10.6128 530.741 12.4339 530.741 14.5444C530.741 17.1614 530.222 19.4408 529.197 21.4066C528.172 23.3724 526.797 24.9885 525.097 26.2548C523.384 27.5331 521.443 28.4859 519.26 29.101C517.077 29.7281 514.834 30.0296 512.542 30.0296L512.554 30.0416Z" fill="#E7322B"/>
<path d="M578.161 140.175C580.778 140.175 583.203 139.849 585.446 139.198C587.689 138.547 589.606 137.606 591.235 136.4C592.851 135.182 594.129 133.698 595.058 131.925C595.986 130.153 596.457 128.115 596.457 125.811C596.457 123.64 596.034 121.711 595.202 120.022C594.358 118.346 593.056 116.778 591.283 115.307C589.51 113.847 587.267 112.4 584.565 110.965C581.864 109.542 578.644 107.926 574.905 106.117C571.167 104.38 567.79 102.511 564.775 100.521C561.748 98.5311 559.191 96.3241 557.08 93.9C554.958 91.4759 553.33 88.7624 552.184 85.7835C551.026 82.7926 550.459 79.4399 550.459 75.7013C550.459 71.034 551.448 66.8371 553.45 63.0985C555.44 59.3598 558.298 56.176 562.037 53.5348C565.776 50.8936 570.298 48.8675 575.617 47.4686C580.935 46.0696 586.953 45.3701 593.671 45.3701C600.388 45.3701 605.502 45.8766 609.952 46.8656C614.402 47.8666 618.008 49.1811 620.782 50.8333C623.544 52.4856 625.546 54.4031 626.752 56.574C627.97 58.7568 628.573 61 628.573 63.2914C628.573 68.3929 626.607 72.0953 622.687 74.3988C618.768 76.7023 613.413 77.848 606.635 77.848C606.635 75.3033 606.382 72.7345 605.888 70.1536C605.381 67.5728 604.549 65.2211 603.367 63.1105C602.185 61 600.666 59.2875 598.796 57.9729C596.927 56.6704 594.623 56.0071 591.886 56.0071C589.389 56.0071 587.17 56.3689 585.217 57.0805C583.251 57.792 581.574 58.7568 580.175 59.9749C578.776 61.193 577.703 62.604 576.955 64.2201C576.208 65.8361 575.834 67.5848 575.834 69.4421C575.834 71.5647 576.256 73.3978 577.088 74.9536C577.932 76.5093 579.235 77.9806 581.008 79.3434C582.78 80.7183 585.036 82.069 587.773 83.4077C590.511 84.7464 593.743 86.2539 597.482 87.9302C601.582 89.7996 605.14 91.7774 608.119 93.8517C611.11 95.9381 613.582 98.2054 615.536 100.666C617.501 103.126 618.949 105.803 619.926 108.686C620.89 111.58 621.373 114.8 621.373 118.346C621.373 123.52 620.396 128.151 618.43 132.251C616.464 136.352 613.534 139.849 609.614 142.707C605.695 145.565 600.846 147.76 595.058 149.292C589.269 150.812 582.551 151.583 574.905 151.583C569.43 151.583 564.461 151.113 560.023 150.185C555.573 149.256 551.774 147.881 548.638 146.084C545.491 144.287 543.066 142.068 541.354 139.463C539.641 136.846 538.785 133.903 538.785 130.599C538.785 127.608 539.376 125.087 540.558 123.037C541.74 120.987 543.272 119.323 545.177 118.044C547.07 116.778 549.253 115.837 551.714 115.246C554.174 114.655 556.67 114.354 559.227 114.354C559.227 117.779 559.565 121.047 560.252 124.159C560.94 127.27 562.025 130.032 563.52 132.42C565.016 134.82 566.958 136.713 569.358 138.112C571.745 139.511 574.688 140.211 578.173 140.211L578.161 140.175Z" fill="#E7322B"/>
<path d="M691.744 47.2152L678.49 109.373C677.742 112.858 677.115 116.115 676.62 119.13C676.114 122.157 675.872 125.003 675.872 127.668C675.872 130.333 676.439 132.613 677.597 134.108C678.743 135.604 680.383 136.351 682.493 136.351C684.483 136.351 686.316 135.978 688.005 135.23C689.681 134.482 691.611 133.397 693.794 131.962L698.365 138.402C696.869 140.018 695.157 141.622 693.227 143.214C691.297 144.806 689.127 146.217 686.69 147.459C684.266 148.713 681.601 149.702 678.707 150.45C675.812 151.197 672.628 151.571 669.143 151.571C661.798 151.571 656.166 149.847 652.247 146.398C648.327 142.948 646.361 138.136 646.361 131.974C646.361 129.236 646.603 125.968 647.109 122.169C647.604 118.382 648.375 114.052 649.437 109.192L656.902 73.6389C657.083 72.8309 657.264 71.9987 657.42 71.1184C657.577 70.25 657.71 69.4299 657.843 68.646C657.963 67.8742 658.06 67.1988 658.12 66.6441C658.18 66.0893 658.216 65.6792 658.216 65.426C658.216 63.6893 658.036 62.2904 657.662 61.2291C657.288 60.1678 656.697 59.3598 655.889 58.805C655.081 58.2502 654.032 57.8764 652.765 57.6834C651.487 57.5025 649.943 57.406 648.146 57.406H644.697L646.373 47.2393H691.731L691.744 47.2152ZM678.49 30.0416C676.367 30.0416 674.413 29.8125 672.604 29.3422C670.795 28.8718 669.227 28.1482 667.889 27.1472C666.55 26.1583 665.489 24.904 664.717 23.4086C663.933 21.9131 663.547 20.1765 663.547 18.1866C663.547 15.3886 664.029 13.0128 664.994 11.047C665.959 9.08118 667.249 7.47719 668.866 6.19881C670.482 4.9325 672.375 3.99182 674.558 3.40087C676.729 2.80993 679.008 2.50842 681.372 2.50842C683.422 2.50842 685.364 2.72551 687.209 3.15967C689.042 3.59383 690.658 4.31744 692.057 5.30637C693.456 6.30736 694.578 7.56161 695.422 9.08118C696.266 10.6128 696.676 12.4339 696.676 14.5444C696.676 17.1614 696.158 19.4408 695.132 21.4066C694.107 23.3724 692.732 24.9885 691.032 26.2548C689.319 27.5331 687.378 28.4859 685.195 29.101C683.012 29.7281 680.769 30.0296 678.477 30.0296L678.49 30.0416Z" fill="#E7322B"/>
<path d="M709.098 111.423C709.098 106.635 709.653 101.691 710.774 96.5893C711.896 91.4879 713.584 86.483 715.864 81.5624C718.131 76.654 720.977 71.9988 724.402 67.6089C727.815 63.219 731.855 59.3839 736.486 56.0794C741.118 52.787 746.376 50.17 752.261 48.2404C758.146 46.3108 764.659 45.3459 771.81 45.3459C777.286 45.3459 782.448 46.1057 787.308 47.6374C792.156 49.169 796.389 51.5448 799.995 54.7769C803.601 58.0091 806.459 62.1698 808.582 67.235C810.692 72.3123 811.754 78.3906 811.754 85.482C811.754 90.0889 811.223 94.913 810.162 99.942C809.1 104.983 807.472 109.94 805.265 114.824C803.058 119.709 800.26 124.376 796.871 128.826C793.482 133.276 789.479 137.184 784.884 140.536C780.277 143.901 775.055 146.578 769.205 148.556C763.356 150.546 756.82 151.547 749.608 151.547C743.638 151.547 738.163 150.715 733.182 149.075C728.201 147.435 723.944 144.938 720.398 141.61C716.853 138.281 714.079 134.096 712.089 129.055C710.099 124.014 709.098 118.141 709.098 111.411V111.423ZM753.057 137.835C756.47 137.835 759.569 136.858 762.343 134.892C765.105 132.926 767.602 130.358 769.808 127.15C772.015 123.942 773.921 120.287 775.549 116.187C777.165 112.087 778.492 107.853 779.517 103.5C780.542 99.1461 781.314 94.8647 781.844 90.6678C782.375 86.4709 782.64 82.684 782.64 79.3313C782.64 71.8058 781.35 66.3908 778.769 63.0984C776.188 59.806 772.655 58.1538 768.18 58.1538C764.948 58.1538 761.957 59.0824 759.22 60.9517C756.482 62.821 754.01 65.3054 751.803 68.4169C749.596 71.5284 747.654 75.0862 745.966 79.1022C744.289 83.1182 742.866 87.2669 741.721 91.5603C740.563 95.8537 739.719 100.135 739.152 104.392C738.597 108.661 738.308 112.557 738.308 116.103C738.308 123.881 739.61 129.453 742.227 132.806C744.844 136.171 748.45 137.847 753.057 137.847V137.835Z" fill="#E7322B"/>
</svg>
