<svg width="191" height="40" viewBox="0 0 191 40" fill="none" xmlns="http://www.w3.org/2000/svg">
<path d="M182.388 2.79071L182.005 4.55738H188.125L181.368 36.2117H175.266L174.884 37.9784H182.806L190.292 2.79071H182.388Z" fill="white"/>
<path d="M8.32337 36.2117H2.18557L8.9244 4.55738H15.0622L15.4265 2.79071H7.48557L0 37.9784H7.9409L8.32337 36.2117Z" fill="white"/>
<path d="M166.539 31.4721C167.002 31.4721 167.432 31.417 167.828 31.3068C168.225 31.1856 168.567 31.0204 168.853 30.811C169.14 30.5907 169.365 30.3262 169.531 30.0177C169.696 29.6982 169.779 29.3346 169.779 28.9269C169.779 28.5413 169.701 28.1998 169.547 27.9023C169.404 27.6048 169.173 27.3293 168.853 27.0759C168.545 26.8115 168.148 26.5526 167.663 26.2992C167.189 26.0457 166.622 25.7593 165.961 25.4398C165.3 25.1313 164.699 24.8007 164.159 24.4481C163.631 24.0956 163.179 23.7044 162.804 23.2747C162.43 22.845 162.138 22.3658 161.928 21.8369C161.73 21.308 161.631 20.7131 161.631 20.052C161.631 19.2256 161.807 18.4819 162.16 17.8208C162.512 17.1598 163.019 16.5978 163.68 16.1351C164.341 15.6613 165.14 15.3032 166.077 15.0608C167.024 14.8074 168.093 14.6807 169.283 14.6807C170.418 14.6807 171.376 14.7689 172.158 14.9452C172.952 15.1214 173.591 15.3583 174.076 15.6558C174.571 15.9423 174.924 16.2783 175.133 16.664C175.354 17.0496 175.464 17.4462 175.464 17.8539C175.464 18.7574 175.117 19.4129 174.423 19.8206C173.729 20.2283 172.781 20.4321 171.58 20.4321C171.58 19.9804 171.536 19.5286 171.448 19.0769C171.36 18.6141 171.211 18.1955 171.002 17.8208C170.792 17.4462 170.522 17.1432 170.192 16.9119C169.861 16.6805 169.454 16.5648 168.969 16.5648C168.528 16.5648 168.131 16.6309 167.779 16.7631C167.437 16.8843 167.14 17.0551 166.886 17.2755C166.644 17.4848 166.457 17.7327 166.324 18.0192C166.192 18.3056 166.126 18.6141 166.126 18.9447C166.126 19.3193 166.198 19.6443 166.341 19.9198C166.495 20.1952 166.727 20.4541 167.035 20.6965C167.355 20.9389 167.757 21.1813 168.242 21.4237C168.726 21.6551 169.299 21.9195 169.96 22.217C170.688 22.5475 171.316 22.9001 171.844 23.2747C172.373 23.6383 172.809 24.0405 173.15 24.4812C173.503 24.9109 173.762 25.3847 173.927 25.9025C174.103 26.4093 174.191 26.9768 174.191 27.6048C174.191 28.5193 174.015 29.3401 173.662 30.0673C173.321 30.7945 172.803 31.4115 172.109 31.9183C171.415 32.4251 170.555 32.8163 169.531 33.0917C168.506 33.3562 167.316 33.4884 165.961 33.4884C164.991 33.4884 164.11 33.4057 163.317 33.2405C162.534 33.0752 161.862 32.8328 161.3 32.5133C160.749 32.1938 160.32 31.8026 160.011 31.3399C159.714 30.8771 159.565 30.3538 159.565 29.7698C159.565 29.241 159.67 28.7947 159.879 28.4311C160.088 28.0675 160.358 27.7756 160.689 27.5552C161.03 27.3238 161.416 27.1586 161.846 27.0594C162.286 26.9492 162.733 26.8941 163.184 26.8941C163.184 27.5001 163.245 28.0786 163.366 28.6295C163.487 29.1804 163.68 29.6707 163.945 30.1004C164.209 30.519 164.551 30.8551 164.969 31.1085C165.399 31.3509 165.922 31.4721 166.539 31.4721Z" fill="#0AB0A4"/>
<path d="M149.318 30.249C149.318 30.1498 149.324 30.0342 149.335 29.9019C149.346 29.7697 149.357 29.632 149.368 29.4888C149.39 29.3455 149.406 29.2133 149.417 29.0921C149.439 28.9599 149.461 28.8497 149.483 28.7616H149.203C148.707 29.4667 148.216 30.1058 147.732 30.6787C147.258 31.2516 146.751 31.7474 146.211 32.1661C145.671 32.5738 145.087 32.8933 144.459 33.1247C143.831 33.3451 143.115 33.4552 142.311 33.4552C141.584 33.4552 140.972 33.3561 140.476 33.1577C139.98 32.9484 139.584 32.673 139.286 32.3314C138.989 31.9898 138.774 31.5932 138.642 31.1415C138.51 30.6787 138.443 30.1994 138.443 29.7036C138.443 29.1417 138.51 28.5247 138.642 27.8526C138.774 27.1805 138.901 26.558 139.022 25.9851L140.245 20.0188C140.333 19.5561 140.405 19.1374 140.46 18.7628C140.515 18.3882 140.542 18.1072 140.542 17.9199C140.542 17.4682 140.405 17.1707 140.129 17.0275C139.854 16.8842 139.397 16.8126 138.757 16.8126H138.146L138.443 15.0112H146.575L144.344 25.1422C144.277 25.4066 144.211 25.7041 144.145 26.0346C144.079 26.3652 144.019 26.6957 143.963 27.0263C143.908 27.3568 143.859 27.6708 143.815 27.9683C143.782 28.2658 143.765 28.5192 143.765 28.7285C143.765 29.2243 143.87 29.621 144.079 29.9185C144.289 30.2049 144.669 30.3482 145.22 30.3482C145.715 30.3482 146.222 30.1278 146.74 29.6871C147.269 29.2354 147.77 28.6569 148.244 27.9518C148.729 27.2356 149.158 26.4423 149.533 25.5719C149.908 24.6904 150.194 23.8255 150.392 22.9772L152.194 15.0112H157.235L154.937 26.0181C154.794 26.6351 154.678 27.2136 154.59 27.7534C154.502 28.2823 154.458 28.7836 154.458 29.2574C154.458 29.7532 154.557 30.1333 154.756 30.3977C154.965 30.6622 155.262 30.7944 155.648 30.7944C156.001 30.7944 156.32 30.7283 156.607 30.5961C156.904 30.4639 157.246 30.271 157.631 30.0176L158.458 31.158C158.182 31.4445 157.874 31.7309 157.532 32.0174C157.191 32.2928 156.805 32.5407 156.375 32.7611C155.957 32.9815 155.488 33.1577 154.97 33.29C154.453 33.4222 153.885 33.4883 153.268 33.4883C152.519 33.4883 151.891 33.4001 151.384 33.2239C150.888 33.0586 150.486 32.8327 150.178 32.5463C149.869 32.2488 149.649 31.9072 149.517 31.5216C149.384 31.1249 149.318 30.7007 149.318 30.249Z" fill="#0AB0A4"/>
<path d="M132.295 30.7944C132.648 30.7944 132.973 30.7283 133.27 30.5961C133.568 30.4639 133.909 30.271 134.295 30.0176L135.105 31.158C134.84 31.4445 134.537 31.7309 134.196 32.0174C133.854 32.2928 133.469 32.5407 133.039 32.7611C132.62 32.9815 132.152 33.1577 131.634 33.29C131.116 33.4222 130.549 33.4883 129.932 33.4883C128.632 33.4883 127.635 33.1853 126.941 32.5793C126.246 31.9623 125.899 31.1084 125.899 30.0176C125.899 29.048 126.081 27.7039 126.445 25.9851L129.387 12.1024C129.42 11.9592 129.453 11.8105 129.486 11.6562C129.519 11.502 129.546 11.3587 129.568 11.2265C129.59 11.0833 129.607 10.9621 129.618 10.8629C129.629 10.7637 129.635 10.6921 129.635 10.6481C129.635 10.3396 129.601 10.0917 129.535 9.90435C129.469 9.71704 129.365 9.57381 129.221 9.47465C129.078 9.37548 128.891 9.30938 128.659 9.27632C128.428 9.24327 128.153 9.22674 127.833 9.22674H127.122L127.436 7.44183H135.617L131.585 26.0181C131.452 26.6351 131.342 27.2136 131.254 27.7534C131.166 28.2823 131.122 28.7836 131.122 29.2574C131.122 29.7532 131.221 30.1333 131.419 30.3977C131.629 30.6622 131.921 30.7944 132.295 30.7944Z" fill="#0AB0A4"/>
<path d="M111.852 21.9525H113.273C114.298 21.9525 115.163 21.7983 115.868 21.4898C116.584 21.1813 117.163 20.7516 117.603 20.2007C118.044 19.6388 118.363 18.9777 118.562 18.2175C118.76 17.4462 118.859 16.6033 118.859 15.6888C118.859 14.8404 118.76 14.1188 118.562 13.5238C118.374 12.9288 118.11 12.444 117.768 12.0694C117.427 11.6948 117.014 11.4249 116.529 11.2596C116.055 11.0833 115.537 10.9952 114.975 10.9952H114.232L111.852 21.9525ZM110.232 29.4392C110.199 29.5604 110.166 29.6982 110.133 29.8524C110.111 30.0067 110.1 30.1279 110.1 30.216C110.1 30.4584 110.161 30.6567 110.282 30.811C110.403 30.9542 110.574 31.0699 110.794 31.158C111.014 31.2352 111.273 31.2903 111.571 31.3233C111.879 31.3454 112.21 31.3564 112.563 31.3564H113.686L113.306 33.1578H100.994L101.357 31.3564H101.803C102.156 31.3564 102.498 31.3343 102.828 31.2903C103.17 31.2462 103.478 31.1525 103.754 31.0093C104.029 30.8661 104.266 30.6622 104.464 30.3978C104.674 30.1334 104.822 29.7808 104.911 29.3401L108.365 13.0941C108.508 12.5102 108.58 12.1245 108.58 11.9372C108.58 11.6948 108.519 11.4965 108.398 11.3422C108.277 11.188 108.106 11.0723 107.885 10.9952C107.676 10.907 107.417 10.8519 107.109 10.8299C106.811 10.7969 106.486 10.7803 106.134 10.7803H105.704L106.067 8.99542H115.752C117.074 8.99542 118.27 9.13866 119.339 9.42512C120.407 9.70057 121.311 10.1193 122.049 10.6812C122.798 11.2321 123.371 11.9207 123.768 12.747C124.175 13.5624 124.379 14.5099 124.379 15.5897C124.379 16.1626 124.324 16.7686 124.214 17.4076C124.104 18.0467 123.906 18.6747 123.619 19.2917C123.344 19.9087 122.958 20.4982 122.462 21.0601C121.966 21.611 121.333 22.1013 120.562 22.531C119.801 22.9497 118.881 23.2857 117.802 23.5391C116.733 23.7925 115.471 23.9192 114.017 23.9192H111.455L110.232 29.4392Z" fill="#0AB0A4"/>
<path d="M95.2751 33.4884C94.2725 33.4884 93.4682 33.2625 92.8622 32.8108C92.2562 32.348 91.9532 31.6759 91.9532 30.7945C91.9532 30.4419 91.9697 30.1004 92.0028 29.7698C92.0358 29.4283 92.0964 29.0371 92.1846 28.5964H91.9532C91.5345 29.3787 91.1158 30.0783 90.6972 30.6953C90.2895 31.3013 89.8322 31.8137 89.3254 32.2323C88.8186 32.64 88.2512 32.9485 87.6231 33.1578C87.0061 33.3782 86.2845 33.4884 85.4581 33.4884C84.6538 33.4884 83.9487 33.3341 83.3427 33.0256C82.7367 32.7061 82.2299 32.2709 81.8222 31.72C81.4255 31.1691 81.1225 30.519 80.9132 29.7698C80.7149 29.0096 80.6157 28.1887 80.6157 27.3073C80.6157 26.4259 80.7149 25.5059 80.9132 24.5473C81.1225 23.5777 81.4311 22.6247 81.8387 21.6881C82.2464 20.7516 82.7477 19.8592 83.3427 19.0108C83.9487 18.1624 84.6428 17.4187 85.4251 16.7796C86.2184 16.1406 87.0998 15.6338 88.0694 15.2592C89.0389 14.8735 90.0967 14.6807 91.2425 14.6807C91.6833 14.6807 92.1295 14.7193 92.5812 14.7964C93.044 14.8625 93.4847 14.9507 93.9034 15.0608C94.3221 15.171 94.7132 15.2977 95.0768 15.441C95.4514 15.5732 95.7654 15.7109 96.0188 15.8541L97.8037 15.0443H99.6052L97.374 25.605C97.33 25.7923 97.2749 26.0402 97.2088 26.3487C97.1427 26.6572 97.0765 26.9878 97.0104 27.3404C96.9554 27.6819 96.9058 28.018 96.8617 28.3485C96.8176 28.668 96.7956 28.938 96.7956 29.1583C96.7956 29.7202 96.9058 30.1389 97.1261 30.4144C97.3465 30.6898 97.633 30.8275 97.9855 30.8275C98.305 30.8275 98.608 30.7614 98.8945 30.6292C99.192 30.486 99.517 30.3152 99.8696 30.1169L100.613 31.4721C100.327 31.6925 100.002 31.9238 99.6382 32.1662C99.2746 32.3976 98.867 32.6125 98.4152 32.8108C97.9745 33.0091 97.4897 33.1689 96.9609 33.2901C96.443 33.4223 95.8811 33.4884 95.2751 33.4884ZM85.7556 27.3404C85.7556 27.9904 85.7997 28.5358 85.8878 28.9765C85.987 29.4172 86.1137 29.7753 86.2679 30.0508C86.4332 30.3152 86.626 30.508 86.8464 30.6292C87.0778 30.7394 87.3257 30.7945 87.5901 30.7945C88.0859 30.7945 88.5982 30.5796 89.1271 30.1499C89.656 29.7202 90.1518 29.1583 90.6145 28.4642C91.0773 27.759 91.4904 26.9657 91.854 26.0843C92.2286 25.2029 92.5096 24.3104 92.6969 23.4069L93.8868 17.7878C93.6665 17.4683 93.358 17.2314 92.9613 17.0771C92.5757 16.9229 92.1625 16.8458 91.7218 16.8458C91.0607 16.8458 90.4548 17.0165 89.9039 17.3581C89.364 17.6996 88.8737 18.1569 88.433 18.7298C87.9922 19.3028 87.6011 19.9528 87.2595 20.68C86.929 21.4072 86.6481 22.1619 86.4167 22.9442C86.1963 23.7265 86.031 24.4977 85.9209 25.258C85.8107 26.0182 85.7556 26.7123 85.7556 27.3404Z" fill="white"/>
<path d="M74.2863 30.7284C74.8151 30.7284 75.2944 30.6403 75.7241 30.464C76.1538 30.2877 76.556 30.0783 76.9306 29.8359L77.7073 31.125C77.3327 31.4446 76.9361 31.7476 76.5174 32.034C76.1097 32.3205 75.6635 32.5739 75.1787 32.7943C74.6939 33.0036 74.1706 33.1689 73.6087 33.2901C73.0578 33.4223 72.4573 33.4884 71.8072 33.4884C71.1902 33.4884 70.6118 33.4058 70.0719 33.2405C69.543 33.0862 69.0803 32.8494 68.6836 32.5298C68.287 32.1993 67.973 31.7861 67.7416 31.2903C67.5212 30.7945 67.4111 30.2106 67.4111 29.5385C67.4111 29.3401 67.4166 29.1198 67.4276 28.8774C67.4496 28.635 67.4772 28.3871 67.5102 28.1337C67.5433 27.8803 67.5818 27.6324 67.6259 27.39C67.67 27.1365 67.7141 26.9052 67.7581 26.6958L69.7909 17.3251H67.1797L67.5433 15.5897C68.0281 15.5897 68.5569 15.5071 69.1299 15.3418C69.7028 15.1766 70.2868 14.9066 70.8817 14.532C71.4877 14.1574 72.0882 13.6671 72.6832 13.0611C73.2891 12.4551 73.8566 11.7169 74.3854 10.8465H76.3521L75.4762 15.0113H79.5584L79.0956 17.3251H74.9639L72.9311 26.5967C72.8099 27.0925 72.7217 27.5442 72.6666 27.9519C72.6226 28.3485 72.6005 28.7066 72.6005 29.0261C72.6005 29.588 72.7548 30.0122 73.0633 30.2987C73.3718 30.5852 73.7794 30.7284 74.2863 30.7284Z" fill="white"/>
<path d="M58.6516 33.4884C57.6489 33.4884 56.8446 33.2625 56.2386 32.8108C55.6327 32.348 55.3297 31.6759 55.3297 30.7945C55.3297 30.4419 55.3462 30.1004 55.3792 29.7698C55.4123 29.4283 55.4729 29.0371 55.561 28.5964H55.3297C54.911 29.3787 54.4923 30.0783 54.0736 30.6953C53.666 31.3013 53.2087 31.8137 52.7019 32.2323C52.1951 32.64 51.6276 32.9485 50.9996 33.1578C50.3826 33.3782 49.6609 33.4884 48.8346 33.4884C48.0303 33.4884 47.3251 33.3341 46.7191 33.0256C46.1131 32.7061 45.6063 32.2709 45.1987 31.72C44.802 31.1691 44.499 30.519 44.2897 29.7698C44.0913 29.0096 43.9922 28.1887 43.9922 27.3073C43.9922 26.4259 44.0913 25.5059 44.2897 24.5473C44.499 23.5777 44.8075 22.6247 45.2152 21.6881C45.6228 20.7516 46.1242 19.8592 46.7191 19.0108C47.3251 18.1624 48.0192 17.4187 48.8015 16.7796C49.5948 16.1406 50.4763 15.6338 51.4458 15.2592C52.4154 14.8735 53.4731 14.6807 54.619 14.6807C55.0597 14.6807 55.506 14.7193 55.9577 14.7964C56.4204 14.8625 56.8612 14.9507 57.2798 15.0608C57.6985 15.171 58.0897 15.2977 58.4533 15.441C58.8279 15.5732 59.1419 15.7109 59.3953 15.8541L61.1802 15.0443H62.9816L60.7505 25.605C60.7064 25.7923 60.6513 26.0402 60.5852 26.3487C60.5191 26.6572 60.453 26.9878 60.3869 27.3404C60.3318 27.6819 60.2822 28.018 60.2382 28.3485C60.1941 28.668 60.1721 28.938 60.1721 29.1583C60.1721 29.7202 60.2822 30.1389 60.5026 30.4144C60.723 30.6898 61.0094 30.8275 61.362 30.8275C61.6815 30.8275 61.9845 30.7614 62.271 30.6292C62.5685 30.486 62.8935 30.3152 63.2461 30.1169L63.9898 31.4721C63.7033 31.6925 63.3783 31.9238 63.0147 32.1662C62.6511 32.3976 62.2434 32.6125 61.7917 32.8108C61.351 33.0091 60.8662 33.1689 60.3373 33.2901C59.8195 33.4223 59.2576 33.4884 58.6516 33.4884ZM49.1321 27.3404C49.1321 27.9904 49.1761 28.5358 49.2643 28.9765C49.3634 29.4172 49.4901 29.7753 49.6444 30.0508C49.8097 30.3152 50.0025 30.508 50.2228 30.6292C50.4542 30.7394 50.7021 30.7945 50.9666 30.7945C51.4624 30.7945 51.9747 30.5796 52.5036 30.1499C53.0324 29.7202 53.5282 29.1583 53.991 28.4642C54.4537 27.759 54.8669 26.9657 55.2305 26.0843C55.6051 25.2029 55.8861 24.3104 56.0734 23.4069L57.2633 17.7878C57.043 17.4683 56.7345 17.2314 56.3378 17.0771C55.9522 16.9229 55.539 16.8458 55.0983 16.8458C54.4372 16.8458 53.8312 17.0165 53.2803 17.3581C52.7404 17.6996 52.2501 18.1569 51.8094 18.7298C51.3687 19.3028 50.9776 19.9528 50.636 20.68C50.3055 21.4072 50.0245 22.1619 49.7931 22.9442C49.5728 23.7265 49.4075 24.4977 49.2973 25.258C49.1872 26.0182 49.1321 26.7123 49.1321 27.3404Z" fill="white"/>
<path d="M16.1776 31.3564H16.6568C17.0094 31.3564 17.351 31.3343 17.6815 31.2903C18.0231 31.2462 18.3316 31.1525 18.607 31.0093C18.8825 30.8661 19.1194 30.6622 19.3177 30.3978C19.527 30.1334 19.6758 29.7808 19.7639 29.3401L23.2841 12.714C23.3282 12.5928 23.3613 12.4551 23.3833 12.3008C23.4164 12.1466 23.4329 12.0254 23.4329 11.9372C23.4329 11.6948 23.3723 11.4965 23.2511 11.3422C23.1299 11.188 22.9591 11.0723 22.7388 10.9952C22.5294 10.907 22.2705 10.8519 21.962 10.8299C21.6645 10.7969 21.3395 10.7803 20.9869 10.7803H20.5572L20.9208 8.99542H31.7459C33.3656 8.99542 34.8089 9.19375 36.076 9.59039C37.3541 9.98704 38.4283 10.5765 39.2987 11.3588C40.1802 12.13 40.8523 13.0886 41.315 14.2345C41.7778 15.3803 42.0092 16.7025 42.0092 18.2009C42.0092 19.5451 41.8659 20.8507 41.5795 22.1178C41.304 23.3739 40.8908 24.5583 40.3399 25.6711C39.8001 26.7729 39.128 27.7866 38.3237 28.7121C37.5193 29.6266 36.5883 30.4143 35.5306 31.0754C34.4729 31.7365 33.2884 32.2488 31.9773 32.6124C30.6772 32.976 29.2614 33.1578 27.7299 33.1578H15.814L16.1776 31.3564ZM26.2755 31.0589C27.8621 31.0589 29.2779 30.7394 30.5229 30.1003C31.768 29.4503 32.8202 28.5468 33.6796 27.3899C34.539 26.222 35.1946 24.8337 35.6463 23.2251C36.098 21.6165 36.3239 19.8481 36.3239 17.92C36.3239 16.741 36.1862 15.7219 35.9107 14.8625C35.6353 13.9921 35.2386 13.2759 34.7208 12.714C34.214 12.1521 33.5914 11.7389 32.8532 11.4745C32.1261 11.199 31.3107 11.0613 30.4073 11.0613H28.9859L24.755 31.0589H26.2755Z" fill="white"/>
</svg>
