<svg width="1071" height="384" viewBox="0 0 1071 384" fill="none" xmlns="http://www.w3.org/2000/svg">
<mask id="mask0_6_706" style="mask-type:alpha" maskUnits="userSpaceOnUse" x="85" y="53" width="911" height="320">
<rect x="85" y="53" width="911" height="320" fill="url(#paint0_linear_6_706)"/>
</mask>
<g mask="url(#mask0_6_706)">
<path d="M166.5 219C340 203.5 472 208.5 633.5 226.5C795 244.5 870 262.5 990 300V350H166.5V219Z" fill="url(#paint1_linear_6_706)"/>
<g filter="url(#filter0_d_6_706)">
<path d="M990.232 300.443C990.477 300.315 990.571 300.013 990.443 299.768L988.355 295.782C988.227 295.537 987.925 295.443 987.68 295.571C987.435 295.699 987.341 296.001 987.469 296.246L989.325 299.789L985.782 301.645C985.537 301.773 985.443 302.075 985.571 302.32C985.699 302.565 986.001 302.659 986.246 302.531L990.232 300.443ZM166.456 218.502C166.18 218.527 165.977 218.769 166.002 219.044C166.027 219.32 166.269 219.523 166.544 219.498L166.456 218.502ZM633.555 226.003C472.029 208 339.995 202.998 166.456 218.502L166.544 219.498C340.005 204.002 471.971 209 633.445 226.997L633.555 226.003ZM990.149 299.523C870.12 262.014 795.089 244.007 633.555 226.003L633.445 226.997C794.911 244.993 869.88 262.986 989.851 300.477L990.149 299.523Z" fill="#4292C8"/>
</g>
<path d="M990 77C748 77 833.5 237.5 729.5 237.5C720.332 237.5 711.518 236.58 703 234.902V276H990V77Z" fill="url(#paint2_linear_6_706)" fill-opacity="0.7"/>
<g filter="url(#filter1_d_6_706)">
<path d="M990.354 77.3536C990.549 77.1583 990.549 76.8417 990.354 76.6464L987.172 73.4645C986.976 73.2692 986.66 73.2692 986.465 73.4645C986.269 73.6597 986.269 73.9763 986.465 74.1716L989.293 77L986.465 79.8284C986.269 80.0237 986.269 80.3403 986.465 80.5355C986.66 80.7308 986.976 80.7308 987.172 80.5355L990.354 77.3536ZM702.558 234.503C702.284 234.471 702.036 234.667 702.003 234.942C701.971 235.216 702.167 235.464 702.442 235.497L702.558 234.503ZM729.5 238C742.566 238 752.691 235.479 760.865 231.043C769.04 226.607 775.231 220.275 780.458 212.706C785.681 205.143 789.95 196.33 794.273 186.926C798.6 177.51 802.981 167.501 808.439 157.489C819.346 137.483 834.535 117.505 862.067 102.517C889.61 87.5234 929.551 77.5 990 77.5V76.5C929.449 76.5 889.327 86.5391 861.589 101.639C833.84 116.745 818.529 136.892 807.561 157.011C802.082 167.061 797.681 177.115 793.364 186.508C789.042 195.912 784.803 204.654 779.635 212.138C774.472 219.615 768.39 225.822 760.388 230.164C752.388 234.505 742.434 237 729.5 237V238ZM702.442 235.497C710.912 236.493 720.294 238 729.5 238V237C720.371 237 711.088 235.507 702.558 234.503L702.442 235.497Z" fill="url(#paint3_linear_6_706)"/>
</g>
<g filter="url(#filter2_d_6_706)">
<circle cx="713" cy="236" r="4" fill="#0E3D5C"/>
<circle cx="713" cy="236" r="3.5" stroke="white" stroke-linecap="round"/>
</g>
</g>
<path opacity="0.32" d="M992 354L992 34" stroke="#F3FBFF" stroke-linecap="round" stroke-dasharray="3 3"/>
<path opacity="0.48" d="M996.69 14H995.178V5.306H992.182V4.004H999.686V5.306H996.69V14ZM1004.02 4.004C1004.88 4.004 1005.58 4.11133 1006.13 4.326C1006.68 4.54067 1007.09 4.86267 1007.36 5.292C1007.64 5.712 1007.77 6.244 1007.77 6.888C1007.77 7.40133 1007.67 7.83533 1007.48 8.19C1007.29 8.53533 1007.05 8.82 1006.75 9.044C1006.45 9.25867 1006.14 9.43133 1005.81 9.562L1008.61 14H1006.87L1004.47 9.954H1002.73V14H1001.22V4.004H1004.02ZM1003.92 5.292H1002.73V8.694H1003.99C1004.5 8.694 1004.92 8.62867 1005.25 8.498C1005.59 8.36733 1005.83 8.17133 1005.98 7.91C1006.14 7.64867 1006.22 7.32667 1006.22 6.944C1006.22 6.54267 1006.13 6.22533 1005.96 5.992C1005.81 5.74933 1005.55 5.572 1005.21 5.46C1004.87 5.348 1004.44 5.292 1003.92 5.292ZM1016.29 14H1009.22V12.922L1014.35 5.306H1009.38V4.004H1016.17V5.082L1011.04 12.698H1016.29V14ZM1012.02 3.066C1011.89 2.85133 1011.73 2.62267 1011.52 2.38C1011.31 2.128 1011.1 1.88067 1010.88 1.638C1010.65 1.39533 1010.46 1.18533 1010.29 1.008V0.825999H1011.3C1011.54 0.984666 1011.79 1.17133 1012.05 1.386C1012.32 1.60067 1012.57 1.834 1012.81 2.086C1013.06 1.834 1013.32 1.60067 1013.58 1.386C1013.85 1.17133 1014.11 0.984666 1014.35 0.825999H1015.37V1.008C1015.2 1.18533 1015 1.39533 1014.77 1.638C1014.54 1.88067 1014.32 2.128 1014.11 2.38C1013.9 2.62267 1013.74 2.85133 1013.62 3.066H1012.02ZM1021.04 4.004C1021.89 4.004 1022.6 4.08333 1023.17 4.242C1023.75 4.40067 1024.18 4.66667 1024.47 5.04C1024.77 5.404 1024.92 5.88933 1024.92 6.496C1024.92 6.888 1024.85 7.238 1024.71 7.546C1024.57 7.84467 1024.37 8.09667 1024.1 8.302C1023.83 8.498 1023.51 8.62867 1023.12 8.694V8.764C1023.52 8.82933 1023.88 8.95067 1024.19 9.128C1024.51 9.296 1024.76 9.54333 1024.95 9.87C1025.14 10.1967 1025.23 10.6213 1025.23 11.144C1025.23 11.7507 1025.08 12.2687 1024.8 12.698C1024.52 13.118 1024.11 13.44 1023.58 13.664C1023.05 13.888 1022.43 14 1021.7 14H1018.12V4.004H1021.04ZM1021.3 8.176C1022.08 8.176 1022.62 8.05 1022.91 7.798C1023.2 7.546 1023.35 7.17267 1023.35 6.678C1023.35 6.174 1023.18 5.81467 1022.82 5.6C1022.47 5.38533 1021.9 5.278 1021.13 5.278H1019.63V8.176H1021.3ZM1019.63 9.408V12.74H1021.46C1022.28 12.74 1022.84 12.5813 1023.16 12.264C1023.47 11.9467 1023.63 11.5267 1023.63 11.004C1023.63 10.6867 1023.56 10.4067 1023.42 10.164C1023.28 9.92133 1023.05 9.73467 1022.71 9.604C1022.38 9.47333 1021.93 9.408 1021.37 9.408H1019.63ZM1030.06 8.68L1032.51 4.004H1034.14L1030.8 10.122V14H1029.31V10.178L1025.97 4.004H1027.61L1030.06 8.68Z" fill="#F3FBFF"/>
<path opacity="0.32" d="M1 354L992 354" stroke="url(#paint4_linear_6_706)" stroke-linecap="round" stroke-dasharray="3 3"/>
<path d="M993 52H997" stroke="#F3FBFF" stroke-opacity="0.32" stroke-linecap="round"/>
<path d="M993 204H997" stroke="#F3FBFF" stroke-opacity="0.32" stroke-linecap="round"/>
<path d="M888 355L888 359" stroke="#F3FBFF" stroke-opacity="0.32" stroke-linecap="round"/>
<path d="M744 355L744 359" stroke="#F3FBFF" stroke-opacity="0.32" stroke-linecap="round"/>
<path d="M600 355L600 359" stroke="#F3FBFF" stroke-opacity="0.24" stroke-linecap="round"/>
<path d="M993 354H997" stroke="#F3FBFF" stroke-opacity="0.32" stroke-linecap="round"/>
<path opacity="0.48" d="M1007.95 50.798C1008.61 50.798 1009.19 50.9147 1009.68 51.148C1010.18 51.3813 1010.56 51.7173 1010.83 52.156C1011.11 52.5947 1011.25 53.1313 1011.25 53.766C1011.25 54.466 1011.1 55.068 1010.8 55.572C1010.51 56.076 1010.07 56.4633 1009.5 56.734C1008.94 57.0047 1008.26 57.14 1007.44 57.14C1006.93 57.14 1006.45 57.0933 1005.99 57C1005.53 56.9067 1005.14 56.7713 1004.83 56.594V55.236C1005.16 55.432 1005.57 55.5907 1006.04 55.712C1006.53 55.8333 1006.99 55.894 1007.43 55.894C1007.91 55.894 1008.31 55.824 1008.65 55.684C1008.99 55.5347 1009.26 55.3153 1009.45 55.026C1009.64 54.7273 1009.74 54.354 1009.74 53.906C1009.74 53.2993 1009.55 52.8373 1009.17 52.52C1008.79 52.1933 1008.2 52.03 1007.39 52.03C1007.13 52.03 1006.83 52.0533 1006.51 52.1C1006.19 52.1467 1005.93 52.1933 1005.74 52.24L1005.05 51.834L1005.43 47.004H1010.57V48.32H1006.72L1006.49 50.938C1006.65 50.91 1006.85 50.882 1007.09 50.854C1007.34 50.8167 1007.62 50.798 1007.95 50.798ZM1019.39 51.988C1019.39 52.8 1019.32 53.5233 1019.19 54.158C1019.07 54.7927 1018.88 55.334 1018.61 55.782C1018.34 56.2207 1017.99 56.5567 1017.56 56.79C1017.13 57.0233 1016.61 57.14 1016 57.14C1015.24 57.14 1014.61 56.9347 1014.11 56.524C1013.62 56.1133 1013.25 55.5253 1013.01 54.76C1012.76 53.9853 1012.64 53.0613 1012.64 51.988C1012.64 50.9053 1012.75 49.9813 1012.96 49.216C1013.19 48.4507 1013.55 47.8673 1014.04 47.466C1014.54 47.0553 1015.19 46.85 1016 46.85C1016.77 46.85 1017.4 47.0553 1017.89 47.466C1018.4 47.8673 1018.77 48.4507 1019.01 49.216C1019.26 49.9813 1019.39 50.9053 1019.39 51.988ZM1014.13 51.988C1014.13 52.856 1014.19 53.5793 1014.31 54.158C1014.43 54.7367 1014.63 55.1707 1014.9 55.46C1015.18 55.7493 1015.54 55.894 1016 55.894C1016.46 55.894 1016.82 55.754 1017.09 55.474C1017.37 55.1847 1017.57 54.7507 1017.7 54.172C1017.83 53.584 1017.89 52.856 1017.89 51.988C1017.89 51.12 1017.83 50.4013 1017.7 49.832C1017.57 49.2533 1017.37 48.8193 1017.09 48.53C1016.82 48.2407 1016.46 48.096 1016 48.096C1015.54 48.096 1015.18 48.2407 1014.9 48.53C1014.63 48.8193 1014.43 49.2533 1014.31 49.832C1014.19 50.4013 1014.13 51.12 1014.13 51.988ZM1027.4 51.988C1027.4 52.8 1027.34 53.5233 1027.21 54.158C1027.08 54.7927 1026.89 55.334 1026.62 55.782C1026.36 56.2207 1026.01 56.5567 1025.57 56.79C1025.14 57.0233 1024.62 57.14 1024.01 57.14C1023.25 57.14 1022.62 56.9347 1022.12 56.524C1021.63 56.1133 1021.26 55.5253 1021.02 54.76C1020.77 53.9853 1020.65 53.0613 1020.65 51.988C1020.65 50.9053 1020.76 49.9813 1020.98 49.216C1021.2 48.4507 1021.56 47.8673 1022.05 47.466C1022.55 47.0553 1023.2 46.85 1024.01 46.85C1024.78 46.85 1025.41 47.0553 1025.9 47.466C1026.41 47.8673 1026.78 48.4507 1027.02 49.216C1027.28 49.9813 1027.4 50.9053 1027.4 51.988ZM1022.14 51.988C1022.14 52.856 1022.2 53.5793 1022.32 54.158C1022.44 54.7367 1022.64 55.1707 1022.91 55.46C1023.19 55.7493 1023.56 55.894 1024.01 55.894C1024.47 55.894 1024.83 55.754 1025.11 55.474C1025.39 55.1847 1025.59 54.7507 1025.71 54.172C1025.84 53.584 1025.9 52.856 1025.9 51.988C1025.9 51.12 1025.84 50.4013 1025.71 49.832C1025.59 49.2533 1025.39 48.8193 1025.11 48.53C1024.83 48.2407 1024.47 48.096 1024.01 48.096C1023.56 48.096 1023.19 48.2407 1022.91 48.53C1022.64 48.8193 1022.44 49.2533 1022.32 49.832C1022.2 50.4013 1022.14 51.12 1022.14 51.988ZM1035.55 55.936C1035.75 55.936 1035.95 55.9173 1036.15 55.88C1036.36 55.8427 1036.53 55.8007 1036.68 55.754V56.874C1036.53 56.9487 1036.31 57.0093 1036.04 57.056C1035.77 57.112 1035.5 57.14 1035.23 57.14C1034.82 57.14 1034.44 57.07 1034.09 56.93C1033.76 56.79 1033.49 56.5473 1033.28 56.202C1033.08 55.8567 1032.97 55.376 1032.97 54.76V50.588H1031.92V49.916L1033.03 49.356L1033.55 47.76H1034.46V49.454H1036.61V50.588H1034.46V54.732C1034.46 55.1427 1034.56 55.446 1034.75 55.642C1034.96 55.838 1035.22 55.936 1035.55 55.936ZM1039.68 49.454V57H1038.19V49.454H1039.68ZM1038.95 46.584C1039.17 46.584 1039.37 46.6493 1039.54 46.78C1039.71 46.9107 1039.79 47.13 1039.79 47.438C1039.79 47.7367 1039.71 47.956 1039.54 48.096C1039.37 48.2267 1039.17 48.292 1038.95 48.292C1038.71 48.292 1038.5 48.2267 1038.33 48.096C1038.17 47.956 1038.1 47.7367 1038.1 47.438C1038.1 47.13 1038.17 46.9107 1038.33 46.78C1038.5 46.6493 1038.71 46.584 1038.95 46.584ZM1047.02 54.872C1047.02 55.3667 1046.9 55.782 1046.66 56.118C1046.41 56.454 1046.06 56.7107 1045.61 56.888C1045.15 57.056 1044.6 57.14 1043.95 57.14C1043.42 57.14 1042.96 57.098 1042.58 57.014C1042.21 56.9393 1041.86 56.8273 1041.55 56.678V55.376C1041.88 55.5347 1042.27 55.6793 1042.71 55.81C1043.15 55.9313 1043.58 55.992 1044 55.992C1044.56 55.992 1044.96 55.9033 1045.2 55.726C1045.45 55.5487 1045.58 55.3107 1045.58 55.012C1045.58 54.844 1045.53 54.6947 1045.44 54.564C1045.34 54.424 1045.17 54.284 1044.91 54.144C1044.65 53.9947 1044.28 53.8267 1043.79 53.64C1043.31 53.444 1042.9 53.2527 1042.57 53.066C1042.23 52.87 1041.98 52.6413 1041.8 52.38C1041.62 52.1093 1041.53 51.764 1041.53 51.344C1041.53 50.6907 1041.79 50.1913 1042.32 49.846C1042.85 49.4913 1043.55 49.314 1044.42 49.314C1044.87 49.314 1045.3 49.3607 1045.7 49.454C1046.11 49.538 1046.51 49.6687 1046.89 49.846L1046.4 50.98C1046.19 50.8773 1045.97 50.7933 1045.73 50.728C1045.51 50.6533 1045.28 50.5927 1045.05 50.546C1044.82 50.4993 1044.59 50.476 1044.35 50.476C1043.9 50.476 1043.56 50.546 1043.32 50.686C1043.09 50.826 1042.97 51.022 1042.97 51.274C1042.97 51.4513 1043.03 51.6053 1043.13 51.736C1043.24 51.8667 1043.43 51.9973 1043.7 52.128C1043.97 52.2587 1044.34 52.4173 1044.81 52.604C1045.27 52.7813 1045.67 52.9633 1046 53.15C1046.33 53.3367 1046.59 53.5653 1046.75 53.836C1046.93 54.1067 1047.02 54.452 1047.02 54.872ZM1048.58 56.174C1048.58 55.81 1048.67 55.5533 1048.86 55.404C1049.05 55.2547 1049.27 55.18 1049.53 55.18C1049.8 55.18 1050.03 55.2547 1050.22 55.404C1050.4 55.5533 1050.5 55.81 1050.5 56.174C1050.5 56.538 1050.4 56.7993 1050.22 56.958C1050.03 57.1167 1049.8 57.196 1049.53 57.196C1049.27 57.196 1049.05 57.1167 1048.86 56.958C1048.67 56.7993 1048.58 56.538 1048.58 56.174ZM1063.94 57H1062.19L1058.91 52.394L1057.93 53.206V57H1056.42V47.004H1057.93V51.834C1058.18 51.5447 1058.42 51.26 1058.66 50.98C1058.9 50.7 1059.15 50.42 1059.39 50.14L1062.09 47.004H1063.83L1060.01 51.372L1063.94 57ZM1068.14 57.14C1067.45 57.14 1066.84 57.0047 1066.32 56.734C1065.79 56.4633 1065.39 56.0433 1065.1 55.474C1064.81 54.8953 1064.67 54.1627 1064.67 53.276C1064.67 52.3427 1064.82 51.5867 1065.13 51.008C1065.44 50.4293 1065.87 50.0047 1066.4 49.734C1066.94 49.454 1067.56 49.314 1068.25 49.314C1068.67 49.314 1069.06 49.3607 1069.43 49.454C1069.8 49.538 1070.11 49.636 1070.35 49.748L1069.9 50.952C1069.64 50.8493 1069.36 50.7607 1069.06 50.686C1068.77 50.6113 1068.5 50.574 1068.24 50.574C1067.77 50.574 1067.38 50.6767 1067.07 50.882C1066.77 51.078 1066.55 51.3767 1066.4 51.778C1066.26 52.17 1066.19 52.6647 1066.19 53.262C1066.19 53.8313 1066.27 54.312 1066.42 54.704C1066.56 55.096 1066.78 55.3947 1067.07 55.6C1067.37 55.796 1067.74 55.894 1068.18 55.894C1068.6 55.894 1068.97 55.8473 1069.29 55.754C1069.6 55.6607 1069.9 55.5393 1070.18 55.39V56.678C1069.91 56.8367 1069.62 56.9533 1069.3 57.028C1068.98 57.1027 1068.59 57.14 1068.14 57.14ZM1067.12 48.516C1066.98 48.3013 1066.82 48.0727 1066.61 47.83C1066.41 47.578 1066.19 47.3307 1065.97 47.088C1065.74 46.8453 1065.55 46.6353 1065.38 46.458V46.276H1066.39C1066.63 46.4347 1066.88 46.6213 1067.14 46.836C1067.41 47.0507 1067.67 47.284 1067.9 47.536C1068.15 47.284 1068.41 47.0507 1068.67 46.836C1068.94 46.6213 1069.2 46.4347 1069.44 46.276H1070.46V46.458C1070.29 46.6353 1070.09 46.8453 1069.86 47.088C1069.64 47.3307 1069.42 47.578 1069.2 47.83C1069 48.0727 1068.83 48.3013 1068.71 48.516H1067.12Z" fill="#F3FBFF"/>
<path opacity="0.48" d="M1011.36 208H1004.64V206.852L1007.22 204.234C1007.72 203.721 1008.14 203.277 1008.48 202.904C1008.82 202.521 1009.07 202.157 1009.24 201.812C1009.4 201.457 1009.49 201.075 1009.49 200.664C1009.49 200.151 1009.34 199.768 1009.04 199.516C1008.74 199.255 1008.35 199.124 1007.88 199.124C1007.42 199.124 1007.01 199.213 1006.65 199.39C1006.28 199.558 1005.9 199.796 1005.51 200.104L1004.71 199.11C1004.98 198.877 1005.27 198.667 1005.58 198.48C1005.9 198.293 1006.25 198.144 1006.63 198.032C1007.02 197.92 1007.45 197.864 1007.92 197.864C1008.55 197.864 1009.1 197.976 1009.56 198.2C1010.02 198.415 1010.37 198.723 1010.61 199.124C1010.86 199.525 1010.99 199.997 1010.99 200.538C1010.99 200.939 1010.93 201.317 1010.8 201.672C1010.68 202.017 1010.51 202.358 1010.27 202.694C1010.05 203.03 1009.77 203.371 1009.45 203.716C1009.12 204.061 1008.76 204.425 1008.37 204.808L1006.51 206.614V206.684H1011.36V208ZM1015.96 201.798C1016.62 201.798 1017.2 201.915 1017.7 202.148C1018.19 202.381 1018.57 202.717 1018.84 203.156C1019.12 203.595 1019.26 204.131 1019.26 204.766C1019.26 205.466 1019.11 206.068 1018.82 206.572C1018.52 207.076 1018.08 207.463 1017.51 207.734C1016.95 208.005 1016.27 208.14 1015.46 208.14C1014.94 208.14 1014.46 208.093 1014 208C1013.54 207.907 1013.16 207.771 1012.84 207.594V206.236C1013.17 206.432 1013.58 206.591 1014.06 206.712C1014.54 206.833 1015 206.894 1015.44 206.894C1015.92 206.894 1016.32 206.824 1016.66 206.684C1017.01 206.535 1017.27 206.315 1017.46 206.026C1017.65 205.727 1017.75 205.354 1017.75 204.906C1017.75 204.299 1017.56 203.837 1017.18 203.52C1016.8 203.193 1016.21 203.03 1015.4 203.03C1015.14 203.03 1014.84 203.053 1014.52 203.1C1014.2 203.147 1013.94 203.193 1013.75 203.24L1013.06 202.834L1013.44 198.004H1018.58V199.32H1014.73L1014.5 201.938C1014.66 201.91 1014.86 201.882 1015.11 201.854C1015.35 201.817 1015.63 201.798 1015.96 201.798ZM1027.4 202.988C1027.4 203.8 1027.34 204.523 1027.21 205.158C1027.08 205.793 1026.89 206.334 1026.62 206.782C1026.36 207.221 1026.01 207.557 1025.57 207.79C1025.14 208.023 1024.62 208.14 1024.01 208.14C1023.25 208.14 1022.62 207.935 1022.12 207.524C1021.63 207.113 1021.26 206.525 1021.02 205.76C1020.77 204.985 1020.65 204.061 1020.65 202.988C1020.65 201.905 1020.76 200.981 1020.98 200.216C1021.2 199.451 1021.56 198.867 1022.05 198.466C1022.55 198.055 1023.2 197.85 1024.01 197.85C1024.78 197.85 1025.41 198.055 1025.9 198.466C1026.41 198.867 1026.78 199.451 1027.02 200.216C1027.28 200.981 1027.4 201.905 1027.4 202.988ZM1022.14 202.988C1022.14 203.856 1022.2 204.579 1022.32 205.158C1022.44 205.737 1022.64 206.171 1022.91 206.46C1023.19 206.749 1023.56 206.894 1024.01 206.894C1024.47 206.894 1024.83 206.754 1025.11 206.474C1025.39 206.185 1025.59 205.751 1025.71 205.172C1025.84 204.584 1025.9 203.856 1025.9 202.988C1025.9 202.12 1025.84 201.401 1025.71 200.832C1025.59 200.253 1025.39 199.819 1025.11 199.53C1024.83 199.241 1024.47 199.096 1024.01 199.096C1023.56 199.096 1023.19 199.241 1022.91 199.53C1022.64 199.819 1022.44 200.253 1022.32 200.832C1022.2 201.401 1022.14 202.12 1022.14 202.988ZM1035.55 206.936C1035.75 206.936 1035.95 206.917 1036.15 206.88C1036.36 206.843 1036.53 206.801 1036.68 206.754V207.874C1036.53 207.949 1036.31 208.009 1036.04 208.056C1035.77 208.112 1035.5 208.14 1035.23 208.14C1034.82 208.14 1034.44 208.07 1034.09 207.93C1033.76 207.79 1033.49 207.547 1033.28 207.202C1033.08 206.857 1032.97 206.376 1032.97 205.76V201.588H1031.92V200.916L1033.03 200.356L1033.55 198.76H1034.46V200.454H1036.61V201.588H1034.46V205.732C1034.46 206.143 1034.56 206.446 1034.75 206.642C1034.96 206.838 1035.22 206.936 1035.55 206.936ZM1039.68 200.454V208H1038.19V200.454H1039.68ZM1038.95 197.584C1039.17 197.584 1039.37 197.649 1039.54 197.78C1039.71 197.911 1039.79 198.13 1039.79 198.438C1039.79 198.737 1039.71 198.956 1039.54 199.096C1039.37 199.227 1039.17 199.292 1038.95 199.292C1038.71 199.292 1038.5 199.227 1038.33 199.096C1038.17 198.956 1038.1 198.737 1038.1 198.438C1038.1 198.13 1038.17 197.911 1038.33 197.78C1038.5 197.649 1038.71 197.584 1038.95 197.584ZM1047.02 205.872C1047.02 206.367 1046.9 206.782 1046.66 207.118C1046.41 207.454 1046.06 207.711 1045.61 207.888C1045.15 208.056 1044.6 208.14 1043.95 208.14C1043.42 208.14 1042.96 208.098 1042.58 208.014C1042.21 207.939 1041.86 207.827 1041.55 207.678V206.376C1041.88 206.535 1042.27 206.679 1042.71 206.81C1043.15 206.931 1043.58 206.992 1044 206.992C1044.56 206.992 1044.96 206.903 1045.2 206.726C1045.45 206.549 1045.58 206.311 1045.58 206.012C1045.58 205.844 1045.53 205.695 1045.44 205.564C1045.34 205.424 1045.17 205.284 1044.91 205.144C1044.65 204.995 1044.28 204.827 1043.79 204.64C1043.31 204.444 1042.9 204.253 1042.57 204.066C1042.23 203.87 1041.98 203.641 1041.8 203.38C1041.62 203.109 1041.53 202.764 1041.53 202.344C1041.53 201.691 1041.79 201.191 1042.32 200.846C1042.85 200.491 1043.55 200.314 1044.42 200.314C1044.87 200.314 1045.3 200.361 1045.7 200.454C1046.11 200.538 1046.51 200.669 1046.89 200.846L1046.4 201.98C1046.19 201.877 1045.97 201.793 1045.73 201.728C1045.51 201.653 1045.28 201.593 1045.05 201.546C1044.82 201.499 1044.59 201.476 1044.35 201.476C1043.9 201.476 1043.56 201.546 1043.32 201.686C1043.09 201.826 1042.97 202.022 1042.97 202.274C1042.97 202.451 1043.03 202.605 1043.13 202.736C1043.24 202.867 1043.43 202.997 1043.7 203.128C1043.97 203.259 1044.34 203.417 1044.81 203.604C1045.27 203.781 1045.67 203.963 1046 204.15C1046.33 204.337 1046.59 204.565 1046.75 204.836C1046.93 205.107 1047.02 205.452 1047.02 205.872ZM1048.58 207.174C1048.58 206.81 1048.67 206.553 1048.86 206.404C1049.05 206.255 1049.27 206.18 1049.53 206.18C1049.8 206.18 1050.03 206.255 1050.22 206.404C1050.4 206.553 1050.5 206.81 1050.5 207.174C1050.5 207.538 1050.4 207.799 1050.22 207.958C1050.03 208.117 1049.8 208.196 1049.53 208.196C1049.27 208.196 1049.05 208.117 1048.86 207.958C1048.67 207.799 1048.58 207.538 1048.58 207.174ZM1063.94 208H1062.19L1058.91 203.394L1057.93 204.206V208H1056.42V198.004H1057.93V202.834C1058.18 202.545 1058.42 202.26 1058.66 201.98C1058.9 201.7 1059.15 201.42 1059.39 201.14L1062.09 198.004H1063.83L1060.01 202.372L1063.94 208ZM1068.14 208.14C1067.45 208.14 1066.84 208.005 1066.32 207.734C1065.79 207.463 1065.39 207.043 1065.1 206.474C1064.81 205.895 1064.67 205.163 1064.67 204.276C1064.67 203.343 1064.82 202.587 1065.13 202.008C1065.44 201.429 1065.87 201.005 1066.4 200.734C1066.94 200.454 1067.56 200.314 1068.25 200.314C1068.67 200.314 1069.06 200.361 1069.43 200.454C1069.8 200.538 1070.11 200.636 1070.35 200.748L1069.9 201.952C1069.64 201.849 1069.36 201.761 1069.06 201.686C1068.77 201.611 1068.5 201.574 1068.24 201.574C1067.77 201.574 1067.38 201.677 1067.07 201.882C1066.77 202.078 1066.55 202.377 1066.4 202.778C1066.26 203.17 1066.19 203.665 1066.19 204.262C1066.19 204.831 1066.27 205.312 1066.42 205.704C1066.56 206.096 1066.78 206.395 1067.07 206.6C1067.37 206.796 1067.74 206.894 1068.18 206.894C1068.6 206.894 1068.97 206.847 1069.29 206.754C1069.6 206.661 1069.9 206.539 1070.18 206.39V207.678C1069.91 207.837 1069.62 207.953 1069.3 208.028C1068.98 208.103 1068.59 208.14 1068.14 208.14ZM1067.12 199.516C1066.98 199.301 1066.82 199.073 1066.61 198.83C1066.41 198.578 1066.19 198.331 1065.97 198.088C1065.74 197.845 1065.55 197.635 1065.38 197.458V197.276H1066.39C1066.63 197.435 1066.88 197.621 1067.14 197.836C1067.41 198.051 1067.67 198.284 1067.9 198.536C1068.15 198.284 1068.41 198.051 1068.67 197.836C1068.94 197.621 1069.2 197.435 1069.44 197.276H1070.46V197.458C1070.29 197.635 1070.09 197.845 1069.86 198.088C1069.64 198.331 1069.42 198.578 1069.2 198.83C1069 199.073 1068.83 199.301 1068.71 199.516H1067.12Z" fill="#F3FBFF"/>
<path opacity="0.48" d="M893.208 380H891.738V373.364C891.738 373.131 891.738 372.916 891.738 372.72C891.747 372.515 891.757 372.319 891.766 372.132C891.775 371.936 891.785 371.749 891.794 371.572C891.673 371.693 891.547 371.81 891.416 371.922C891.285 372.034 891.136 372.165 890.968 372.314L889.876 373.196L889.12 372.244L891.976 370.004H893.208V380ZM901.22 380H899.75V373.364C899.75 373.131 899.75 372.916 899.75 372.72C899.759 372.515 899.768 372.319 899.778 372.132C899.787 371.936 899.796 371.749 899.806 371.572C899.684 371.693 899.558 371.81 899.428 371.922C899.297 372.034 899.148 372.165 898.98 372.314L897.888 373.196L897.132 372.244L899.988 370.004H901.22V380ZM909.287 370.004L905.563 380H904.149L907.873 370.004H909.287ZM914.604 380H913.134V373.364C913.134 373.131 913.134 372.916 913.134 372.72C913.144 372.515 913.153 372.319 913.162 372.132C913.172 371.936 913.181 371.749 913.19 371.572C913.069 371.693 912.943 371.81 912.812 371.922C912.682 372.034 912.532 372.165 912.364 372.314L911.272 373.196L910.516 372.244L913.372 370.004H914.604V380ZM924.786 374.988C924.786 375.8 924.721 376.523 924.59 377.158C924.469 377.793 924.273 378.334 924.002 378.782C923.741 379.221 923.391 379.557 922.952 379.79C922.523 380.023 922.005 380.14 921.398 380.14C920.633 380.14 920.003 379.935 919.508 379.524C919.014 379.113 918.645 378.525 918.402 377.76C918.16 376.985 918.038 376.061 918.038 374.988C918.038 373.905 918.146 372.981 918.36 372.216C918.584 371.451 918.944 370.867 919.438 370.466C919.933 370.055 920.586 369.85 921.398 369.85C922.164 369.85 922.794 370.055 923.288 370.466C923.792 370.867 924.166 371.451 924.408 372.216C924.66 372.981 924.786 373.905 924.786 374.988ZM919.522 374.988C919.522 375.856 919.583 376.579 919.704 377.158C919.826 377.737 920.022 378.171 920.292 378.46C920.572 378.749 920.941 378.894 921.398 378.894C921.856 378.894 922.22 378.754 922.49 378.474C922.77 378.185 922.971 377.751 923.092 377.172C923.223 376.584 923.288 375.856 923.288 374.988C923.288 374.12 923.223 373.401 923.092 372.832C922.971 372.253 922.77 371.819 922.49 371.53C922.22 371.241 921.856 371.096 921.398 371.096C920.941 371.096 920.572 371.241 920.292 371.53C920.022 371.819 919.826 372.253 919.704 372.832C919.583 373.401 919.522 374.12 919.522 374.988Z" fill="#F3FBFF"/>
<path opacity="0.4" d="M749.208 380H747.738V373.364C747.738 373.131 747.738 372.916 747.738 372.72C747.747 372.515 747.757 372.319 747.766 372.132C747.775 371.936 747.785 371.749 747.794 371.572C747.673 371.693 747.547 371.81 747.416 371.922C747.285 372.034 747.136 372.165 746.968 372.314L745.876 373.196L745.12 372.244L747.976 370.004H749.208V380ZM759.39 374.988C759.39 375.8 759.324 376.523 759.194 377.158C759.072 377.793 758.876 378.334 758.606 378.782C758.344 379.221 757.994 379.557 757.556 379.79C757.126 380.023 756.608 380.14 756.002 380.14C755.236 380.14 754.606 379.935 754.112 379.524C753.617 379.113 753.248 378.525 753.006 377.76C752.763 376.985 752.642 376.061 752.642 374.988C752.642 373.905 752.749 372.981 752.964 372.216C753.188 371.451 753.547 370.867 754.042 370.466C754.536 370.055 755.19 369.85 756.002 369.85C756.767 369.85 757.397 370.055 757.892 370.466C758.396 370.867 758.769 371.451 759.012 372.216C759.264 372.981 759.39 373.905 759.39 374.988ZM754.126 374.988C754.126 375.856 754.186 376.579 754.308 377.158C754.429 377.737 754.625 378.171 754.896 378.46C755.176 378.749 755.544 378.894 756.002 378.894C756.459 378.894 756.823 378.754 757.094 378.474C757.374 378.185 757.574 377.751 757.696 377.172C757.826 376.584 757.892 375.856 757.892 374.988C757.892 374.12 757.826 373.401 757.696 372.832C757.574 372.253 757.374 371.819 757.094 371.53C756.823 371.241 756.459 371.096 756.002 371.096C755.544 371.096 755.176 371.241 754.896 371.53C754.625 371.819 754.429 372.253 754.308 372.832C754.186 373.401 754.126 374.12 754.126 374.988ZM765.287 370.004L761.563 380H760.149L763.873 370.004H765.287ZM770.604 380H769.134V373.364C769.134 373.131 769.134 372.916 769.134 372.72C769.144 372.515 769.153 372.319 769.162 372.132C769.172 371.936 769.181 371.749 769.19 371.572C769.069 371.693 768.943 371.81 768.812 371.922C768.682 372.034 768.532 372.165 768.364 372.314L767.272 373.196L766.516 372.244L769.372 370.004H770.604V380ZM780.786 374.988C780.786 375.8 780.721 376.523 780.59 377.158C780.469 377.793 780.273 378.334 780.002 378.782C779.741 379.221 779.391 379.557 778.952 379.79C778.523 380.023 778.005 380.14 777.398 380.14C776.633 380.14 776.003 379.935 775.508 379.524C775.014 379.113 774.645 378.525 774.402 377.76C774.16 376.985 774.038 376.061 774.038 374.988C774.038 373.905 774.146 372.981 774.36 372.216C774.584 371.451 774.944 370.867 775.438 370.466C775.933 370.055 776.586 369.85 777.398 369.85C778.164 369.85 778.794 370.055 779.288 370.466C779.792 370.867 780.166 371.451 780.408 372.216C780.66 372.981 780.786 373.905 780.786 374.988ZM775.522 374.988C775.522 375.856 775.583 376.579 775.704 377.158C775.826 377.737 776.022 378.171 776.292 378.46C776.572 378.749 776.941 378.894 777.398 378.894C777.856 378.894 778.22 378.754 778.49 378.474C778.77 378.185 778.971 377.751 779.092 377.172C779.223 376.584 779.288 375.856 779.288 374.988C779.288 374.12 779.223 373.401 779.092 372.832C778.971 372.253 778.77 371.819 778.49 371.53C778.22 371.241 777.856 371.096 777.398 371.096C776.941 371.096 776.572 371.241 776.292 371.53C776.022 371.819 775.826 372.253 775.704 372.832C775.583 373.401 775.522 374.12 775.522 374.988Z" fill="#F3FBFF"/>
<path opacity="0.24" d="M607.35 374.274C607.35 374.843 607.308 375.413 607.224 375.982C607.14 376.542 607 377.074 606.804 377.578C606.608 378.073 606.328 378.516 605.964 378.908C605.609 379.291 605.157 379.594 604.606 379.818C604.065 380.033 603.407 380.14 602.632 380.14C602.445 380.14 602.226 380.131 601.974 380.112C601.722 380.093 601.512 380.061 601.344 380.014V378.768C601.521 378.824 601.717 378.866 601.932 378.894C602.156 378.922 602.371 378.936 602.576 378.936C603.22 378.936 603.747 378.843 604.158 378.656C604.578 378.46 604.909 378.189 605.152 377.844C605.404 377.499 605.586 377.097 605.698 376.64C605.81 376.183 605.875 375.697 605.894 375.184H605.81C605.67 375.399 605.497 375.595 605.292 375.772C605.087 375.949 604.835 376.089 604.536 376.192C604.247 376.295 603.897 376.346 603.486 376.346C602.917 376.346 602.413 376.225 601.974 375.982C601.545 375.739 601.213 375.394 600.98 374.946C600.747 374.489 600.63 373.933 600.63 373.28C600.63 372.571 600.761 371.964 601.022 371.46C601.293 370.947 601.671 370.555 602.156 370.284C602.651 370.013 603.225 369.878 603.878 369.878C604.363 369.878 604.816 369.967 605.236 370.144C605.656 370.321 606.025 370.592 606.342 370.956C606.659 371.32 606.907 371.777 607.084 372.328C607.261 372.879 607.35 373.527 607.35 374.274ZM603.892 371.096C603.36 371.096 602.926 371.273 602.59 371.628C602.254 371.983 602.086 372.524 602.086 373.252C602.086 373.849 602.226 374.321 602.506 374.666C602.795 375.011 603.239 375.184 603.836 375.184C604.247 375.184 604.601 375.1 604.9 374.932C605.199 374.755 605.432 374.54 605.6 374.288C605.768 374.027 605.852 373.756 605.852 373.476C605.852 373.196 605.81 372.916 605.726 372.636C605.642 372.356 605.521 372.099 605.362 371.866C605.203 371.633 604.998 371.446 604.746 371.306C604.503 371.166 604.219 371.096 603.892 371.096ZM613.276 370.004L609.552 380H608.138L611.862 370.004H613.276ZM618.593 380H617.123V373.364C617.123 373.131 617.123 372.916 617.123 372.72C617.132 372.515 617.141 372.319 617.151 372.132C617.16 371.936 617.169 371.749 617.179 371.572C617.057 371.693 616.931 371.81 616.801 371.922C616.67 372.034 616.521 372.165 616.353 372.314L615.261 373.196L614.505 372.244L617.361 370.004H618.593V380ZM628.774 374.988C628.774 375.8 628.709 376.523 628.578 377.158C628.457 377.793 628.261 378.334 627.99 378.782C627.729 379.221 627.379 379.557 626.94 379.79C626.511 380.023 625.993 380.14 625.386 380.14C624.621 380.14 623.991 379.935 623.496 379.524C623.002 379.113 622.633 378.525 622.39 377.76C622.148 376.985 622.026 376.061 622.026 374.988C622.026 373.905 622.134 372.981 622.348 372.216C622.572 371.451 622.932 370.867 623.426 370.466C623.921 370.055 624.574 369.85 625.386 369.85C626.152 369.85 626.782 370.055 627.276 370.466C627.78 370.867 628.154 371.451 628.396 372.216C628.648 372.981 628.774 373.905 628.774 374.988ZM623.51 374.988C623.51 375.856 623.571 376.579 623.692 377.158C623.814 377.737 624.01 378.171 624.28 378.46C624.56 378.749 624.929 378.894 625.386 378.894C625.844 378.894 626.208 378.754 626.478 378.474C626.758 378.185 626.959 377.751 627.08 377.172C627.211 376.584 627.276 375.856 627.276 374.988C627.276 374.12 627.211 373.401 627.08 372.832C626.959 372.253 626.758 371.819 626.478 371.53C626.208 371.241 625.844 371.096 625.386 371.096C624.929 371.096 624.56 371.241 624.28 371.53C624.01 371.819 623.814 372.253 623.692 372.832C623.571 373.401 623.51 374.12 623.51 374.988Z" fill="#F3FBFF"/>
<path d="M456 355L456 359" stroke="#F3FBFF" stroke-opacity="0.08" stroke-linecap="round"/>
<path opacity="0.08" d="M459.99 369.864C460.578 369.864 461.101 369.957 461.558 370.144C462.015 370.321 462.375 370.587 462.636 370.942C462.907 371.297 463.042 371.74 463.042 372.272C463.042 372.673 462.958 373.023 462.79 373.322C462.622 373.621 462.398 373.887 462.118 374.12C461.838 374.344 461.525 374.54 461.18 374.708C461.572 374.904 461.931 375.128 462.258 375.38C462.594 375.623 462.86 375.907 463.056 376.234C463.261 376.561 463.364 376.953 463.364 377.41C463.364 377.97 463.224 378.455 462.944 378.866C462.673 379.267 462.286 379.58 461.782 379.804C461.278 380.028 460.69 380.14 460.018 380.14C459.299 380.14 458.683 380.033 458.17 379.818C457.666 379.603 457.283 379.3 457.022 378.908C456.761 378.507 456.63 378.021 456.63 377.452C456.63 376.995 456.723 376.598 456.91 376.262C457.097 375.926 457.344 375.637 457.652 375.394C457.96 375.151 458.296 374.946 458.66 374.778C458.343 374.591 458.053 374.381 457.792 374.148C457.531 373.905 457.325 373.63 457.176 373.322C457.027 373.014 456.952 372.659 456.952 372.258C456.952 371.735 457.087 371.301 457.358 370.956C457.629 370.601 457.993 370.331 458.45 370.144C458.917 369.957 459.43 369.864 459.99 369.864ZM458.058 377.424C458.058 377.881 458.217 378.259 458.534 378.558C458.851 378.847 459.337 378.992 459.99 378.992C460.419 378.992 460.774 378.927 461.054 378.796C461.343 378.656 461.563 378.469 461.712 378.236C461.861 377.993 461.936 377.718 461.936 377.41C461.936 377.102 461.852 376.831 461.684 376.598C461.525 376.365 461.301 376.159 461.012 375.982C460.732 375.795 460.405 375.627 460.032 375.478L459.822 375.394C459.439 375.553 459.117 375.73 458.856 375.926C458.595 376.122 458.394 376.341 458.254 376.584C458.123 376.827 458.058 377.107 458.058 377.424ZM459.976 371.026C459.519 371.026 459.136 371.138 458.828 371.362C458.529 371.586 458.38 371.913 458.38 372.342C458.38 372.65 458.455 372.911 458.604 373.126C458.753 373.341 458.954 373.527 459.206 373.686C459.458 373.835 459.733 373.98 460.032 374.12C460.331 373.989 460.597 373.849 460.83 373.7C461.063 373.541 461.25 373.355 461.39 373.14C461.53 372.916 461.6 372.65 461.6 372.342C461.6 371.913 461.451 371.586 461.152 371.362C460.853 371.138 460.461 371.026 459.976 371.026ZM469.276 370.004L465.552 380H464.138L467.862 370.004H469.276ZM474.593 380H473.123V373.364C473.123 373.131 473.123 372.916 473.123 372.72C473.132 372.515 473.141 372.319 473.151 372.132C473.16 371.936 473.169 371.749 473.179 371.572C473.057 371.693 472.931 371.81 472.801 371.922C472.67 372.034 472.521 372.165 472.353 372.314L471.261 373.196L470.505 372.244L473.361 370.004H474.593V380ZM484.774 374.988C484.774 375.8 484.709 376.523 484.578 377.158C484.457 377.793 484.261 378.334 483.99 378.782C483.729 379.221 483.379 379.557 482.94 379.79C482.511 380.023 481.993 380.14 481.386 380.14C480.621 380.14 479.991 379.935 479.496 379.524C479.002 379.113 478.633 378.525 478.39 377.76C478.148 376.985 478.026 376.061 478.026 374.988C478.026 373.905 478.134 372.981 478.348 372.216C478.572 371.451 478.932 370.867 479.426 370.466C479.921 370.055 480.574 369.85 481.386 369.85C482.152 369.85 482.782 370.055 483.276 370.466C483.78 370.867 484.154 371.451 484.396 372.216C484.648 372.981 484.774 373.905 484.774 374.988ZM479.51 374.988C479.51 375.856 479.571 376.579 479.692 377.158C479.814 377.737 480.01 378.171 480.28 378.46C480.56 378.749 480.929 378.894 481.386 378.894C481.844 378.894 482.208 378.754 482.478 378.474C482.758 378.185 482.959 377.751 483.08 377.172C483.211 376.584 483.276 375.856 483.276 374.988C483.276 374.12 483.211 373.401 483.08 372.832C482.959 372.253 482.758 371.819 482.478 371.53C482.208 371.241 481.844 371.096 481.386 371.096C480.929 371.096 480.56 371.241 480.28 371.53C480.01 371.819 479.814 372.253 479.692 372.832C479.571 373.401 479.51 374.12 479.51 374.988Z" fill="#F3FBFF"/>
<path opacity="0.48" d="M1011.38 352.988C1011.38 353.8 1011.31 354.523 1011.18 355.158C1011.06 355.793 1010.86 356.334 1010.59 356.782C1010.33 357.221 1009.98 357.557 1009.54 357.79C1009.11 358.023 1008.6 358.14 1007.99 358.14C1007.22 358.14 1006.59 357.935 1006.1 357.524C1005.61 357.113 1005.24 356.525 1004.99 355.76C1004.75 354.985 1004.63 354.061 1004.63 352.988C1004.63 351.905 1004.74 350.981 1004.95 350.216C1005.18 349.451 1005.54 348.867 1006.03 348.466C1006.52 348.055 1007.18 347.85 1007.99 347.85C1008.76 347.85 1009.39 348.055 1009.88 348.466C1010.38 348.867 1010.76 349.451 1011 350.216C1011.25 350.981 1011.38 351.905 1011.38 352.988ZM1006.11 352.988C1006.11 353.856 1006.17 354.579 1006.3 355.158C1006.42 355.737 1006.61 356.171 1006.88 356.46C1007.16 356.749 1007.53 356.894 1007.99 356.894C1008.45 356.894 1008.81 356.754 1009.08 356.474C1009.36 356.185 1009.56 355.751 1009.68 355.172C1009.81 354.584 1009.88 353.856 1009.88 352.988C1009.88 352.12 1009.81 351.401 1009.68 350.832C1009.56 350.253 1009.36 349.819 1009.08 349.53C1008.81 349.241 1008.45 349.096 1007.99 349.096C1007.53 349.096 1007.16 349.241 1006.88 349.53C1006.61 349.819 1006.42 350.253 1006.3 350.832C1006.17 351.401 1006.11 352.12 1006.11 352.988Z" fill="#F3FBFF"/>
<path opacity="0.32" d="M583 183.223L688.407 183.223C692.332 183.223 695.805 185.766 696.988 189.508L710.5 232.223" stroke="#F3FBFF" stroke-linecap="round" stroke-dasharray="3 3"/>
<path opacity="0.32" d="M723 313L822.14 313C825.629 313 828.715 310.739 829.767 307.413L843.5 264" stroke="#F3FBFF" stroke-linecap="round" stroke-dasharray="3 3"/>
<g filter="url(#filter3_d_6_706)">
<circle cx="845" cy="259" r="4" fill="#0E3F5F"/>
<circle cx="845" cy="259" r="4" stroke="#4292C8" stroke-linecap="round"/>
</g>
<path d="M724.768 288.8C724.768 289.163 724.757 289.504 724.736 289.824C724.725 290.133 724.709 290.379 724.688 290.56H724.768C725.013 290.197 725.349 289.893 725.776 289.648C726.203 289.403 726.752 289.28 727.424 289.28C728.491 289.28 729.344 289.653 729.984 290.4C730.635 291.136 730.96 292.24 730.96 293.712C730.96 294.693 730.811 295.515 730.512 296.176C730.224 296.837 729.813 297.333 729.28 297.664C728.747 297.995 728.128 298.16 727.424 298.16C726.752 298.16 726.203 298.037 725.776 297.792C725.349 297.547 725.013 297.253 724.768 296.912H724.656L724.368 298H723.36V285.84H724.768V288.8ZM727.184 290.448C726.576 290.448 726.096 290.565 725.744 290.8C725.392 291.024 725.141 291.376 724.992 291.856C724.843 292.325 724.768 292.928 724.768 293.664V293.728C724.768 294.784 724.939 295.595 725.28 296.16C725.632 296.715 726.277 296.992 727.216 296.992C727.984 296.992 728.555 296.709 728.928 296.144C729.312 295.579 729.504 294.763 729.504 293.696C729.504 292.619 729.312 291.808 728.928 291.264C728.555 290.72 727.973 290.448 727.184 290.448ZM736.516 289.264C737.252 289.264 737.881 289.424 738.404 289.744C738.937 290.064 739.342 290.517 739.62 291.104C739.908 291.68 740.052 292.357 740.052 293.136V293.984H734.18C734.201 294.955 734.446 295.696 734.916 296.208C735.396 296.709 736.062 296.96 736.916 296.96C737.46 296.96 737.94 296.912 738.356 296.816C738.782 296.709 739.22 296.56 739.668 296.368V297.6C739.23 297.792 738.798 297.931 738.372 298.016C737.945 298.112 737.438 298.16 736.852 298.16C736.041 298.16 735.321 297.995 734.692 297.664C734.073 297.333 733.588 296.843 733.236 296.192C732.894 295.531 732.724 294.725 732.724 293.776C732.724 292.837 732.878 292.032 733.188 291.36C733.508 290.688 733.95 290.171 734.516 289.808C735.092 289.445 735.758 289.264 736.516 289.264ZM736.5 290.416C735.828 290.416 735.294 290.635 734.9 291.072C734.516 291.499 734.286 292.096 734.212 292.864H738.58C738.58 292.373 738.505 291.947 738.356 291.584C738.206 291.221 737.977 290.939 737.668 290.736C737.369 290.523 736.98 290.416 736.5 290.416ZM747.615 298H741.343V297.072L745.951 290.512H741.615V289.424H747.503V290.48L742.959 296.912H747.615V298ZM763.095 292.176C763.095 293.456 762.855 294.528 762.375 295.392C761.905 296.256 761.228 296.907 760.343 297.344C759.457 297.781 758.385 298 757.127 298H753.943V286.576H757.463C758.615 286.576 759.612 286.789 760.455 287.216C761.297 287.643 761.948 288.272 762.407 289.104C762.865 289.925 763.095 290.949 763.095 292.176ZM761.575 292.224C761.575 291.211 761.404 290.379 761.063 289.728C760.732 289.077 760.241 288.597 759.591 288.288C758.951 287.968 758.172 287.808 757.255 287.808H755.383V296.768H756.935C758.481 296.768 759.639 296.389 760.407 295.632C761.185 294.864 761.575 293.728 761.575 292.224ZM768.686 289.28C769.731 289.28 770.505 289.509 771.006 289.968C771.507 290.427 771.758 291.157 771.758 292.16V298H770.734L770.462 296.784H770.398C770.153 297.093 769.897 297.355 769.63 297.568C769.374 297.771 769.075 297.92 768.734 298.016C768.403 298.112 767.998 298.16 767.518 298.16C767.006 298.16 766.542 298.069 766.126 297.888C765.721 297.707 765.401 297.429 765.166 297.056C764.931 296.672 764.814 296.192 764.814 295.616C764.814 294.763 765.15 294.107 765.822 293.648C766.494 293.179 767.529 292.923 768.926 292.88L770.382 292.832V292.32C770.382 291.605 770.227 291.109 769.918 290.832C769.609 290.555 769.171 290.416 768.606 290.416C768.158 290.416 767.731 290.485 767.326 290.624C766.921 290.752 766.542 290.901 766.19 291.072L765.758 290.016C766.131 289.813 766.574 289.643 767.086 289.504C767.598 289.355 768.131 289.28 768.686 289.28ZM769.102 293.856C768.035 293.899 767.294 294.069 766.878 294.368C766.473 294.667 766.27 295.088 766.27 295.632C766.27 296.112 766.414 296.464 766.702 296.688C767.001 296.912 767.379 297.024 767.838 297.024C768.563 297.024 769.166 296.827 769.646 296.432C770.126 296.027 770.366 295.408 770.366 294.576V293.808L769.102 293.856ZM777.271 297.008C777.484 297.008 777.703 296.992 777.927 296.96C778.151 296.917 778.332 296.875 778.471 296.832V297.904C778.322 297.979 778.108 298.037 777.831 298.08C777.554 298.133 777.287 298.16 777.031 298.16C776.583 298.16 776.167 298.085 775.783 297.936C775.41 297.776 775.106 297.504 774.871 297.12C774.636 296.736 774.519 296.197 774.519 295.504V290.512H773.303V289.84L774.535 289.28L775.095 287.456H775.927V289.424H778.407V290.512H775.927V295.472C775.927 295.995 776.05 296.384 776.295 296.64C776.551 296.885 776.876 297.008 777.271 297.008ZM783.436 289.28C784.481 289.28 785.255 289.509 785.756 289.968C786.257 290.427 786.508 291.157 786.508 292.16V298H785.484L785.212 296.784H785.148C784.903 297.093 784.647 297.355 784.38 297.568C784.124 297.771 783.825 297.92 783.484 298.016C783.153 298.112 782.748 298.16 782.268 298.16C781.756 298.16 781.292 298.069 780.876 297.888C780.471 297.707 780.151 297.429 779.916 297.056C779.681 296.672 779.564 296.192 779.564 295.616C779.564 294.763 779.9 294.107 780.572 293.648C781.244 293.179 782.279 292.923 783.676 292.88L785.132 292.832V292.32C785.132 291.605 784.977 291.109 784.668 290.832C784.359 290.555 783.921 290.416 783.356 290.416C782.908 290.416 782.481 290.485 782.076 290.624C781.671 290.752 781.292 290.901 780.94 291.072L780.508 290.016C780.881 289.813 781.324 289.643 781.836 289.504C782.348 289.355 782.881 289.28 783.436 289.28ZM783.852 293.856C782.785 293.899 782.044 294.069 781.628 294.368C781.223 294.667 781.02 295.088 781.02 295.632C781.02 296.112 781.164 296.464 781.452 296.688C781.751 296.912 782.129 297.024 782.588 297.024C783.313 297.024 783.916 296.827 784.396 296.432C784.876 296.027 785.116 295.408 785.116 294.576V293.808L783.852 293.856ZM792.373 286.576C793.866 286.576 794.954 286.869 795.637 287.456C796.32 288.043 796.661 288.869 796.661 289.936C796.661 290.405 796.581 290.859 796.421 291.296C796.272 291.723 796.021 292.107 795.669 292.448C795.317 292.789 794.848 293.061 794.261 293.264C793.674 293.456 792.954 293.552 792.101 293.552H790.789V298H789.349V286.576H792.373ZM792.245 287.808H790.789V292.32H791.941C792.666 292.32 793.269 292.245 793.749 292.096C794.229 291.936 794.586 291.685 794.821 291.344C795.056 291.003 795.173 290.555 795.173 290C795.173 289.264 794.938 288.715 794.469 288.352C794 287.989 793.258 287.808 792.245 287.808ZM800.252 298H798.844V285.84H800.252V298ZM810.137 289.424V298H808.985L808.777 296.864H808.713C808.532 297.163 808.297 297.408 808.009 297.6C807.721 297.792 807.407 297.931 807.065 298.016C806.724 298.112 806.367 298.16 805.993 298.16C805.311 298.16 804.735 298.053 804.265 297.84C803.807 297.616 803.46 297.275 803.225 296.816C802.991 296.357 802.873 295.765 802.873 295.04V289.424H804.297V294.944C804.297 295.627 804.452 296.139 804.761 296.48C805.071 296.821 805.551 296.992 806.201 296.992C806.841 296.992 807.343 296.875 807.705 296.64C808.079 296.395 808.34 296.043 808.489 295.584C808.649 295.115 808.729 294.549 808.729 293.888V289.424H810.137ZM818.444 295.632C818.444 296.187 818.305 296.651 818.028 297.024C817.751 297.397 817.356 297.68 816.844 297.872C816.332 298.064 815.724 298.16 815.02 298.16C814.423 298.16 813.905 298.112 813.468 298.016C813.041 297.92 812.663 297.787 812.332 297.616V296.336C812.673 296.507 813.084 296.667 813.564 296.816C814.055 296.955 814.551 297.024 815.052 297.024C815.767 297.024 816.284 296.912 816.604 296.688C816.924 296.453 817.084 296.144 817.084 295.76C817.084 295.547 817.025 295.355 816.908 295.184C816.791 295.013 816.577 294.843 816.268 294.672C815.969 294.501 815.537 294.309 814.972 294.096C814.417 293.883 813.943 293.669 813.548 293.456C813.153 293.243 812.849 292.987 812.636 292.688C812.423 292.389 812.316 292.005 812.316 291.536C812.316 290.811 812.609 290.251 813.196 289.856C813.793 289.461 814.572 289.264 815.532 289.264C816.055 289.264 816.54 289.317 816.988 289.424C817.447 289.52 817.873 289.659 818.268 289.84L817.788 290.96C817.553 290.853 817.303 290.763 817.036 290.688C816.78 290.603 816.519 290.539 816.252 290.496C815.985 290.443 815.713 290.416 815.436 290.416C814.86 290.416 814.417 290.512 814.108 290.704C813.809 290.885 813.66 291.136 813.66 291.456C813.66 291.691 813.729 291.893 813.868 292.064C814.007 292.224 814.236 292.384 814.556 292.544C814.887 292.693 815.324 292.875 815.868 293.088C816.412 293.291 816.876 293.499 817.26 293.712C817.644 293.925 817.937 294.187 818.14 294.496C818.343 294.795 818.444 295.173 818.444 295.632Z" fill="#ABD8F7"/>
<path d="M668.614 146.033C668.88 146.033 669.128 146.001 669.356 145.938C669.585 145.868 669.781 145.773 669.946 145.652C670.111 145.526 670.241 145.373 670.337 145.196C670.432 145.012 670.479 144.802 670.479 144.567C670.479 144.345 670.435 144.149 670.346 143.977C670.264 143.806 670.13 143.647 669.946 143.501C669.769 143.349 669.54 143.2 669.261 143.054C668.988 142.908 668.661 142.743 668.281 142.559C667.9 142.382 667.554 142.191 667.243 141.988C666.939 141.785 666.679 141.56 666.463 141.312C666.247 141.065 666.079 140.789 665.958 140.484C665.844 140.18 665.787 139.837 665.787 139.456C665.787 138.981 665.889 138.552 666.092 138.172C666.295 137.791 666.587 137.467 666.967 137.201C667.348 136.928 667.808 136.722 668.347 136.582C668.893 136.436 669.509 136.363 670.194 136.363C670.847 136.363 671.399 136.414 671.85 136.515C672.307 136.617 672.675 136.753 672.954 136.925C673.24 137.09 673.443 137.283 673.563 137.505C673.69 137.727 673.753 137.956 673.753 138.191C673.753 138.711 673.554 139.088 673.154 139.323C672.754 139.558 672.208 139.675 671.517 139.675C671.517 139.415 671.491 139.155 671.441 138.895C671.39 138.628 671.304 138.387 671.184 138.172C671.063 137.956 670.908 137.781 670.717 137.648C670.527 137.515 670.292 137.448 670.013 137.448C669.759 137.448 669.531 137.486 669.328 137.562C669.131 137.632 668.96 137.731 668.814 137.857C668.674 137.978 668.566 138.121 668.49 138.286C668.414 138.451 668.376 138.628 668.376 138.819C668.376 139.034 668.417 139.222 668.5 139.38C668.589 139.539 668.722 139.688 668.899 139.828C669.083 139.967 669.315 140.107 669.594 140.246C669.873 140.38 670.203 140.532 670.584 140.703C671.003 140.894 671.365 141.097 671.669 141.312C671.974 141.522 672.224 141.753 672.421 142.007C672.624 142.255 672.773 142.527 672.868 142.826C672.97 143.118 673.021 143.444 673.021 143.806C673.021 144.333 672.919 144.805 672.716 145.224C672.519 145.643 672.221 145.998 671.821 146.29C671.422 146.582 670.927 146.807 670.337 146.966C669.747 147.118 669.061 147.194 668.281 147.194C667.722 147.194 667.215 147.147 666.758 147.052C666.307 146.956 665.92 146.817 665.597 146.633C665.28 146.449 665.032 146.224 664.854 145.957C664.683 145.691 664.597 145.389 664.597 145.053C664.597 144.748 664.658 144.491 664.778 144.282C664.899 144.073 665.054 143.904 665.245 143.777C665.441 143.644 665.663 143.549 665.911 143.492C666.165 143.428 666.422 143.397 666.682 143.397C666.682 143.746 666.717 144.079 666.786 144.396C666.856 144.713 666.967 144.996 667.12 145.243C667.272 145.484 667.469 145.678 667.71 145.824C667.957 145.963 668.259 146.033 668.614 146.033Z" fill="#0AB0A4"/>
<path d="M658.696 145.329C658.696 145.272 658.7 145.205 658.706 145.129C658.712 145.053 658.719 144.973 658.725 144.891C658.738 144.809 658.747 144.732 658.754 144.663C658.766 144.586 658.779 144.523 658.792 144.472H658.63C658.344 144.878 658.062 145.246 657.783 145.576C657.51 145.906 657.218 146.192 656.907 146.433C656.596 146.668 656.26 146.852 655.898 146.985C655.537 147.112 655.124 147.175 654.661 147.175C654.242 147.175 653.89 147.118 653.604 147.004C653.319 146.883 653.09 146.725 652.919 146.528C652.748 146.331 652.624 146.103 652.548 145.843C652.472 145.576 652.434 145.3 652.434 145.015C652.434 144.691 652.472 144.336 652.548 143.949C652.624 143.562 652.697 143.203 652.767 142.873L653.471 139.437C653.522 139.171 653.563 138.93 653.595 138.714C653.627 138.498 653.643 138.336 653.643 138.229C653.643 137.968 653.563 137.797 653.405 137.715C653.246 137.632 652.983 137.591 652.615 137.591H652.262L652.434 136.553H657.117L655.832 142.388C655.794 142.54 655.755 142.711 655.717 142.902C655.679 143.092 655.644 143.283 655.613 143.473C655.581 143.663 655.552 143.844 655.527 144.015C655.508 144.187 655.498 144.333 655.498 144.453C655.498 144.739 655.559 144.967 655.679 145.138C655.8 145.303 656.019 145.386 656.336 145.386C656.622 145.386 656.913 145.259 657.212 145.005C657.516 144.745 657.805 144.412 658.078 144.006C658.357 143.593 658.604 143.137 658.82 142.635C659.036 142.128 659.201 141.63 659.315 141.141L660.353 136.553H663.255L661.932 142.892C661.85 143.248 661.783 143.581 661.733 143.892C661.682 144.196 661.656 144.485 661.656 144.758C661.656 145.043 661.714 145.262 661.828 145.414C661.948 145.567 662.12 145.643 662.342 145.643C662.545 145.643 662.729 145.605 662.894 145.529C663.065 145.453 663.262 145.342 663.484 145.196L663.96 145.852C663.801 146.017 663.623 146.182 663.427 146.347C663.23 146.506 663.008 146.649 662.761 146.776C662.519 146.902 662.25 147.004 661.952 147.08C661.653 147.156 661.327 147.194 660.971 147.194C660.54 147.194 660.178 147.144 659.886 147.042C659.601 146.947 659.369 146.817 659.191 146.652C659.014 146.48 658.887 146.284 658.811 146.062C658.735 145.833 658.696 145.589 658.696 145.329Z" fill="#0AB0A4"/>
<path d="M648.893 145.643C649.096 145.643 649.283 145.605 649.455 145.529C649.626 145.453 649.823 145.342 650.045 145.196L650.511 145.852C650.359 146.017 650.184 146.182 649.988 146.347C649.791 146.506 649.569 146.649 649.321 146.776C649.08 146.902 648.811 147.004 648.512 147.08C648.214 147.156 647.887 147.194 647.532 147.194C646.783 147.194 646.209 147.02 645.809 146.671C645.41 146.315 645.21 145.824 645.21 145.196C645.21 144.637 645.314 143.863 645.524 142.873L647.218 134.878C647.237 134.796 647.256 134.71 647.275 134.621C647.294 134.533 647.31 134.45 647.323 134.374C647.335 134.291 647.345 134.222 647.351 134.165C647.358 134.107 647.361 134.066 647.361 134.041C647.361 133.863 647.342 133.72 647.304 133.612C647.266 133.505 647.205 133.422 647.123 133.365C647.04 133.308 646.932 133.27 646.799 133.251C646.666 133.232 646.507 133.222 646.323 133.222H645.914L646.095 132.194H650.806L648.484 142.892C648.408 143.248 648.344 143.581 648.293 143.892C648.243 144.196 648.217 144.485 648.217 144.758C648.217 145.043 648.274 145.262 648.389 145.414C648.509 145.567 648.677 145.643 648.893 145.643Z" fill="#0AB0A4"/>
<path d="M637.12 140.551H637.938C638.528 140.551 639.026 140.462 639.432 140.284C639.845 140.107 640.178 139.859 640.432 139.542C640.686 139.218 640.87 138.838 640.984 138.4C641.098 137.956 641.155 137.47 641.155 136.944C641.155 136.455 641.098 136.039 640.984 135.697C640.876 135.354 640.724 135.075 640.527 134.859C640.33 134.644 640.092 134.488 639.813 134.393C639.54 134.291 639.242 134.241 638.918 134.241H638.49L637.12 140.551ZM636.187 144.862C636.168 144.932 636.149 145.012 636.13 145.1C636.117 145.189 636.111 145.259 636.111 145.31C636.111 145.449 636.146 145.564 636.215 145.652C636.285 145.735 636.384 145.802 636.51 145.852C636.637 145.897 636.786 145.928 636.958 145.947C637.135 145.96 637.326 145.966 637.529 145.966H638.176L637.957 147.004H630.866L631.076 145.966H631.333C631.536 145.966 631.733 145.954 631.923 145.928C632.12 145.903 632.297 145.849 632.456 145.767C632.615 145.684 632.751 145.567 632.865 145.414C632.986 145.262 633.071 145.059 633.122 144.805L635.111 135.449C635.194 135.113 635.235 134.891 635.235 134.783C635.235 134.644 635.2 134.529 635.13 134.441C635.061 134.352 634.962 134.285 634.835 134.241C634.715 134.19 634.566 134.158 634.388 134.145C634.217 134.126 634.03 134.117 633.826 134.117H633.579L633.788 133.089H639.366C640.127 133.089 640.816 133.171 641.431 133.336C642.047 133.495 642.567 133.736 642.992 134.06C643.424 134.377 643.753 134.774 643.982 135.25C644.217 135.719 644.334 136.265 644.334 136.887C644.334 137.217 644.302 137.566 644.239 137.934C644.175 138.302 644.061 138.663 643.896 139.019C643.738 139.374 643.516 139.713 643.23 140.037C642.944 140.354 642.58 140.637 642.135 140.884C641.698 141.125 641.168 141.319 640.546 141.465C639.931 141.611 639.204 141.684 638.366 141.684H636.891L636.187 144.862Z" fill="#0AB0A4"/>
<path d="M627.574 147.194C626.996 147.194 626.533 147.064 626.184 146.804C625.835 146.538 625.661 146.151 625.661 145.643C625.661 145.44 625.67 145.243 625.689 145.053C625.708 144.856 625.743 144.631 625.794 144.377H625.661C625.419 144.828 625.178 145.231 624.937 145.586C624.702 145.935 624.439 146.23 624.147 146.471C623.855 146.706 623.529 146.883 623.167 147.004C622.812 147.131 622.396 147.194 621.92 147.194C621.457 147.194 621.051 147.106 620.702 146.928C620.353 146.744 620.061 146.493 619.826 146.176C619.598 145.859 619.423 145.484 619.303 145.053C619.188 144.615 619.131 144.142 619.131 143.635C619.131 143.127 619.188 142.597 619.303 142.045C619.423 141.487 619.601 140.938 619.836 140.399C620.07 139.859 620.359 139.345 620.702 138.857C621.051 138.368 621.451 137.94 621.901 137.572C622.358 137.204 622.865 136.912 623.424 136.696C623.982 136.474 624.591 136.363 625.251 136.363C625.505 136.363 625.762 136.385 626.022 136.43C626.289 136.468 626.542 136.519 626.784 136.582C627.025 136.646 627.25 136.718 627.459 136.801C627.675 136.877 627.856 136.956 628.002 137.039L629.03 136.573H630.067L628.782 142.654C628.757 142.762 628.725 142.905 628.687 143.083C628.649 143.26 628.611 143.451 628.573 143.654C628.541 143.85 628.513 144.044 628.487 144.234C628.462 144.418 628.449 144.574 628.449 144.701C628.449 145.024 628.513 145.265 628.64 145.424C628.766 145.583 628.931 145.662 629.134 145.662C629.319 145.662 629.493 145.624 629.658 145.548C629.829 145.465 630.016 145.367 630.22 145.253L630.648 146.033C630.483 146.16 630.296 146.293 630.086 146.433C629.877 146.566 629.642 146.69 629.382 146.804C629.128 146.918 628.849 147.01 628.544 147.08C628.246 147.156 627.923 147.194 627.574 147.194ZM622.091 143.654C622.091 144.028 622.117 144.342 622.168 144.596C622.225 144.85 622.298 145.056 622.386 145.215C622.482 145.367 622.593 145.478 622.72 145.548C622.853 145.611 622.996 145.643 623.148 145.643C623.433 145.643 623.728 145.519 624.033 145.272C624.338 145.024 624.623 144.701 624.89 144.301C625.156 143.895 625.394 143.438 625.603 142.93C625.819 142.423 625.981 141.909 626.089 141.389L626.774 138.152C626.647 137.968 626.47 137.832 626.241 137.743C626.019 137.654 625.781 137.61 625.527 137.61C625.147 137.61 624.798 137.708 624.48 137.905C624.169 138.102 623.887 138.365 623.633 138.695C623.379 139.025 623.154 139.399 622.957 139.818C622.767 140.237 622.605 140.672 622.472 141.122C622.345 141.573 622.25 142.017 622.187 142.455C622.123 142.892 622.091 143.292 622.091 143.654Z" fill="white"/>
<path d="M615.486 145.605C615.791 145.605 616.067 145.554 616.314 145.453C616.561 145.351 616.793 145.231 617.009 145.091L617.456 145.833C617.24 146.017 617.012 146.192 616.771 146.357C616.536 146.522 616.279 146.668 616 146.795C615.721 146.915 615.419 147.01 615.096 147.08C614.778 147.156 614.433 147.194 614.058 147.194C613.703 147.194 613.37 147.147 613.059 147.052C612.754 146.963 612.488 146.826 612.259 146.642C612.031 146.452 611.85 146.214 611.717 145.928C611.59 145.643 611.527 145.307 611.527 144.92C611.527 144.805 611.53 144.678 611.536 144.539C611.549 144.399 611.565 144.257 611.584 144.111C611.603 143.965 611.625 143.822 611.65 143.682C611.676 143.536 611.701 143.403 611.726 143.283L612.897 137.886H611.393L611.603 136.887C611.882 136.887 612.186 136.839 612.516 136.744C612.846 136.649 613.183 136.493 613.525 136.277C613.874 136.062 614.22 135.779 614.563 135.43C614.912 135.081 615.238 134.656 615.543 134.155H616.676L616.171 136.554H618.522L618.256 137.886H615.876L614.705 143.225C614.636 143.511 614.585 143.771 614.553 144.006C614.528 144.234 614.515 144.441 614.515 144.625C614.515 144.948 614.604 145.192 614.782 145.357C614.959 145.522 615.194 145.605 615.486 145.605Z" fill="white"/>
<path d="M606.482 147.194C605.905 147.194 605.442 147.064 605.093 146.804C604.744 146.538 604.569 146.151 604.569 145.643C604.569 145.44 604.579 145.243 604.598 145.053C604.617 144.856 604.652 144.631 604.702 144.377H604.569C604.328 144.828 604.087 145.231 603.846 145.586C603.611 145.935 603.348 146.23 603.056 146.471C602.764 146.706 602.437 146.883 602.076 147.004C601.72 147.131 601.305 147.194 600.829 147.194C600.366 147.194 599.959 147.106 599.61 146.928C599.261 146.744 598.97 146.493 598.735 146.176C598.506 145.859 598.332 145.484 598.211 145.053C598.097 144.615 598.04 144.142 598.04 143.635C598.04 143.127 598.097 142.597 598.211 142.045C598.332 141.487 598.51 140.938 598.744 140.399C598.979 139.859 599.268 139.345 599.61 138.857C599.959 138.368 600.359 137.94 600.81 137.572C601.267 137.204 601.774 136.912 602.333 136.696C602.891 136.474 603.5 136.363 604.16 136.363C604.414 136.363 604.671 136.385 604.931 136.43C605.197 136.468 605.451 136.519 605.692 136.582C605.933 136.646 606.159 136.718 606.368 136.801C606.584 136.877 606.765 136.956 606.911 137.039L607.938 136.573H608.976L607.691 142.654C607.666 142.762 607.634 142.905 607.596 143.083C607.558 143.26 607.52 143.451 607.482 143.654C607.45 143.85 607.421 144.044 607.396 144.234C607.371 144.418 607.358 144.574 607.358 144.701C607.358 145.024 607.421 145.265 607.548 145.424C607.675 145.583 607.84 145.662 608.043 145.662C608.227 145.662 608.402 145.624 608.567 145.548C608.738 145.465 608.925 145.367 609.128 145.253L609.557 146.033C609.392 146.16 609.204 146.293 608.995 146.433C608.786 146.566 608.551 146.69 608.291 146.804C608.037 146.918 607.758 147.01 607.453 147.08C607.155 147.156 606.831 147.194 606.482 147.194ZM601 143.654C601 144.028 601.025 144.342 601.076 144.596C601.133 144.85 601.206 145.056 601.295 145.215C601.39 145.367 601.501 145.478 601.628 145.548C601.761 145.611 601.904 145.643 602.057 145.643C602.342 145.643 602.637 145.519 602.942 145.272C603.246 145.024 603.532 144.701 603.798 144.301C604.065 143.895 604.303 143.438 604.512 142.93C604.728 142.423 604.89 141.909 604.998 141.389L605.683 138.152C605.556 137.968 605.378 137.832 605.15 137.743C604.928 137.654 604.69 137.61 604.436 137.61C604.055 137.61 603.706 137.708 603.389 137.905C603.078 138.102 602.796 138.365 602.542 138.695C602.288 139.025 602.063 139.399 601.866 139.818C601.676 140.237 601.514 140.672 601.381 141.122C601.254 141.573 601.159 142.017 601.095 142.455C601.032 142.892 601 143.292 601 143.654Z" fill="white"/>
<path d="M582.022 145.966H582.298C582.501 145.966 582.697 145.954 582.888 145.928C583.084 145.903 583.262 145.849 583.421 145.767C583.579 145.684 583.716 145.567 583.83 145.414C583.951 145.262 584.036 145.059 584.087 144.805L586.114 135.23C586.14 135.161 586.159 135.081 586.171 134.993C586.19 134.904 586.2 134.834 586.2 134.783C586.2 134.644 586.165 134.529 586.095 134.441C586.025 134.352 585.927 134.285 585.8 134.241C585.68 134.19 585.531 134.158 585.353 134.145C585.182 134.126 584.994 134.117 584.791 134.117H584.544L584.753 133.089H590.987C591.92 133.089 592.751 133.203 593.481 133.432C594.217 133.66 594.836 134 595.337 134.45C595.845 134.894 596.232 135.446 596.498 136.106C596.765 136.766 596.898 137.527 596.898 138.39C596.898 139.164 596.815 139.916 596.65 140.646C596.492 141.369 596.254 142.052 595.937 142.692C595.626 143.327 595.239 143.911 594.775 144.444C594.312 144.97 593.776 145.424 593.167 145.805C592.558 146.185 591.876 146.48 591.121 146.69C590.372 146.899 589.557 147.004 588.675 147.004H581.812L582.022 145.966ZM587.837 145.795C588.751 145.795 589.566 145.611 590.283 145.243C591 144.869 591.606 144.348 592.101 143.682C592.596 143.01 592.973 142.21 593.234 141.284C593.494 140.357 593.624 139.339 593.624 138.229C593.624 137.55 593.544 136.963 593.386 136.468C593.227 135.967 592.999 135.554 592.701 135.23C592.409 134.907 592.05 134.669 591.625 134.517C591.206 134.358 590.737 134.279 590.216 134.279H589.398L586.961 145.795H587.837Z" fill="white"/>
<path d="M584.578 168.194H583.172V159.616H584.578V168.194ZM583.062 157.296C583.062 156.983 583.14 156.757 583.297 156.616C583.458 156.476 583.656 156.405 583.89 156.405C584.109 156.405 584.299 156.476 584.461 156.616C584.627 156.757 584.711 156.983 584.711 157.296C584.711 157.603 584.627 157.83 584.461 157.976C584.299 158.121 584.109 158.194 583.89 158.194C583.656 158.194 583.458 158.121 583.297 157.976C583.14 157.83 583.062 157.603 583.062 157.296ZM598.211 168.194V162.671C598.211 161.317 597.63 160.64 596.469 160.64C595.672 160.64 595.086 160.871 594.711 161.335C594.336 161.799 594.148 162.507 594.148 163.46V168.194H592.75V162.671C592.75 161.994 592.607 161.486 592.32 161.147C592.039 160.809 591.596 160.64 590.992 160.64C590.2 160.64 589.62 160.882 589.25 161.366C588.885 161.851 588.703 162.645 588.703 163.749V168.194H587.297V159.616H588.429L588.64 160.788H588.719C588.963 160.371 589.307 160.046 589.75 159.812C590.198 159.577 590.698 159.46 591.25 159.46C592.594 159.46 593.469 159.939 593.875 160.897H593.953C594.229 160.439 594.604 160.085 595.078 159.835C595.557 159.585 596.099 159.46 596.703 159.46C597.672 159.46 598.396 159.71 598.875 160.21C599.359 160.71 599.601 161.509 599.601 162.608V168.194H598.211ZM606.328 168.351C605.177 168.351 604.291 167.937 603.672 167.108H603.578L603.609 167.429C603.651 167.835 603.672 168.197 603.672 168.515V172.038H602.265V159.616H603.422L603.609 160.788H603.672C604.005 160.319 604.39 159.981 604.828 159.772C605.265 159.564 605.771 159.46 606.344 159.46C607.458 159.46 608.323 159.848 608.937 160.624C609.557 161.395 609.867 162.483 609.867 163.89C609.867 165.291 609.557 166.384 608.937 167.171C608.317 167.957 607.448 168.351 606.328 168.351ZM606.094 160.64C605.245 160.64 604.63 160.879 604.25 161.358C603.875 161.838 603.682 162.59 603.672 163.616V163.89C603.672 165.051 603.864 165.892 604.25 166.413C604.635 166.929 605.26 167.187 606.125 167.187C606.844 167.187 607.403 166.895 607.804 166.312C608.211 165.728 608.414 164.916 608.414 163.874C608.414 162.827 608.211 162.028 607.804 161.476C607.403 160.918 606.833 160.64 606.094 160.64ZM613.515 168.194H612.109V156.038H613.515V168.194ZM619.883 168.351C618.596 168.351 617.586 167.963 616.851 167.187C616.122 166.405 615.758 165.332 615.758 163.968C615.758 162.593 616.099 161.499 616.781 160.687C617.463 159.869 618.385 159.46 619.547 159.46C620.625 159.46 621.484 159.809 622.125 160.507C622.765 161.2 623.086 162.14 623.086 163.327V164.179H617.211C617.237 165.153 617.484 165.892 617.953 166.397C618.422 166.903 619.086 167.155 619.945 167.155C620.403 167.155 620.838 167.116 621.25 167.038C621.661 166.955 622.143 166.796 622.695 166.562V167.796C622.221 167.999 621.776 168.142 621.359 168.226C620.942 168.309 620.45 168.351 619.883 168.351ZM619.531 160.608C618.859 160.608 618.328 160.825 617.937 161.257C617.547 161.689 617.315 162.291 617.242 163.062H621.609C621.599 162.259 621.414 161.65 621.054 161.233C620.695 160.817 620.187 160.608 619.531 160.608ZM636.179 168.194V162.671C636.179 161.317 635.599 160.64 634.437 160.64C633.64 160.64 633.054 160.871 632.679 161.335C632.304 161.799 632.117 162.507 632.117 163.46V168.194H630.719V162.671C630.719 161.994 630.575 161.486 630.289 161.147C630.008 160.809 629.565 160.64 628.961 160.64C628.169 160.64 627.588 160.882 627.219 161.366C626.854 161.851 626.672 162.645 626.672 163.749V168.194H625.265V159.616H626.398L626.609 160.788H626.687C626.932 160.371 627.276 160.046 627.719 159.812C628.166 159.577 628.666 159.46 629.219 159.46C630.562 159.46 631.437 159.939 631.844 160.897H631.922C632.198 160.439 632.573 160.085 633.047 159.835C633.526 159.585 634.067 159.46 634.672 159.46C635.64 159.46 636.364 159.71 636.844 160.21C637.328 160.71 637.57 161.509 637.57 162.608V168.194H636.179ZM643.883 168.351C642.596 168.351 641.586 167.963 640.851 167.187C640.122 166.405 639.758 165.332 639.758 163.968C639.758 162.593 640.099 161.499 640.781 160.687C641.463 159.869 642.385 159.46 643.547 159.46C644.625 159.46 645.484 159.809 646.125 160.507C646.765 161.2 647.086 162.14 647.086 163.327V164.179H641.211C641.237 165.153 641.484 165.892 641.953 166.397C642.422 166.903 643.086 167.155 643.945 167.155C644.403 167.155 644.838 167.116 645.25 167.038C645.661 166.955 646.143 166.796 646.695 166.562V167.796C646.221 167.999 645.776 168.142 645.359 168.226C644.942 168.309 644.45 168.351 643.883 168.351ZM643.531 160.608C642.859 160.608 642.328 160.825 641.937 161.257C641.547 161.689 641.315 162.291 641.242 163.062H645.609C645.599 162.259 645.414 161.65 645.054 161.233C644.695 160.817 644.187 160.608 643.531 160.608ZM655.109 168.194V162.71C655.109 162.012 654.953 161.494 654.64 161.155C654.333 160.812 653.849 160.64 653.187 160.64C652.307 160.64 651.666 160.884 651.265 161.374C650.87 161.858 650.672 162.65 650.672 163.749V168.194H649.265V159.616H650.398L650.609 160.788H650.687C650.953 160.366 651.325 160.041 651.804 159.812C652.284 159.577 652.812 159.46 653.39 159.46C654.442 159.46 655.224 159.715 655.734 160.226C656.245 160.736 656.5 161.53 656.5 162.608V168.194H655.109ZM662.023 167.202C662.205 167.202 662.419 167.184 662.664 167.147C662.909 167.111 663.094 167.069 663.219 167.022V168.101C663.088 168.158 662.885 168.213 662.609 168.265C662.338 168.322 662.062 168.351 661.781 168.351C660.104 168.351 659.265 167.468 659.265 165.702V160.71H658.054V160.038L659.281 159.476L659.844 157.647H660.679V159.616H663.156V160.71H660.679V165.663C660.679 166.158 660.797 166.538 661.031 166.804C661.271 167.069 661.601 167.202 662.023 167.202ZM670.234 168.194L669.961 166.976H669.898C669.471 167.512 669.044 167.877 668.617 168.069C668.195 168.257 667.661 168.351 667.015 168.351C666.172 168.351 665.51 168.129 665.031 167.687C664.552 167.244 664.312 166.619 664.312 165.812C664.312 164.072 665.685 163.16 668.429 163.077L669.883 163.022V162.515C669.883 161.864 669.742 161.384 669.461 161.077C669.179 160.765 668.729 160.608 668.109 160.608C667.656 160.608 667.226 160.676 666.82 160.812C666.419 160.947 666.041 161.098 665.687 161.265L665.258 160.21C665.69 159.981 666.161 159.801 666.672 159.671C667.182 159.541 667.687 159.476 668.187 159.476C669.224 159.476 669.995 159.705 670.5 160.163C671.005 160.621 671.258 161.351 671.258 162.351V168.194H670.234ZM667.336 167.218C668.122 167.218 668.739 167.007 669.187 166.585C669.64 166.158 669.867 165.554 669.867 164.772V163.999L668.601 164.054C667.617 164.09 666.898 164.246 666.445 164.522C665.997 164.799 665.773 165.233 665.773 165.827C665.773 166.275 665.909 166.619 666.179 166.858C666.455 167.098 666.841 167.218 667.336 167.218ZM677.359 168.351C676.125 168.351 675.164 167.973 674.476 167.218C673.789 166.457 673.445 165.369 673.445 163.952C673.445 162.515 673.791 161.408 674.484 160.632C675.182 159.851 676.174 159.46 677.461 159.46C677.877 159.46 678.289 159.504 678.695 159.593C679.107 159.676 679.445 159.785 679.711 159.921L679.281 161.093C678.557 160.822 677.94 160.687 677.429 160.687C676.565 160.687 675.927 160.96 675.515 161.507C675.104 162.049 674.898 162.858 674.898 163.937C674.898 164.973 675.104 165.767 675.515 166.319C675.927 166.866 676.536 167.14 677.344 167.14C678.099 167.14 678.841 166.973 679.57 166.64V167.89C678.976 168.197 678.239 168.351 677.359 168.351ZM685.258 168.351C683.971 168.351 682.961 167.963 682.226 167.187C681.497 166.405 681.133 165.332 681.133 163.968C681.133 162.593 681.474 161.499 682.156 160.687C682.838 159.869 683.76 159.46 684.922 159.46C686 159.46 686.859 159.809 687.5 160.507C688.14 161.2 688.461 162.14 688.461 163.327V164.179H682.586C682.612 165.153 682.859 165.892 683.328 166.397C683.797 166.903 684.461 167.155 685.32 167.155C685.778 167.155 686.213 167.116 686.625 167.038C687.036 166.955 687.518 166.796 688.07 166.562V167.796C687.596 167.999 687.151 168.142 686.734 168.226C686.317 168.309 685.825 168.351 685.258 168.351ZM684.906 160.608C684.234 160.608 683.703 160.825 683.312 161.257C682.922 161.689 682.69 162.291 682.617 163.062H686.984C686.974 162.259 686.789 161.65 686.429 161.233C686.07 160.817 685.562 160.608 684.906 160.608Z" fill="#ABD8F7"/>
<defs>
<filter id="filter0_d_6_706" x="160" y="203.256" width="836.5" height="105.332" filterUnits="userSpaceOnUse" color-interpolation-filters="sRGB">
<feFlood flood-opacity="0" result="BackgroundImageFix"/>
<feColorMatrix in="SourceAlpha" type="matrix" values="0 0 0 0 0 0 0 0 0 0 0 0 0 0 0 0 0 0 127 0" result="hardAlpha"/>
<feOffset/>
<feGaussianBlur stdDeviation="3"/>
<feComposite in2="hardAlpha" operator="out"/>
<feColorMatrix type="matrix" values="0 0 0 0 0.309631 0 0 0 0 1 0 0 0 0 1 0 0 0 0.4 0"/>
<feBlend mode="normal" in2="BackgroundImageFix" result="effect1_dropShadow_6_706"/>
<feBlend mode="normal" in="SourceGraphic" in2="effect1_dropShadow_6_706" result="shape"/>
</filter>
<filter id="filter1_d_6_706" x="696" y="67.318" width="300.5" height="176.682" filterUnits="userSpaceOnUse" color-interpolation-filters="sRGB">
<feFlood flood-opacity="0" result="BackgroundImageFix"/>
<feColorMatrix in="SourceAlpha" type="matrix" values="0 0 0 0 0 0 0 0 0 0 0 0 0 0 0 0 0 0 127 0" result="hardAlpha"/>
<feOffset/>
<feGaussianBlur stdDeviation="3"/>
<feComposite in2="hardAlpha" operator="out"/>
<feColorMatrix type="matrix" values="0 0 0 0 0.0479126 0 0 0 0 0.88575 0 0 0 0 1 0 0 0 1 0"/>
<feBlend mode="normal" in2="BackgroundImageFix" result="effect1_dropShadow_6_706"/>
<feBlend mode="normal" in="SourceGraphic" in2="effect1_dropShadow_6_706" result="shape"/>
</filter>
<filter id="filter2_d_6_706" x="703" y="226" width="20" height="20" filterUnits="userSpaceOnUse" color-interpolation-filters="sRGB">
<feFlood flood-opacity="0" result="BackgroundImageFix"/>
<feColorMatrix in="SourceAlpha" type="matrix" values="0 0 0 0 0 0 0 0 0 0 0 0 0 0 0 0 0 0 127 0" result="hardAlpha"/>
<feOffset/>
<feGaussianBlur stdDeviation="3"/>
<feComposite in2="hardAlpha" operator="out"/>
<feColorMatrix type="matrix" values="0 0 0 0 0.0479126 0 0 0 0 0.88575 0 0 0 0 1 0 0 0 1 0"/>
<feBlend mode="normal" in2="BackgroundImageFix" result="effect1_dropShadow_6_706"/>
<feBlend mode="normal" in="SourceGraphic" in2="effect1_dropShadow_6_706" result="shape"/>
</filter>
<filter id="filter3_d_6_706" x="834.5" y="248.5" width="21" height="21" filterUnits="userSpaceOnUse" color-interpolation-filters="sRGB">
<feFlood flood-opacity="0" result="BackgroundImageFix"/>
<feColorMatrix in="SourceAlpha" type="matrix" values="0 0 0 0 0 0 0 0 0 0 0 0 0 0 0 0 0 0 127 0" result="hardAlpha"/>
<feOffset/>
<feGaussianBlur stdDeviation="3"/>
<feComposite in2="hardAlpha" operator="out"/>
<feColorMatrix type="matrix" values="0 0 0 0 0.309631 0 0 0 0 1 0 0 0 0 1 0 0 0 0.4 0"/>
<feBlend mode="normal" in2="BackgroundImageFix" result="effect1_dropShadow_6_706"/>
<feBlend mode="normal" in="SourceGraphic" in2="effect1_dropShadow_6_706" result="shape"/>
</filter>
<linearGradient id="paint0_linear_6_706" x1="685" y1="162" x2="435" y2="162" gradientUnits="userSpaceOnUse">
<stop/>
<stop offset="1" stop-opacity="0"/>
</linearGradient>
<linearGradient id="paint1_linear_6_706" x1="590" y1="228" x2="577.91" y2="349.966" gradientUnits="userSpaceOnUse">
<stop stop-color="#174A6C" stop-opacity="0.7"/>
<stop offset="1" stop-color="#053A5D" stop-opacity="0"/>
</linearGradient>
<linearGradient id="paint2_linear_6_706" x1="846.5" y1="77" x2="846.5" y2="276" gradientUnits="userSpaceOnUse">
<stop stop-color="#0AB0A4"/>
<stop offset="1" stop-color="#0D3732" stop-opacity="0"/>
</linearGradient>
<linearGradient id="paint3_linear_6_706" x1="724" y1="238" x2="703.5" y2="238" gradientUnits="userSpaceOnUse">
<stop stop-color="white"/>
<stop offset="1" stop-color="white" stop-opacity="0"/>
</linearGradient>
<linearGradient id="paint4_linear_6_706" x1="730.5" y1="354" x2="406.5" y2="354" gradientUnits="userSpaceOnUse">
<stop stop-color="#F3FBFF"/>
<stop offset="1" stop-color="#F3FBFF" stop-opacity="0"/>
</linearGradient>
</defs>
</svg>
